ISO-10303-21;
HEADER;
FILE_DESCRIPTION (( 'STEP AP214' ),
    '1' );
FILE_NAME ('linear-rail-attachment-block.STEP',
    '2026-07-27T18:08:32',
    ( '' ),
    ( '' ),
    'SwSTEP 2.0',
    'SolidWorks 2025',
    '' );
FILE_SCHEMA (( 'AUTOMOTIVE_DESIGN' ));
ENDSEC;

DATA;
#1 = LINE ( 'NONE', #678, #62 ) ;
#2 = VECTOR ( 'NONE', #397, 1000.000000000000000 ) ;
#3 = CIRCLE ( 'NONE', #132, 0.6499999999999995781 ) ;
#4 = DIRECTION ( 'NONE',  ( 0.000000000000000000, 0.000000000000000000, 1.000000000000000000 ) ) ;
#5 = ORIENTED_EDGE ( 'NONE', *, *, #244, .F. ) ;
#6 = DIRECTION ( 'NONE',  ( 0.000000000000000000, 1.000000000000000000, 0.000000000000000000 ) ) ;
#7 = EDGE_CURVE ( 'NONE', #339, #104, #213, .T. ) ;
#8 = EDGE_CURVE ( 'NONE', #52, #693, #92, .T. ) ;
#9 = ORIENTED_EDGE ( 'NONE', *, *, #14, .F. ) ;
#10 = EDGE_LOOP ( 'NONE', ( #260, #266, #145, #195 ) ) ;
#11 = AXIS2_PLACEMENT_3D ( 'NONE', #215, #545, #35 ) ;
#12 = CIRCLE ( 'NONE', #448, 0.6500000000000003553 ) ;
#13 = ORIENTED_EDGE ( 'NONE', *, *, #480, .T. ) ;
#14 = EDGE_CURVE ( 'NONE', #243, #20, #124, .T. ) ;
#15 = DIRECTION ( 'NONE',  ( 0.000000000000000000, 0.000000000000000000, 1.000000000000000000 ) ) ;
#16 = ORIENTED_EDGE ( 'NONE', *, *, #14, .T. ) ;
#17 = LINE ( 'NONE', #188, #189 ) ;
#18 = ORIENTED_EDGE ( 'NONE', *, *, #158, .T. ) ;
#19 = FACE_OUTER_BOUND ( 'NONE', #463, .T. ) ;
#20 = VERTEX_POINT ( 'NONE', #324 ) ;
#21 = CIRCLE ( 'NONE', #71, 0.6500000000000003553 ) ;
#22 = VECTOR ( 'NONE', #586, 1000.000000000000000 ) ;
#23 = CYLINDRICAL_SURFACE ( 'NONE', #655, 1.250000000000000222 ) ;
#24 = EDGE_CURVE ( 'NONE', #203, #458, #495, .T. ) ;
#25 = CARTESIAN_POINT ( 'NONE',  ( 0.000000000000000000, -3.000000000000000000, -3.750000000000000888 ) ) ;
#26 = ORIENTED_EDGE ( 'NONE', *, *, #292, .T. ) ;
#27 = ADVANCED_FACE ( 'NONE', ( #701 ), #209, .F. ) ;
#28 = CARTESIAN_POINT ( 'NONE',  ( 3.249999999999999556, -3.000000000000000000, 9.500000000000000000 ) ) ;
#29 = VECTOR ( 'NONE', #712, 1000.000000000000000 ) ;
#30 = ORIENTED_EDGE ( 'NONE', *, *, #467, .F. ) ;
#31 = FACE_OUTER_BOUND ( 'NONE', #126, .T. ) ;
#32 = CARTESIAN_POINT ( 'NONE',  ( 1.530808498934191817E-16, -1.500000000000000000, 2.349999999999999645 ) ) ;
#33 = DIRECTION ( 'NONE',  ( 0.000000000000000000, 1.000000000000000000, 0.000000000000000000 ) ) ;
#34 = EDGE_CURVE ( 'NONE', #580, #133, #460, .T. ) ;
#35 = DIRECTION ( 'NONE',  ( 0.000000000000000000, 0.000000000000000000, 1.000000000000000000 ) ) ;
#36 = AXIS2_PLACEMENT_3D ( 'NONE', #28, #257, #75 ) ;
#37 = VECTOR ( 'NONE', #290, 1000.000000000000000 ) ;
#38 = DIRECTION ( 'NONE',  ( -0.000000000000000000, 1.000000000000000000, -0.000000000000000000 ) ) ;
#39 = EDGE_CURVE ( 'NONE', #505, #526, #204, .T. ) ;
#40 = LINE ( 'NONE', #549, #344 ) ;
#41 = DIRECTION ( 'NONE',  ( 0.000000000000000000, -0.000000000000000000, 1.000000000000000000 ) ) ;
#42 = DIRECTION ( 'NONE',  ( 0.000000000000000000, 0.000000000000000000, 1.000000000000000000 ) ) ;
#43 = DIRECTION ( 'NONE',  ( 0.000000000000000000, 1.000000000000000000, 0.000000000000000000 ) ) ;
#44 = DIRECTION ( 'NONE',  ( 0.000000000000000000, 0.000000000000000000, 1.000000000000000000 ) ) ;
#45 = CYLINDRICAL_SURFACE ( 'NONE', #493, 1.250000000000000222 ) ;
#46 = CARTESIAN_POINT ( 'NONE',  ( 0.000000000000000000, -3.000000000000000000, 3.600000000000000089 ) ) ;
#47 = EDGE_LOOP ( 'NONE', ( #97, #164 ) ) ;
#48 = CARTESIAN_POINT ( 'NONE',  ( 0.000000000000000000, -1.500000000000000000, -3.750000000000000888 ) ) ;
#49 = LINE ( 'NONE', #372, #29 ) ;
#50 = AXIS2_PLACEMENT_3D ( 'NONE', #643, #265, #148 ) ;
#51 = DIRECTION ( 'NONE',  ( -0.000000000000000000, -1.000000000000000000, -0.000000000000000000 ) ) ;
#52 = VERTEX_POINT ( 'NONE', #427 ) ;
#53 = FACE_OUTER_BOUND ( 'NONE', #717, .T. ) ;
#54 = DIRECTION ( 'NONE',  ( 0.000000000000000000, 1.000000000000000000, 0.000000000000000000 ) ) ;
#55 = ORIENTED_EDGE ( 'NONE', *, *, #629, .T. ) ;
#56 =( NAMED_UNIT ( * ) PLANE_ANGLE_UNIT ( ) SI_UNIT ( $, .RADIAN. ) );
#57 = DIRECTION ( 'NONE',  ( -0.000000000000000000, -1.000000000000000000, -0.000000000000000000 ) ) ;
#58 = EDGE_CURVE ( 'NONE', #68, #523, #40, .T. ) ;
#59 = ORIENTED_EDGE ( 'NONE', *, *, #246, .F. ) ;
#60 = DIRECTION ( 'NONE',  ( 0.000000000000000000, 1.000000000000000000, 0.000000000000000000 ) ) ;
#61 = ADVANCED_BREP_SHAPE_REPRESENTATION ( 'linear-rail-attachment-block', ( #471, #214 ), #631 ) ;
#62 = VECTOR ( 'NONE', #60, 1000.000000000000000 ) ;
#63 = ORIENTED_EDGE ( 'NONE', *, *, #300, .F. ) ;
#64 = PLANE ( 'NONE',  #309 ) ;
#65 = ORIENTED_EDGE ( 'NONE', *, *, #58, .F. ) ;
#66 = CIRCLE ( 'NONE', #159, 0.6500000000000000222 ) ;
#67 = CARTESIAN_POINT ( 'NONE',  ( 1.530808498934191817E-16, 0.000000000000000000, 2.349999999999999645 ) ) ;
#68 = VERTEX_POINT ( 'NONE', #507 ) ;
#69 = DIRECTION ( 'NONE',  ( 0.000000000000000000, 1.000000000000000000, 0.000000000000000000 ) ) ;
#70 = CARTESIAN_POINT ( 'NONE',  ( 0.000000000000000000, -3.000000000000000000, -8.400000000000000355 ) ) ;
#71 = AXIS2_PLACEMENT_3D ( 'NONE', #46, #500, #113 ) ;
#72 = AXIS2_PLACEMENT_3D ( 'NONE', #696, #652, #538 ) ;
#73 = VECTOR ( 'NONE', #193, 1000.000000000000000 ) ;
#74 = EDGE_LOOP ( 'NONE', ( #280, #353, #348, #13 ) ) ;
#75 = DIRECTION ( 'NONE',  ( 0.000000000000000000, 0.000000000000000000, -1.000000000000000000 ) ) ;
#76 = CARTESIAN_POINT ( 'NONE',  ( 0.000000000000000000, 0.000000000000000000, 0.000000000000000000 ) ) ;
#77 = ORIENTED_EDGE ( 'NONE', *, *, #135, .F. ) ;
#78 = VECTOR ( 'NONE', #499, 1000.000000000000000 ) ;
#79 = FACE_BOUND ( 'NONE', #675, .T. ) ;
#80 = ORIENTED_EDGE ( 'NONE', *, *, #674, .F. ) ;
#81 = EDGE_CURVE ( 'NONE', #133, #580, #555, .T. ) ;
#82 = DIRECTION ( 'NONE',  ( 0.000000000000000000, 1.000000000000000000, 0.000000000000000000 ) ) ;
#83 = ADVANCED_FACE ( 'NONE', ( #279 ), #447, .F. ) ;
#84 = VERTEX_POINT ( 'NONE', #131 ) ;
#85 = AXIS2_PLACEMENT_3D ( 'NONE', #374, #423, #592 ) ;
#86 = DIRECTION ( 'NONE',  ( 0.000000000000000000, 0.000000000000000000, 1.000000000000000000 ) ) ;
#87 = DIRECTION ( 'NONE',  ( 0.000000000000000000, 0.000000000000000000, 1.000000000000000000 ) ) ;
#88 = DIRECTION ( 'NONE',  ( 0.000000000000000000, 0.000000000000000000, 1.000000000000000000 ) ) ;
#89 = EDGE_LOOP ( 'NONE', ( #30, #686, #398, #154 ) ) ;
#90 = DIRECTION ( 'NONE',  ( 0.000000000000000000, -0.000000000000000000, 1.000000000000000000 ) ) ;
#91 = EDGE_CURVE ( 'NONE', #203, #404, #163, .T. ) ;
#92 = LINE ( 'NONE', #207, #607 ) ;
#93 = CARTESIAN_POINT ( 'NONE',  ( 0.000000000000000000, 0.000000000000000000, -8.400000000000000355 ) ) ;
#94 = EDGE_CURVE ( 'NONE', #679, #475, #288, .T. ) ;
#95 = CARTESIAN_POINT ( 'NONE',  ( 0.000000000000000000, 0.000000000000000000, -7.750000000000001776 ) ) ;
#96 = ORIENTED_EDGE ( 'NONE', *, *, #413, .F. ) ;
#97 = ORIENTED_EDGE ( 'NONE', *, *, #144, .T. ) ;
#98 = FACE_BOUND ( 'NONE', #530, .T. ) ;
#99 = AXIS2_PLACEMENT_3D ( 'NONE', #694, #363, #632 ) ;
#100 = CARTESIAN_POINT ( 'NONE',  ( 0.000000000000000000, 0.000000000000000000, -8.400000000000000355 ) ) ;
#101 = ORIENTED_EDGE ( 'NONE', *, *, #376, .T. ) ;
#102 = CARTESIAN_POINT ( 'NONE',  ( 0.000000000000000000, -3.000000000000000000, 7.599999999999999645 ) ) ;
#103 = CYLINDRICAL_SURFACE ( 'NONE', #661, 0.6500000000000003553 ) ;
#104 = VERTEX_POINT ( 'NONE', #230 ) ;
#105 = CARTESIAN_POINT ( 'NONE',  ( -3.250000000000000000, 0.000000000000000000, 9.500000000000000000 ) ) ;
#106 = ADVANCED_FACE ( 'NONE', ( #453 ), #716, .F. ) ;
#107 = DIRECTION ( 'NONE',  ( 0.000000000000000000, 1.000000000000000000, 0.000000000000000000 ) ) ;
#108 = EDGE_CURVE ( 'NONE', #523, #141, #640, .T. ) ;
#109 = DIRECTION ( 'NONE',  ( 0.000000000000000000, 1.000000000000000000, 0.000000000000000000 ) ) ;
#110 = EDGE_LOOP ( 'NONE', ( #96, #569, #574, #378 ) ) ;
#111 = CARTESIAN_POINT ( 'NONE',  ( 7.960204194457791779E-17, -3.000000000000000000, -9.050000000000000711 ) ) ;
#112 = AXIS2_PLACEMENT_3D ( 'NONE', #405, #559, #439 ) ;
#113 = DIRECTION ( 'NONE',  ( 0.000000000000000000, 0.000000000000000000, 1.000000000000000000 ) ) ;
#114 = ORIENTED_EDGE ( 'NONE', *, *, #625, .F. ) ;
#115 = EDGE_CURVE ( 'NONE', #20, #243, #390, .T. ) ;
#116 = CARTESIAN_POINT ( 'NONE',  ( 0.000000000000000000, -3.000000000000000000, -4.400000000000001243 ) ) ;
#117 = ORIENTED_EDGE ( 'NONE', *, *, #58, .T. ) ;
#118 = PRODUCT_DEFINITION ( 'UNKNOWN', '', #123, #691 ) ;
#119 = DIRECTION ( 'NONE',  ( 0.000000000000000000, 0.000000000000000000, 1.000000000000000000 ) ) ;
#120 = CARTESIAN_POINT ( 'NONE',  ( 1.530808498934191817E-16, -1.500000000000000000, -5.650000000000001243 ) ) ;
#121 = VERTEX_POINT ( 'NONE', #242 ) ;
#122 = CARTESIAN_POINT ( 'NONE',  ( 7.960204194457795477E-17, -1.500000000000000000, 2.949999999999999734 ) ) ;
#123 = PRODUCT_DEFINITION_FORMATION_WITH_SPECIFIED_SOURCE ( 'ANY', '', #196, .NOT_KNOWN. ) ;
#124 = CIRCLE ( 'NONE', #654, 0.6500000000000003553 ) ;
#125 = VECTOR ( 'NONE', #210, 1000.000000000000000 ) ;
#126 = EDGE_LOOP ( 'NONE', ( #391, #456, #26, #636 ) ) ;
#127 = EDGE_LOOP ( 'NONE', ( #235, #705 ) ) ;
#128 = DIRECTION ( 'NONE',  ( 0.000000000000000000, 0.000000000000000000, 1.000000000000000000 ) ) ;
#129 = VERTEX_POINT ( 'NONE', #217 ) ;
#130 = PLANE ( 'NONE',  #190 ) ;
#131 = CARTESIAN_POINT ( 'NONE',  ( 7.960204194457801640E-17, 0.000000000000000000, 6.949999999999999289 ) ) ;
#132 = AXIS2_PLACEMENT_3D ( 'NONE', #93, #551, #146 ) ;
#133 = VERTEX_POINT ( 'NONE', #120 ) ;
#134 = DIRECTION ( 'NONE',  ( 0.000000000000000000, 1.000000000000000000, 0.000000000000000000 ) ) ;
#135 = EDGE_CURVE ( 'NONE', #572, #68, #21, .T. ) ;
#136 = ORIENTED_EDGE ( 'NONE', *, *, #167, .T. ) ;
#137 = PLANE ( 'NONE',  #508 ) ;
#138 = ORIENTED_EDGE ( 'NONE', *, *, #570, .F. ) ;
#139 = DIRECTION ( 'NONE',  ( -0.000000000000000000, -1.000000000000000000, -0.000000000000000000 ) ) ;
#140 =( NAMED_UNIT ( * ) SI_UNIT ( $, .STERADIAN. ) SOLID_ANGLE_UNIT ( ) );
#141 = VERTEX_POINT ( 'NONE', #563 ) ;
#142 = MECHANICAL_DESIGN_GEOMETRIC_PRESENTATION_REPRESENTATION (  '', ( #238 ), #298 ) ;
#143 = CARTESIAN_POINT ( 'NONE',  ( 0.000000000000000000, -3.000000000000000000, -3.750000000000000888 ) ) ;
#144 = EDGE_CURVE ( 'NONE', #121, #129, #239, .T. ) ;
#145 = ORIENTED_EDGE ( 'NONE', *, *, #7, .T. ) ;
#146 = DIRECTION ( 'NONE',  ( 0.000000000000000000, 0.000000000000000000, 1.000000000000000000 ) ) ;
#147 = CARTESIAN_POINT ( 'NONE',  ( 0.000000000000000000, -3.000000000000000000, -8.400000000000000355 ) ) ;
#148 = DIRECTION ( 'NONE',  ( 0.000000000000000000, 0.000000000000000000, 1.000000000000000000 ) ) ;
#149 = DIRECTION ( 'NONE',  ( 0.000000000000000000, 1.000000000000000000, 0.000000000000000000 ) ) ;
#150 = EDGE_LOOP ( 'NONE', ( #550, #690, #287, #101 ) ) ;
#151 = CARTESIAN_POINT ( 'NONE',  ( 3.249999999999999556, 0.000000000000000000, 9.500000000000000000 ) ) ;
#152 = AXIS2_PLACEMENT_3D ( 'NONE', #351, #69, #119 ) ;
#153 = FACE_BOUND ( 'NONE', #611, .T. ) ;
#154 = ORIENTED_EDGE ( 'NONE', *, *, #649, .T. ) ;
#155 = EDGE_CURVE ( 'NONE', #572, #141, #341, .T. ) ;
#156 = LINE ( 'NONE', #105, #125 ) ;
#157 = DIRECTION ( 'NONE',  ( 0.000000000000000000, 1.000000000000000000, 0.000000000000000000 ) ) ;
#158 = EDGE_CURVE ( 'NONE', #683, #706, #12, .T. ) ;
#159 = AXIS2_PLACEMENT_3D ( 'NONE', #269, #107, #42 ) ;
#160 = DIRECTION ( 'NONE',  ( 0.000000000000000000, 0.000000000000000000, 1.000000000000000000 ) ) ;
#161 = EDGE_LOOP ( 'NONE', ( #59, #664, #605, #672 ) ) ;
#162 = DIRECTION ( 'NONE',  ( -0.000000000000000000, 1.000000000000000000, -0.000000000000000000 ) ) ;
#163 = LINE ( 'NONE', #668, #2 ) ;
#164 = ORIENTED_EDGE ( 'NONE', *, *, #674, .T. ) ;
#165 =( LENGTH_UNIT ( ) NAMED_UNIT ( * ) SI_UNIT ( .MILLI., .METRE. ) );
#166 = AXIS2_PLACEMENT_3D ( 'NONE', #225, #386, #604 ) ;
#167 = EDGE_CURVE ( 'NONE', #129, #84, #626, .T. ) ;
#168 = AXIS2_PLACEMENT_3D ( 'NONE', #314, #627, #88 ) ;
#169 = VECTOR ( 'NONE', #370, 1000.000000000000000 ) ;
#170 = CARTESIAN_POINT ( 'NONE',  ( 0.000000000000000000, -3.000000000000000000, 4.250000000000000000 ) ) ;
#171 = ADVANCED_FACE ( 'NONE', ( #274 ), #503, .F. ) ;
#172 = ORIENTED_EDGE ( 'NONE', *, *, #558, .T. ) ;
#173 = CARTESIAN_POINT ( 'NONE',  ( 3.249999999999999556, -3.000000000000000000, 9.500000000000000000 ) ) ;
#174 = CARTESIAN_POINT ( 'NONE',  ( 0.000000000000000000, -3.000000000000000000, 7.599999999999999645 ) ) ;
#175 = ORIENTED_EDGE ( 'NONE', *, *, #115, .F. ) ;
#176 = DIRECTION ( 'NONE',  ( 1.000000000000000000, 0.000000000000000000, 0.000000000000000000 ) ) ;
#177 = ORIENTED_EDGE ( 'NONE', *, *, #480, .F. ) ;
#178 = DIRECTION ( 'NONE',  ( -0.000000000000000000, 1.000000000000000000, -0.000000000000000000 ) ) ;
#179 = CIRCLE ( 'NONE', #261, 1.250000000000000222 ) ;
#180 = ORIENTED_EDGE ( 'NONE', *, *, #155, .T. ) ;
#181 = VECTOR ( 'NONE', #38, 1000.000000000000000 ) ;
#182 = CARTESIAN_POINT ( 'NONE',  ( -3.250000000000000000, -3.000000000000000000, 9.500000000000000000 ) ) ;
#183 = ORIENTED_EDGE ( 'NONE', *, *, #424, .T. ) ;
#184 = DIRECTION ( 'NONE',  ( -0.000000000000000000, -1.000000000000000000, -0.000000000000000000 ) ) ;
#185 = DIRECTION ( 'NONE',  ( 0.000000000000000000, 0.000000000000000000, 1.000000000000000000 ) ) ;
#186 = ORIENTED_EDGE ( 'NONE', *, *, #440, .F. ) ;
#187 = ADVANCED_FACE ( 'NONE', ( #494 ), #220, .F. ) ;
#188 = CARTESIAN_POINT ( 'NONE',  ( 0.000000000000000000, -3.000000000000000000, 0.2499999999999997780 ) ) ;
#189 = VECTOR ( 'NONE', #202, 1000.000000000000000 ) ;
#190 = AXIS2_PLACEMENT_3D ( 'NONE', #355, #576, #709 ) ;
#191 = ORIENTED_EDGE ( 'NONE', *, *, #302, .T. ) ;
#192 = EDGE_CURVE ( 'NONE', #475, #679, #179, .T. ) ;
#193 = DIRECTION ( 'NONE',  ( 2.282530889443167392E-17, -0.000000000000000000, 1.000000000000000000 ) ) ;
#194 = DIRECTION ( 'NONE',  ( 0.000000000000000000, 0.000000000000000000, 1.000000000000000000 ) ) ;
#195 = ORIENTED_EDGE ( 'NONE', *, *, #597, .T. ) ;
#196 = PRODUCT ( 'linear-rail-attachment-block', 'linear-rail-attachment-block', '', ( #582 ) ) ;
#197 = DIRECTION ( 'NONE',  ( 0.000000000000000000, 0.000000000000000000, 1.000000000000000000 ) ) ;
#198 = FACE_BOUND ( 'NONE', #301, .T. ) ;
#199 = ORIENTED_EDGE ( 'NONE', *, *, #342, .T. ) ;
#200 = UNCERTAINTY_MEASURE_WITH_UNIT (LENGTH_MEASURE( 1.000000000000000082E-05 ), #165, 'distance_accuracy_value', 'NONE');
#201 = CARTESIAN_POINT ( 'NONE',  ( -3.250000000000000444, -3.000000000000000000, -9.500000000000000000 ) ) ;
#202 = DIRECTION ( 'NONE',  ( -0.000000000000000000, 1.000000000000000000, -0.000000000000000000 ) ) ;
#203 = VERTEX_POINT ( 'NONE', #663 ) ;
#204 = CIRCLE ( 'NONE', #527, 0.6500000000000000222 ) ;
#205 = CARTESIAN_POINT ( 'NONE',  ( 7.960204194457795477E-17, -3.000000000000000000, -1.050000000000000044 ) ) ;
#206 = DIRECTION ( 'NONE',  ( 0.000000000000000000, 0.000000000000000000, 1.000000000000000000 ) ) ;
#207 = CARTESIAN_POINT ( 'NONE',  ( 3.249999999999999556, -3.000000000000000000, 9.500000000000000000 ) ) ;
#208 = CARTESIAN_POINT ( 'NONE',  ( -3.250000000000000444, -3.000000000000000000, -9.500000000000000000 ) ) ;
#209 = CYLINDRICAL_SURFACE ( 'NONE', #85, 1.250000000000000222 ) ;
#210 = DIRECTION ( 'NONE',  ( 2.282530889443167392E-17, -0.000000000000000000, 1.000000000000000000 ) ) ;
#211 = DIRECTION ( 'NONE',  ( 0.000000000000000000, 0.000000000000000000, -1.000000000000000000 ) ) ;
#212 = ADVANCED_FACE ( 'NONE', ( #609 ), #684, .F. ) ;
#213 = LINE ( 'NONE', #315, #516 ) ;
#214 = AXIS2_PLACEMENT_3D ( 'NONE', #76, #194, #251 ) ;
#215 = CARTESIAN_POINT ( 'NONE',  ( 0.000000000000000000, -3.000000000000000000, 7.599999999999999645 ) ) ;
#216 = DIRECTION ( 'NONE',  ( -0.000000000000000000, 1.000000000000000000, -0.000000000000000000 ) ) ;
#217 = CARTESIAN_POINT ( 'NONE',  ( 7.960204194457801640E-17, -3.000000000000000000, 6.949999999999999289 ) ) ;
#218 = PLANE ( 'NONE',  #577 ) ;
#219 = CIRCLE ( 'NONE', #473, 0.6500000000000003553 ) ;
#220 = CYLINDRICAL_SURFACE ( 'NONE', #166, 0.6500000000000003553 ) ;
#221 = EDGE_CURVE ( 'NONE', #141, #523, #666, .T. ) ;
#222 = ORIENTED_EDGE ( 'NONE', *, *, #7, .F. ) ;
#223 = DIRECTION ( 'NONE',  ( 0.000000000000000000, 0.000000000000000000, 1.000000000000000000 ) ) ;
#224 = ADVANCED_FACE ( 'NONE', ( #311 ), #531, .T. ) ;
#225 = CARTESIAN_POINT ( 'NONE',  ( 0.000000000000000000, -3.000000000000000000, 3.600000000000000089 ) ) ;
#226 = ORIENTED_EDGE ( 'NONE', *, *, #376, .F. ) ;
#227 = SURFACE_SIDE_STYLE ('',( #451 ) ) ;
#228 = AXIS2_PLACEMENT_3D ( 'NONE', #174, #286, #15 ) ;
#229 = AXIS2_PLACEMENT_3D ( 'NONE', #102, #437, #44 ) ;
#230 = CARTESIAN_POINT ( 'NONE',  ( 0.000000000000000000, 0.000000000000000000, 4.850000000000000533 ) ) ;
#231 = ORIENTED_EDGE ( 'NONE', *, *, #268, .F. ) ;
#232 = DIRECTION ( 'NONE',  ( 0.000000000000000000, 0.000000000000000000, 1.000000000000000000 ) ) ;
#233 = VERTEX_POINT ( 'NONE', #578 ) ;
#234 = EDGE_CURVE ( 'NONE', #84, #233, #540, .T. ) ;
#235 = ORIENTED_EDGE ( 'NONE', *, *, #94, .F. ) ;
#236 = ADVANCED_FACE ( 'NONE', ( #308, #79 ), #137, .T. ) ;
#237 = FACE_OUTER_BOUND ( 'NONE', #289, .T. ) ;
#238 = STYLED_ITEM ( 'NONE', ( #340 ), #471 ) ;
#239 = CIRCLE ( 'NONE', #618, 0.6500000000000003553 ) ;
#240 = ORIENTED_EDGE ( 'NONE', *, *, #506, .T. ) ;
#241 = CARTESIAN_POINT ( 'NONE',  ( 7.960204194457795477E-17, 0.000000000000000000, -1.050000000000000044 ) ) ;
#242 = CARTESIAN_POINT ( 'NONE',  ( 0.000000000000000000, -3.000000000000000000, 8.250000000000000000 ) ) ;
#243 = VERTEX_POINT ( 'NONE', #25 ) ;
#244 = EDGE_CURVE ( 'NONE', #401, #526, #17, .T. ) ;
#245 = CARTESIAN_POINT ( 'NONE',  ( -3.250000000000000444, 0.000000000000000000, -9.500000000000000000 ) ) ;
#246 = EDGE_CURVE ( 'NONE', #133, #475, #412, .T. ) ;
#247 = ORIENTED_EDGE ( 'NONE', *, *, #416, .F. ) ;
#248 = FACE_OUTER_BOUND ( 'NONE', #414, .T. ) ;
#249 = CARTESIAN_POINT ( 'NONE',  ( 0.000000000000000000, -3.000000000000000000, -0.4000000000000001887 ) ) ;
#250 = AXIS2_PLACEMENT_3D ( 'NONE', #429, #43, #537 ) ;
#251 = DIRECTION ( 'NONE',  ( 1.000000000000000000, 0.000000000000000000, 0.000000000000000000 ) ) ;
#252 = EDGE_LOOP ( 'NONE', ( #226, #622 ) ) ;
#253 = DIRECTION ( 'NONE',  ( 0.000000000000000000, 1.000000000000000000, 0.000000000000000000 ) ) ;
#254 = LINE ( 'NONE', #32, #169 ) ;
#255 = ORIENTED_EDGE ( 'NONE', *, *, #629, .F. ) ;
#256 = CIRCLE ( 'NONE', #349, 0.6499999999999995781 ) ;
#257 = DIRECTION ( 'NONE',  ( 1.000000000000000000, -0.000000000000000000, 0.000000000000000000 ) ) ;
#258 = DIRECTION ( 'NONE',  ( 0.000000000000000000, 1.000000000000000000, 0.000000000000000000 ) ) ;
#259 = CARTESIAN_POINT ( 'NONE',  ( 0.000000000000000000, -1.500000000000000000, -4.400000000000001243 ) ) ;
#260 = ORIENTED_EDGE ( 'NONE', *, *, #270, .F. ) ;
#261 = AXIS2_PLACEMENT_3D ( 'NONE', #444, #109, #330 ) ;
#262 = CIRCLE ( 'NONE', #669, 1.250000000000000222 ) ;
#263 = CARTESIAN_POINT ( 'NONE',  ( 0.000000000000000000, 0.000000000000000000, -3.150000000000000799 ) ) ;
#264 = PLANE ( 'NONE',  #347 ) ;
#265 = DIRECTION ( 'NONE',  ( 0.000000000000000000, 1.000000000000000000, 0.000000000000000000 ) ) ;
#266 = ORIENTED_EDGE ( 'NONE', *, *, #291, .F. ) ;
#267 = DIRECTION ( 'NONE',  ( -0.000000000000000000, 1.000000000000000000, -0.000000000000000000 ) ) ;
#268 = EDGE_CURVE ( 'NONE', #526, #505, #687, .T. ) ;
#269 = CARTESIAN_POINT ( 'NONE',  ( 0.000000000000000000, -3.000000000000000000, -0.4000000000000001887 ) ) ;
#270 = EDGE_CURVE ( 'NONE', #445, #489, #254, .T. ) ;
#271 = VERTEX_POINT ( 'NONE', #470 ) ;
#272 = FACE_BOUND ( 'NONE', #252, .T. ) ;
#273 = FACE_BOUND ( 'NONE', #560, .T. ) ;
#274 = FACE_OUTER_BOUND ( 'NONE', #89, .T. ) ;
#275 = ORIENTED_EDGE ( 'NONE', *, *, #548, .F. ) ;
#276 = CARTESIAN_POINT ( 'NONE',  ( -3.250000000000000000, 0.000000000000000000, 9.500000000000000000 ) ) ;
#277 = LINE ( 'NONE', #111, #181 ) ;
#278 = COLOUR_RGB ( '',0.7921568627450980005, 0.8196078431372548767, 0.9333333333333333481 ) ;
#279 = FACE_OUTER_BOUND ( 'NONE', #150, .T. ) ;
#280 = ORIENTED_EDGE ( 'NONE', *, *, #424, .F. ) ;
#281 = DIRECTION ( 'NONE',  ( 0.000000000000000000, 0.000000000000000000, 1.000000000000000000 ) ) ;
#282 = CIRCLE ( 'NONE', #561, 0.6499999999999995781 ) ;
#283 = DIRECTION ( 'NONE',  ( -0.000000000000000000, 1.000000000000000000, -0.000000000000000000 ) ) ;
#284 = ORIENTED_EDGE ( 'NONE', *, *, #292, .F. ) ;
#285 = SURFACE_STYLE_USAGE ( .BOTH. , #227 ) ;
#286 = DIRECTION ( 'NONE',  ( -0.000000000000000000, 1.000000000000000000, -0.000000000000000000 ) ) ;
#287 = ORIENTED_EDGE ( 'NONE', *, *, #680, .T. ) ;
#288 = CIRCLE ( 'NONE', #112, 1.250000000000000222 ) ;
#289 = EDGE_LOOP ( 'NONE', ( #434, #177, #295, #616 ) ) ;
#290 = DIRECTION ( 'NONE',  ( 0.000000000000000000, 0.000000000000000000, -1.000000000000000000 ) ) ;
#291 = EDGE_CURVE ( 'NONE', #339, #445, #262, .T. ) ;
#292 = EDGE_CURVE ( 'NONE', #361, #512, #425, .T. ) ;
#293 = ORIENTED_EDGE ( 'NONE', *, *, #504, .T. ) ;
#294 = CARTESIAN_POINT ( 'NONE',  ( 0.000000000000000000, -3.000000000000000000, -0.4000000000000001887 ) ) ;
#295 = ORIENTED_EDGE ( 'NONE', *, *, #548, .T. ) ;
#296 = CARTESIAN_POINT ( 'NONE',  ( 0.000000000000000000, 0.000000000000000000, 0.2499999999999997780 ) ) ;
#297 = CARTESIAN_POINT ( 'NONE',  ( 0.000000000000000000, -3.000000000000000000, 7.599999999999999645 ) ) ;
#298 =( GEOMETRIC_REPRESENTATION_CONTEXT ( 3 ) GLOBAL_UNCERTAINTY_ASSIGNED_CONTEXT ( ( #200 ) ) GLOBAL_UNIT_ASSIGNED_CONTEXT ( ( #165, #56, #665 ) ) REPRESENTATION_CONTEXT ( 'NONE', 'WORKASPACE' ) );
#299 = VECTOR ( 'NONE', #536, 1000.000000000000000 ) ;
#300 = EDGE_CURVE ( 'NONE', #243, #683, #303, .T. ) ;
#301 = EDGE_LOOP ( 'NONE', ( #350, #310 ) ) ;
#302 = EDGE_CURVE ( 'NONE', #509, #271, #522, .T. ) ;
#303 = LINE ( 'NONE', #143, #610 ) ;
#304 = ORIENTED_EDGE ( 'NONE', *, *, #396, .T. ) ;
#305 = DIRECTION ( 'NONE',  ( 0.000000000000000000, 1.000000000000000000, 0.000000000000000000 ) ) ;
#306 = ORIENTED_EDGE ( 'NONE', *, *, #558, .F. ) ;
#307 = CARTESIAN_POINT ( 'NONE',  ( 0.000000000000000000, -3.000000000000000000, 3.600000000000000089 ) ) ;
#308 = FACE_OUTER_BOUND ( 'NONE', #566, .T. ) ;
#309 = AXIS2_PLACEMENT_3D ( 'NONE', #623, #573, #614 ) ;
#310 = ORIENTED_EDGE ( 'NONE', *, *, #108, .T. ) ;
#311 = FACE_OUTER_BOUND ( 'NONE', #74, .T. ) ;
#312 = EDGE_LOOP ( 'NONE', ( #65, #77, #180, #650 ) ) ;
#313 = CARTESIAN_POINT ( 'NONE',  ( 1.530808498934191817E-16, -1.500000000000000000, -5.650000000000001243 ) ) ;
#314 = CARTESIAN_POINT ( 'NONE',  ( 0.000000000000000000, -3.000000000000000000, -4.400000000000001243 ) ) ;
#315 = CARTESIAN_POINT ( 'NONE',  ( 0.000000000000000000, -1.500000000000000000, 4.850000000000000533 ) ) ;
#316 = LINE ( 'NONE', #276, #345 ) ;
#317 = LINE ( 'NONE', #208, #78 ) ;
#318 = VERTEX_POINT ( 'NONE', #641 ) ;
#319 = ADVANCED_FACE ( 'NONE', ( #465, #198 ), #589, .T. ) ;
#320 = CIRCLE ( 'NONE', #667, 1.250000000000000222 ) ;
#321 = ORIENTED_EDGE ( 'NONE', *, *, #8, .T. ) ;
#322 = FACE_OUTER_BOUND ( 'NONE', #472, .T. ) ;
#323 = CARTESIAN_POINT ( 'NONE',  ( 7.960204194457793012E-17, -3.000000000000000000, -9.050000000000000711 ) ) ;
#324 = CARTESIAN_POINT ( 'NONE',  ( 7.960204194457795477E-17, -3.000000000000000000, -5.050000000000001599 ) ) ;
#325 = DIRECTION ( 'NONE',  ( -0.000000000000000000, 1.000000000000000000, 0.000000000000000000 ) ) ;
#326 = DIRECTION ( 'NONE',  ( 0.000000000000000000, 0.000000000000000000, 1.000000000000000000 ) ) ;
#327 = ORIENTED_EDGE ( 'NONE', *, *, #81, .T. ) ;
#328 = CYLINDRICAL_SURFACE ( 'NONE', #229, 0.6500000000000003553 ) ;
#329 = CARTESIAN_POINT ( 'NONE',  ( 0.000000000000000000, -3.000000000000000000, 0.000000000000000000 ) ) ;
#330 = DIRECTION ( 'NONE',  ( 0.000000000000000000, 0.000000000000000000, 1.000000000000000000 ) ) ;
#331 = ORIENTED_EDGE ( 'NONE', *, *, #81, .F. ) ;
#332 = AXIS2_PLACEMENT_3D ( 'NONE', #517, #178, #197 ) ;
#333 = VECTOR ( 'NONE', #565, 1000.000000000000000 ) ;
#334 = FILL_AREA_STYLE_COLOUR ( '', #278 ) ;
#335 = APPLICATION_CONTEXT ( 'automotive_design' ) ;
#336 = DIRECTION ( 'NONE',  ( 0.000000000000000000, 0.000000000000000000, 1.000000000000000000 ) ) ;
#337 = ORIENTED_EDGE ( 'NONE', *, *, #524, .T. ) ;
#338 = DIRECTION ( 'NONE',  ( 0.000000000000000000, 0.000000000000000000, 1.000000000000000000 ) ) ;
#339 = VERTEX_POINT ( 'NONE', #525 ) ;
#340 = PRESENTATION_STYLE_ASSIGNMENT (( #285 ) ) ;
#341 = LINE ( 'NONE', #170, #333 ) ;
#342 = EDGE_CURVE ( 'NONE', #20, #706, #637, .T. ) ;
#343 = ORIENTED_EDGE ( 'NONE', *, *, #649, .F. ) ;
#344 = VECTOR ( 'NONE', #671, 1000.000000000000000 ) ;
#345 = VECTOR ( 'NONE', #487, 1000.000000000000000 ) ;
#346 = ADVANCED_FACE ( 'NONE', ( #19 ), #468, .F. ) ;
#347 = AXIS2_PLACEMENT_3D ( 'NONE', #329, #552, #606 ) ;
#348 = ORIENTED_EDGE ( 'NONE', *, *, #476, .T. ) ;
#349 = AXIS2_PLACEMENT_3D ( 'NONE', #147, #149, #223 ) ;
#350 = ORIENTED_EDGE ( 'NONE', *, *, #221, .T. ) ;
#351 = CARTESIAN_POINT ( 'NONE',  ( 0.000000000000000000, -1.500000000000000000, 3.600000000000000089 ) ) ;
#352 = ADVANCED_FACE ( 'NONE', ( #594 ), #45, .F. ) ;
#353 = ORIENTED_EDGE ( 'NONE', *, *, #8, .F. ) ;
#354 = ADVANCED_FACE ( 'NONE', ( #703 ), #218, .T. ) ;
#355 = CARTESIAN_POINT ( 'NONE',  ( -3.250000000000000000, -3.000000000000000000, 9.500000000000000000 ) ) ;
#356 = AXIS2_PLACEMENT_3D ( 'NONE', #688, #139, #206 ) ;
#357 = DIRECTION ( 'NONE',  ( -0.000000000000000000, 1.000000000000000000, -0.000000000000000000 ) ) ;
#358 = CIRCLE ( 'NONE', #698, 0.6500000000000003553 ) ;
#359 = ORIENTED_EDGE ( 'NONE', *, *, #413, .T. ) ;
#360 = DIRECTION ( 'NONE',  ( -0.000000000000000000, 1.000000000000000000, -0.000000000000000000 ) ) ;
#361 = VERTEX_POINT ( 'NONE', #543 ) ;
#362 = DIRECTION ( 'NONE',  ( 0.000000000000000000, 0.000000000000000000, 1.000000000000000000 ) ) ;
#363 = DIRECTION ( 'NONE',  ( 0.000000000000000000, 1.000000000000000000, 0.000000000000000000 ) ) ;
#364 = ORIENTED_EDGE ( 'NONE', *, *, #506, .F. ) ;
#365 = ADVANCED_FACE ( 'NONE', ( #388 ), #488, .F. ) ;
#366 = LINE ( 'NONE', #201, #22 ) ;
#367 = PRODUCT_DEFINITION_SHAPE ( 'NONE', 'NONE',  #118 ) ;
#368 = DIRECTION ( 'NONE',  ( -1.000000000000000000, -0.000000000000000000, -0.000000000000000000 ) ) ;
#369 = DIRECTION ( 'NONE',  ( -0.000000000000000000, 1.000000000000000000, -0.000000000000000000 ) ) ;
#370 = DIRECTION ( 'NONE',  ( -0.000000000000000000, 1.000000000000000000, -0.000000000000000000 ) ) ;
#371 = ORIENTED_EDGE ( 'NONE', *, *, #682, .T. ) ;
#372 = CARTESIAN_POINT ( 'NONE',  ( 0.000000000000000000, -1.500000000000000000, -3.150000000000000799 ) ) ;
#373 = ADVANCED_FACE ( 'NONE', ( #491 ), #103, .F. ) ;
#374 = CARTESIAN_POINT ( 'NONE',  ( 0.000000000000000000, -1.500000000000000000, -4.400000000000001243 ) ) ;
#375 = CARTESIAN_POINT ( 'NONE',  ( 3.249999999999999556, -3.000000000000000000, -9.500000000000000000 ) ) ;
#376 = EDGE_CURVE ( 'NONE', #233, #84, #219, .T. ) ;
#377 = LINE ( 'NONE', #428, #443 ) ;
#378 = ORIENTED_EDGE ( 'NONE', *, *, #91, .F. ) ;
#379 = AXIS2_PLACEMENT_3D ( 'NONE', #584, #305, #87 ) ;
#380 = AXIS2_PLACEMENT_3D ( 'NONE', #542, #325, #41 ) ;
#381 = FACE_OUTER_BOUND ( 'NONE', #514, .T. ) ;
#382 = CARTESIAN_POINT ( 'NONE',  ( 0.000000000000000000, 0.000000000000000000, 7.599999999999999645 ) ) ;
#383 = DIRECTION ( 'NONE',  ( 0.000000000000000000, 0.000000000000000000, 1.000000000000000000 ) ) ;
#384 = DIRECTION ( 'NONE',  ( -0.000000000000000000, 1.000000000000000000, -0.000000000000000000 ) ) ;
#385 = FACE_BOUND ( 'NONE', #47, .T. ) ;
#386 = DIRECTION ( 'NONE',  ( -0.000000000000000000, 1.000000000000000000, -0.000000000000000000 ) ) ;
#387 = ORIENTED_EDGE ( 'NONE', *, *, #39, .F. ) ;
#388 = FACE_OUTER_BOUND ( 'NONE', #110, .T. ) ;
#389 = DIRECTION ( 'NONE',  ( 0.000000000000000000, 0.000000000000000000, 1.000000000000000000 ) ) ;
#390 = CIRCLE ( 'NONE', #402, 0.6500000000000003553 ) ;
#391 = ORIENTED_EDGE ( 'NONE', *, *, #682, .F. ) ;
#392 = CIRCLE ( 'NONE', #72, 1.250000000000000222 ) ;
#393 = AXIS2_PLACEMENT_3D ( 'NONE', #408, #417, #90 ) ;
#394 = DIRECTION ( 'NONE',  ( 0.000000000000000000, 0.000000000000000000, 1.000000000000000000 ) ) ;
#395 = ORIENTED_EDGE ( 'NONE', *, *, #39, .T. ) ;
#396 = EDGE_CURVE ( 'NONE', #477, #401, #66, .T. ) ;
#397 = DIRECTION ( 'NONE',  ( -0.000000000000000000, 1.000000000000000000, -0.000000000000000000 ) ) ;
#398 = ORIENTED_EDGE ( 'NONE', *, *, #91, .T. ) ;
#399 = EDGE_CURVE ( 'NONE', #512, #585, #547, .T. ) ;
#400 = CARTESIAN_POINT ( 'NONE',  ( 3.249999999999999556, 0.000000000000000000, -9.500000000000000000 ) ) ;
#401 = VERTEX_POINT ( 'NONE', #715 ) ;
#402 = AXIS2_PLACEMENT_3D ( 'NONE', #116, #681, #389 ) ;
#403 = EDGE_LOOP ( 'NONE', ( #544, #9, #670, #306 ) ) ;
#404 = VERTEX_POINT ( 'NONE', #95 ) ;
#405 = CARTESIAN_POINT ( 'NONE',  ( 0.000000000000000000, 0.000000000000000000, -4.400000000000001243 ) ) ;
#406 = ORIENTED_EDGE ( 'NONE', *, *, #680, .F. ) ;
#407 = AXIS2_PLACEMENT_3D ( 'NONE', #249, #634, #474 ) ;
#408 = CARTESIAN_POINT ( 'NONE',  ( 0.000000000000000000, -1.500000000000000000, 3.600000000000000089 ) ) ;
#409 = VECTOR ( 'NONE', #267, 1000.000000000000000 ) ;
#410 = ORIENTED_EDGE ( 'NONE', *, *, #524, .F. ) ;
#411 = DIRECTION ( 'NONE',  ( -0.000000000000000000, 1.000000000000000000, -0.000000000000000000 ) ) ;
#412 = LINE ( 'NONE', #313, #595 ) ;
#413 = EDGE_CURVE ( 'NONE', #458, #203, #256, .T. ) ;
#414 = EDGE_LOOP ( 'NONE', ( #449, #656, #337, #222 ) ) ;
#415 = CARTESIAN_POINT ( 'NONE',  ( 0.000000000000000000, -3.000000000000000000, 4.250000000000000000 ) ) ;
#416 = EDGE_CURVE ( 'NONE', #580, #679, #49, .T. ) ;
#417 = DIRECTION ( 'NONE',  ( 0.000000000000000000, 1.000000000000000000, 0.000000000000000000 ) ) ;
#418 = ORIENTED_EDGE ( 'NONE', *, *, #625, .T. ) ;
#419 = DIRECTION ( 'NONE',  ( -0.000000000000000000, 1.000000000000000000, -0.000000000000000000 ) ) ;
#420 = CIRCLE ( 'NONE', #567, 0.6500000000000003553 ) ;
#421 = VECTOR ( 'NONE', #283, 1000.000000000000000 ) ;
#422 = CARTESIAN_POINT ( 'NONE',  ( 7.960204194457795477E-17, -1.500000000000000000, -5.050000000000001599 ) ) ;
#423 = DIRECTION ( 'NONE',  ( -0.000000000000000000, 1.000000000000000000, -0.000000000000000000 ) ) ;
#424 = EDGE_CURVE ( 'NONE', #693, #509, #377, .T. ) ;
#425 = LINE ( 'NONE', #645, #73 ) ;
#426 = EDGE_CURVE ( 'NONE', #361, #271, #317, .T. ) ;
#427 = CARTESIAN_POINT ( 'NONE',  ( 3.249999999999999556, -3.000000000000000000, 9.500000000000000000 ) ) ;
#428 = CARTESIAN_POINT ( 'NONE',  ( 3.249999999999999556, 0.000000000000000000, 9.500000000000000000 ) ) ;
#429 = CARTESIAN_POINT ( 'NONE',  ( 0.000000000000000000, -1.500000000000000000, -4.400000000000001243 ) ) ;
#430 = ORIENTED_EDGE ( 'NONE', *, *, #24, .T. ) ;
#431 = FACE_BOUND ( 'NONE', #660, .T. ) ;
#432 = DIRECTION ( 'NONE',  ( 0.000000000000000000, 0.000000000000000000, 1.000000000000000000 ) ) ;
#433 = CIRCLE ( 'NONE', #639, 0.6500000000000000222 ) ;
#434 = ORIENTED_EDGE ( 'NONE', *, *, #302, .F. ) ;
#435 = AXIS2_PLACEMENT_3D ( 'NONE', #615, #612, #160 ) ;
#436 = VECTOR ( 'NONE', #384, 1000.000000000000000 ) ;
#437 = DIRECTION ( 'NONE',  ( -0.000000000000000000, 1.000000000000000000, -0.000000000000000000 ) ) ;
#438 = CARTESIAN_POINT ( 'NONE',  ( -3.250000000000000000, -3.000000000000000000, 9.500000000000000000 ) ) ;
#439 = DIRECTION ( 'NONE',  ( 0.000000000000000000, 0.000000000000000000, 1.000000000000000000 ) ) ;
#440 = EDGE_CURVE ( 'NONE', #318, #404, #282, .T. ) ;
#441 = EDGE_LOOP ( 'NONE', ( #596, #501 ) ) ;
#442 = DIRECTION ( 'NONE',  ( 1.000000000000000000, 0.000000000000000000, -0.000000000000000000 ) ) ;
#443 = VECTOR ( 'NONE', #211, 1000.000000000000000 ) ;
#444 = CARTESIAN_POINT ( 'NONE',  ( 0.000000000000000000, 0.000000000000000000, -4.400000000000001243 ) ) ;
#445 = VERTEX_POINT ( 'NONE', #599 ) ;
#446 = CARTESIAN_POINT ( 'NONE',  ( 0.000000000000000000, -3.000000000000000000, -8.400000000000000355 ) ) ;
#447 = CYLINDRICAL_SURFACE ( 'NONE', #228, 0.6500000000000003553 ) ;
#448 = AXIS2_PLACEMENT_3D ( 'NONE', #713, #57, #336 ) ;
#449 = ORIENTED_EDGE ( 'NONE', *, *, #504, .F. ) ;
#450 = VECTOR ( 'NONE', #176, 1000.000000000000000 ) ;
#451 = SURFACE_STYLE_FILL_AREA ( #673 ) ;
#452 = ADVANCED_FACE ( 'NONE', ( #385, #653, #273, #153, #539, #53 ), #264, .F. ) ;
#453 = FACE_OUTER_BOUND ( 'NONE', #651, .T. ) ;
#454 = ORIENTED_EDGE ( 'NONE', *, *, #244, .T. ) ;
#455 = LINE ( 'NONE', #459, #450 ) ;
#456 = ORIENTED_EDGE ( 'NONE', *, *, #426, .F. ) ;
#457 = FACE_OUTER_BOUND ( 'NONE', #520, .T. ) ;
#458 = VERTEX_POINT ( 'NONE', #323 ) ;
#459 = CARTESIAN_POINT ( 'NONE',  ( -3.250000000000000000, -3.000000000000000000, 9.500000000000000000 ) ) ;
#460 = CIRCLE ( 'NONE', #250, 1.250000000000000222 ) ;
#461 = EDGE_LOOP ( 'NONE', ( #469, #304 ) ) ;
#462 = DIRECTION ( 'NONE',  ( 0.000000000000000000, 1.000000000000000000, 0.000000000000000000 ) ) ;
#463 = EDGE_LOOP ( 'NONE', ( #175, #199, #556, #63 ) ) ;
#464 = CARTESIAN_POINT ( 'NONE',  ( 0.000000000000000000, -1.500000000000000000, -4.400000000000001243 ) ) ;
#465 = FACE_OUTER_BOUND ( 'NONE', #541, .T. ) ;
#466 = ORIENTED_EDGE ( 'NONE', *, *, #268, .T. ) ;
#467 = EDGE_CURVE ( 'NONE', #458, #318, #277, .T. ) ;
#468 = CYLINDRICAL_SURFACE ( 'NONE', #699, 0.6500000000000003553 ) ;
#469 = ORIENTED_EDGE ( 'NONE', *, *, #492, .T. ) ;
#470 = CARTESIAN_POINT ( 'NONE',  ( -3.250000000000000444, 0.000000000000000000, -9.500000000000000000 ) ) ;
#471 = MANIFOLD_SOLID_BREP ( 'Cut-Screw Head Pockets', #630 ) ;
#472 = EDGE_LOOP ( 'NONE', ( #55, #183, #191, #371 ) ) ;
#473 = AXIS2_PLACEMENT_3D ( 'NONE', #382, #710, #326 ) ;
#474 = DIRECTION ( 'NONE',  ( 0.000000000000000000, 0.000000000000000000, 1.000000000000000000 ) ) ;
#475 = VERTEX_POINT ( 'NONE', #511 ) ;
#476 = EDGE_CURVE ( 'NONE', #52, #601, #662, .T. ) ;
#477 = VERTEX_POINT ( 'NONE', #617 ) ;
#478 = LINE ( 'NONE', #205, #409 ) ;
#479 = DIRECTION ( 'NONE',  ( 0.000000000000000000, 0.000000000000000000, 1.000000000000000000 ) ) ;
#480 = EDGE_CURVE ( 'NONE', #601, #509, #1, .T. ) ;
#481 = VECTOR ( 'NONE', #368, 1000.000000000000000 ) ;
#482 = DIRECTION ( 'NONE',  ( 0.000000000000000000, 0.000000000000000000, 1.000000000000000000 ) ) ;
#483 = ORIENTED_EDGE ( 'NONE', *, *, #192, .T. ) ;
#484 = LINE ( 'NONE', #602, #436 ) ;
#485 = DIRECTION ( 'NONE',  ( 0.000000000000000000, 1.000000000000000000, 0.000000000000000000 ) ) ;
#486 = ORIENTED_EDGE ( 'NONE', *, *, #221, .F. ) ;
#487 = DIRECTION ( 'NONE',  ( 1.000000000000000000, 0.000000000000000000, 0.000000000000000000 ) ) ;
#488 = CYLINDRICAL_SURFACE ( 'NONE', #533, 0.6499999999999995781 ) ;
#489 = VERTEX_POINT ( 'NONE', #67 ) ;
#490 = CARTESIAN_POINT ( 'NONE',  ( 0.000000000000000000, -1.500000000000000000, -3.150000000000000799 ) ) ;
#491 = FACE_OUTER_BOUND ( 'NONE', #624, .T. ) ;
#492 = EDGE_CURVE ( 'NONE', #401, #477, #433, .T. ) ;
#493 = AXIS2_PLACEMENT_3D ( 'NONE', #603, #162, #281 ) ;
#494 = FACE_OUTER_BOUND ( 'NONE', #312, .T. ) ;
#495 = CIRCLE ( 'NONE', #50, 0.6499999999999995781 ) ;
#496 = FACE_BOUND ( 'NONE', #127, .T. ) ;
#497 = ADVANCED_FACE ( 'NONE', ( #237 ), #64, .T. ) ;
#498 = APPLICATION_CONTEXT ( 'automotive_design' ) ;
#499 = DIRECTION ( 'NONE',  ( 0.000000000000000000, 1.000000000000000000, 0.000000000000000000 ) ) ;
#500 = DIRECTION ( 'NONE',  ( 0.000000000000000000, 1.000000000000000000, 0.000000000000000000 ) ) ;
#501 = ORIENTED_EDGE ( 'NONE', *, *, #570, .T. ) ;
#502 = DIRECTION ( 'NONE',  ( 0.000000000000000000, 0.000000000000000000, 1.000000000000000000 ) ) ;
#503 = CYLINDRICAL_SURFACE ( 'NONE', #575, 0.6499999999999995781 ) ;
#504 = EDGE_CURVE ( 'NONE', #445, #339, #553, .T. ) ;
#505 = VERTEX_POINT ( 'NONE', #241 ) ;
#506 = EDGE_CURVE ( 'NONE', #512, #52, #455, .T. ) ;
#507 = CARTESIAN_POINT ( 'NONE',  ( 7.960204194457795477E-17, -3.000000000000000000, 2.949999999999999734 ) ) ;
#508 = AXIS2_PLACEMENT_3D ( 'NONE', #259, #134, #581 ) ;
#509 = VERTEX_POINT ( 'NONE', #400 ) ;
#510 = PRESENTATION_LAYER_ASSIGNMENT (  '', '', ( #238 ) ) ;
#511 = CARTESIAN_POINT ( 'NONE',  ( 1.530808498934191817E-16, 0.000000000000000000, -5.650000000000001243 ) ) ;
#512 = VERTEX_POINT ( 'NONE', #182 ) ;
#513 = DIRECTION ( 'NONE',  ( 0.000000000000000000, 1.000000000000000000, 0.000000000000000000 ) ) ;
#514 = EDGE_LOOP ( 'NONE', ( #80, #136, #677, #406 ) ) ;
#515 = ORIENTED_EDGE ( 'NONE', *, *, #34, .T. ) ;
#516 = VECTOR ( 'NONE', #369, 1000.000000000000000 ) ;
#517 = CARTESIAN_POINT ( 'NONE',  ( 0.000000000000000000, -1.500000000000000000, -4.400000000000001243 ) ) ;
#518 = AXIS2_PLACEMENT_3D ( 'NONE', #711, #462, #4 ) ;
#519 = DIRECTION ( 'NONE',  ( -0.000000000000000000, 1.000000000000000000, -0.000000000000000000 ) ) ;
#520 = EDGE_LOOP ( 'NONE', ( #331, #628, #483, #247 ) ) ;
#521 = CARTESIAN_POINT ( 'NONE',  ( 0.000000000000000000, -1.500000000000000000, 3.600000000000000089 ) ) ;
#522 = LINE ( 'NONE', #245, #481 ) ;
#523 = VERTEX_POINT ( 'NONE', #122 ) ;
#524 = EDGE_CURVE ( 'NONE', #489, #104, #320, .T. ) ;
#525 = CARTESIAN_POINT ( 'NONE',  ( 0.000000000000000000, -1.500000000000000000, 4.850000000000000533 ) ) ;
#526 = VERTEX_POINT ( 'NONE', #296 ) ;
#527 = AXIS2_PLACEMENT_3D ( 'NONE', #600, #33, #482 ) ;
#528 = DIRECTION ( 'NONE',  ( 0.000000000000000000, 0.000000000000000000, 1.000000000000000000 ) ) ;
#529 = APPLICATION_PROTOCOL_DEFINITION ( 'draft international standard', 'automotive_design', 1998, #498 ) ;
#530 = EDGE_LOOP ( 'NONE', ( #231, #387 ) ) ;
#531 = PLANE ( 'NONE',  #36 ) ;
#532 =( NAMED_UNIT ( * ) PLANE_ANGLE_UNIT ( ) SI_UNIT ( $, .RADIAN. ) );
#533 = AXIS2_PLACEMENT_3D ( 'NONE', #446, #707, #658 ) ;
#534 = ORIENTED_EDGE ( 'NONE', *, *, #291, .T. ) ;
#535 = DIRECTION ( 'NONE',  ( 0.000000000000000000, 0.000000000000000000, 1.000000000000000000 ) ) ;
#536 = DIRECTION ( 'NONE',  ( -0.000000000000000000, 1.000000000000000000, -0.000000000000000000 ) ) ;
#537 = DIRECTION ( 'NONE',  ( 0.000000000000000000, 0.000000000000000000, 1.000000000000000000 ) ) ;
#538 = DIRECTION ( 'NONE',  ( 0.000000000000000000, 0.000000000000000000, 1.000000000000000000 ) ) ;
#539 = FACE_BOUND ( 'NONE', #461, .T. ) ;
#540 = CIRCLE ( 'NONE', #99, 0.6500000000000003553 ) ;
#541 = EDGE_LOOP ( 'NONE', ( #534, #293 ) ) ;
#542 = CARTESIAN_POINT ( 'NONE',  ( 0.000000000000000000, 0.000000000000000000, 0.000000000000000000 ) ) ;
#543 = CARTESIAN_POINT ( 'NONE',  ( -3.250000000000000444, -3.000000000000000000, -9.500000000000000000 ) ) ;
#544 = ORIENTED_EDGE ( 'NONE', *, *, #342, .F. ) ;
#545 = DIRECTION ( 'NONE',  ( 0.000000000000000000, 1.000000000000000000, 0.000000000000000000 ) ) ;
#546 = ADVANCED_FACE ( 'NONE', ( #457 ), #676, .F. ) ;
#547 = LINE ( 'NONE', #438, #571 ) ;
#548 = EDGE_CURVE ( 'NONE', #601, #361, #366, .T. ) ;
#549 = CARTESIAN_POINT ( 'NONE',  ( 7.960204194457795477E-17, -3.000000000000000000, 2.949999999999999734 ) ) ;
#550 = ORIENTED_EDGE ( 'NONE', *, *, #167, .F. ) ;
#551 = DIRECTION ( 'NONE',  ( 0.000000000000000000, 1.000000000000000000, 0.000000000000000000 ) ) ;
#552 = DIRECTION ( 'NONE',  ( -0.000000000000000000, 1.000000000000000000, 0.000000000000000000 ) ) ;
#553 = CIRCLE ( 'NONE', #152, 1.250000000000000222 ) ;
#554 = CARTESIAN_POINT ( 'NONE',  ( 0.000000000000000000, -1.500000000000000000, 3.600000000000000089 ) ) ;
#555 = CIRCLE ( 'NONE', #518, 1.250000000000000222 ) ;
#556 = ORIENTED_EDGE ( 'NONE', *, *, #158, .F. ) ;
#557 = CARTESIAN_POINT ( 'NONE',  ( -3.250000000000000000, -3.000000000000000000, 9.500000000000000000 ) ) ;
#558 = EDGE_CURVE ( 'NONE', #706, #683, #420, .T. ) ;
#559 = DIRECTION ( 'NONE',  ( 0.000000000000000000, 1.000000000000000000, 0.000000000000000000 ) ) ;
#560 = EDGE_LOOP ( 'NONE', ( #16, #620 ) ) ;
#561 = AXIS2_PLACEMENT_3D ( 'NONE', #100, #485, #432 ) ;
#562 = ADVANCED_FACE ( 'NONE', ( #248 ), #23, .F. ) ;
#563 = CARTESIAN_POINT ( 'NONE',  ( 0.000000000000000000, -1.500000000000000000, 4.250000000000000000 ) ) ;
#564 = ORIENTED_EDGE ( 'NONE', *, *, #155, .F. ) ;
#565 = DIRECTION ( 'NONE',  ( -0.000000000000000000, 1.000000000000000000, -0.000000000000000000 ) ) ;
#566 = EDGE_LOOP ( 'NONE', ( #515, #327 ) ) ;
#567 = AXIS2_PLACEMENT_3D ( 'NONE', #464, #184, #86 ) ;
#568 = CARTESIAN_POINT ( 'NONE',  ( 0.000000000000000000, 0.000000000000000000, 3.600000000000000089 ) ) ;
#569 = ORIENTED_EDGE ( 'NONE', *, *, #467, .T. ) ;
#570 = EDGE_CURVE ( 'NONE', #68, #572, #358, .T. ) ;
#571 = VECTOR ( 'NONE', #157, 1000.000000000000000 ) ;
#572 = VERTEX_POINT ( 'NONE', #415 ) ;
#573 = DIRECTION ( 'NONE',  ( 0.000000000000000000, 0.000000000000000000, -1.000000000000000000 ) ) ;
#574 = ORIENTED_EDGE ( 'NONE', *, *, #440, .T. ) ;
#575 = AXIS2_PLACEMENT_3D ( 'NONE', #70, #519, #185 ) ;
#576 = DIRECTION ( 'NONE',  ( -1.000000000000000000, 0.000000000000000000, 2.282530889443167392E-17 ) ) ;
#577 = AXIS2_PLACEMENT_3D ( 'NONE', #557, #502, #442 ) ;
#578 = CARTESIAN_POINT ( 'NONE',  ( 0.000000000000000000, 0.000000000000000000, 8.250000000000000000 ) ) ;
#579 = ADVANCED_FACE ( 'NONE', ( #31 ), #130, .T. ) ;
#580 = VERTEX_POINT ( 'NONE', #490 ) ;
#581 = DIRECTION ( 'NONE',  ( 0.000000000000000000, -0.000000000000000000, 1.000000000000000000 ) ) ;
#582 = PRODUCT_CONTEXT ( 'NONE', #498, 'mechanical' ) ;
#583 = ORIENTED_EDGE ( 'NONE', *, *, #396, .F. ) ;
#584 = CARTESIAN_POINT ( 'NONE',  ( 0.000000000000000000, 0.000000000000000000, -0.4000000000000001887 ) ) ;
#585 = VERTEX_POINT ( 'NONE', #647 ) ;
#586 = DIRECTION ( 'NONE',  ( -1.000000000000000000, -0.000000000000000000, -0.000000000000000000 ) ) ;
#587 = CARTESIAN_POINT ( 'NONE',  ( 0.000000000000000000, -3.000000000000000000, -4.400000000000001243 ) ) ;
#588 = DIRECTION ( 'NONE',  ( 0.000000000000000000, 1.000000000000000000, 0.000000000000000000 ) ) ;
#589 = PLANE ( 'NONE',  #393 ) ;
#590 = ORIENTED_EDGE ( 'NONE', *, *, #597, .F. ) ;
#591 = CARTESIAN_POINT ( 'NONE',  ( 0.000000000000000000, -3.000000000000000000, 3.600000000000000089 ) ) ;
#592 = DIRECTION ( 'NONE',  ( 0.000000000000000000, 0.000000000000000000, 1.000000000000000000 ) ) ;
#593 = FACE_BOUND ( 'NONE', #638, .T. ) ;
#594 = FACE_OUTER_BOUND ( 'NONE', #10, .T. ) ;
#595 = VECTOR ( 'NONE', #357, 1000.000000000000000 ) ;
#596 = ORIENTED_EDGE ( 'NONE', *, *, #135, .T. ) ;
#597 = EDGE_CURVE ( 'NONE', #104, #489, #392, .T. ) ;
#598 = UNCERTAINTY_MEASURE_WITH_UNIT (LENGTH_MEASURE( 1.000000000000000082E-05 ), #689, 'distance_accuracy_value', 'NONE');
#599 = CARTESIAN_POINT ( 'NONE',  ( 1.530808498934191817E-16, -1.500000000000000000, 2.349999999999999645 ) ) ;
#600 = CARTESIAN_POINT ( 'NONE',  ( 0.000000000000000000, 0.000000000000000000, -0.4000000000000001887 ) ) ;
#601 = VERTEX_POINT ( 'NONE', #375 ) ;
#602 = CARTESIAN_POINT ( 'NONE',  ( 0.000000000000000000, -3.000000000000000000, 8.250000000000000000 ) ) ;
#603 = CARTESIAN_POINT ( 'NONE',  ( 0.000000000000000000, -1.500000000000000000, 3.600000000000000089 ) ) ;
#604 = DIRECTION ( 'NONE',  ( 0.000000000000000000, 0.000000000000000000, 1.000000000000000000 ) ) ;
#605 = ORIENTED_EDGE ( 'NONE', *, *, #416, .T. ) ;
#606 = DIRECTION ( 'NONE',  ( 0.000000000000000000, -0.000000000000000000, 1.000000000000000000 ) ) ;
#607 = VECTOR ( 'NONE', #588, 1000.000000000000000 ) ;
#608 = CIRCLE ( 'NONE', #11, 0.6500000000000003553 ) ;
#609 = FACE_OUTER_BOUND ( 'NONE', #646, .T. ) ;
#610 = VECTOR ( 'NONE', #419, 1000.000000000000000 ) ;
#611 = EDGE_LOOP ( 'NONE', ( #430, #359 ) ) ;
#612 = DIRECTION ( 'NONE',  ( -0.000000000000000000, 1.000000000000000000, -0.000000000000000000 ) ) ;
#613 = ORIENTED_EDGE ( 'NONE', *, *, #399, .F. ) ;
#614 = DIRECTION ( 'NONE',  ( -1.000000000000000000, 0.000000000000000000, -0.000000000000000000 ) ) ;
#615 = CARTESIAN_POINT ( 'NONE',  ( 0.000000000000000000, -3.000000000000000000, -0.4000000000000001887 ) ) ;
#616 = ORIENTED_EDGE ( 'NONE', *, *, #426, .T. ) ;
#617 = CARTESIAN_POINT ( 'NONE',  ( 7.960204194457795477E-17, -3.000000000000000000, -1.050000000000000044 ) ) ;
#618 = AXIS2_PLACEMENT_3D ( 'NONE', #297, #54, #394 ) ;
#619 = ADVANCED_FACE ( 'NONE', ( #496, #431, #272, #593, #98, #322 ), #644, .T. ) ;
#620 = ORIENTED_EDGE ( 'NONE', *, *, #115, .T. ) ;
#621 = PRODUCT_RELATED_PRODUCT_CATEGORY ( 'part', '', ( #196 ) ) ;
#622 = ORIENTED_EDGE ( 'NONE', *, *, #234, .F. ) ;
#623 = CARTESIAN_POINT ( 'NONE',  ( -3.250000000000000444, -3.000000000000000000, -9.500000000000000000 ) ) ;
#624 = EDGE_LOOP ( 'NONE', ( #138, #117, #486, #564 ) ) ;
#625 = EDGE_CURVE ( 'NONE', #477, #505, #478, .T. ) ;
#626 = LINE ( 'NONE', #659, #421 ) ;
#627 = DIRECTION ( 'NONE',  ( -0.000000000000000000, 1.000000000000000000, -0.000000000000000000 ) ) ;
#628 = ORIENTED_EDGE ( 'NONE', *, *, #246, .T. ) ;
#629 = EDGE_CURVE ( 'NONE', #585, #693, #316, .T. ) ;
#630 = CLOSED_SHELL ( 'NONE', ( #546, #562, #702, #365, #106, #373, #346, #704, #187, #354, #579, #497, #224, #452, #619, #212, #171, #83, #319, #352, #236, #27 ) ) ;
#631 =( GEOMETRIC_REPRESENTATION_CONTEXT ( 3 ) GLOBAL_UNCERTAINTY_ASSIGNED_CONTEXT ( ( #598 ) ) GLOBAL_UNIT_ASSIGNED_CONTEXT ( ( #689, #532, #140 ) ) REPRESENTATION_CONTEXT ( 'NONE', 'WORKASPACE' ) );
#632 = DIRECTION ( 'NONE',  ( 0.000000000000000000, 0.000000000000000000, 1.000000000000000000 ) ) ;
#633 = ORIENTED_EDGE ( 'NONE', *, *, #476, .F. ) ;
#634 = DIRECTION ( 'NONE',  ( -0.000000000000000000, 1.000000000000000000, -0.000000000000000000 ) ) ;
#635 = APPLICATION_PROTOCOL_DEFINITION ( 'draft international standard', 'automotive_design', 1998, #335 ) ;
#636 = ORIENTED_EDGE ( 'NONE', *, *, #399, .T. ) ;
#637 = LINE ( 'NONE', #700, #299 ) ;
#638 = EDGE_LOOP ( 'NONE', ( #343, #186 ) ) ;
#639 = AXIS2_PLACEMENT_3D ( 'NONE', #294, #6, #232 ) ;
#640 = CIRCLE ( 'NONE', #697, 0.6500000000000003553 ) ;
#641 = CARTESIAN_POINT ( 'NONE',  ( 7.960204194457793012E-17, 0.000000000000000000, -9.050000000000000711 ) ) ;
#642 = SHAPE_DEFINITION_REPRESENTATION ( #367, #61 ) ;
#643 = CARTESIAN_POINT ( 'NONE',  ( 0.000000000000000000, -3.000000000000000000, -8.400000000000000355 ) ) ;
#644 = PLANE ( 'NONE',  #380 ) ;
#645 = CARTESIAN_POINT ( 'NONE',  ( -3.250000000000000000, -3.000000000000000000, 9.500000000000000000 ) ) ;
#646 = EDGE_LOOP ( 'NONE', ( #114, #708, #454, #466 ) ) ;
#647 = CARTESIAN_POINT ( 'NONE',  ( -3.250000000000000000, 0.000000000000000000, 9.500000000000000000 ) ) ;
#648 = DIRECTION ( 'NONE',  ( 0.000000000000000000, 0.000000000000000000, 1.000000000000000000 ) ) ;
#649 = EDGE_CURVE ( 'NONE', #404, #318, #3, .T. ) ;
#650 = ORIENTED_EDGE ( 'NONE', *, *, #108, .F. ) ;
#651 = EDGE_LOOP ( 'NONE', ( #583, #418, #395, #5 ) ) ;
#652 = DIRECTION ( 'NONE',  ( 0.000000000000000000, 1.000000000000000000, 0.000000000000000000 ) ) ;
#653 = FACE_BOUND ( 'NONE', #441, .T. ) ;
#654 = AXIS2_PLACEMENT_3D ( 'NONE', #695, #258, #383 ) ;
#655 = AXIS2_PLACEMENT_3D ( 'NONE', #521, #411, #362 ) ;
#656 = ORIENTED_EDGE ( 'NONE', *, *, #270, .T. ) ;
#657 = FACE_OUTER_BOUND ( 'NONE', #403, .T. ) ;
#658 = DIRECTION ( 'NONE',  ( 0.000000000000000000, 0.000000000000000000, 1.000000000000000000 ) ) ;
#659 = CARTESIAN_POINT ( 'NONE',  ( 7.960204194457801640E-17, -3.000000000000000000, 6.949999999999999289 ) ) ;
#660 = EDGE_LOOP ( 'NONE', ( #590, #410 ) ) ;
#661 = AXIS2_PLACEMENT_3D ( 'NONE', #591, #216, #648 ) ;
#662 = LINE ( 'NONE', #173, #37 ) ;
#663 = CARTESIAN_POINT ( 'NONE',  ( 0.000000000000000000, -3.000000000000000000, -7.750000000000001776 ) ) ;
#664 = ORIENTED_EDGE ( 'NONE', *, *, #34, .F. ) ;
#665 =( NAMED_UNIT ( * ) SI_UNIT ( $, .STERADIAN. ) SOLID_ANGLE_UNIT ( ) );
#666 = CIRCLE ( 'NONE', #356, 0.6500000000000003553 ) ;
#667 = AXIS2_PLACEMENT_3D ( 'NONE', #568, #513, #128 ) ;
#668 = CARTESIAN_POINT ( 'NONE',  ( 0.000000000000000000, -3.000000000000000000, -7.750000000000001776 ) ) ;
#669 = AXIS2_PLACEMENT_3D ( 'NONE', #692, #82, #528 ) ;
#670 = ORIENTED_EDGE ( 'NONE', *, *, #300, .T. ) ;
#671 = DIRECTION ( 'NONE',  ( -0.000000000000000000, 1.000000000000000000, -0.000000000000000000 ) ) ;
#672 = ORIENTED_EDGE ( 'NONE', *, *, #94, .T. ) ;
#673 = FILL_AREA_STYLE ('',( #334 ) ) ;
#674 = EDGE_CURVE ( 'NONE', #129, #121, #608, .T. ) ;
#675 = EDGE_LOOP ( 'NONE', ( #18, #172 ) ) ;
#676 = CYLINDRICAL_SURFACE ( 'NONE', #332, 1.250000000000000222 ) ;
#677 = ORIENTED_EDGE ( 'NONE', *, *, #234, .T. ) ;
#678 = CARTESIAN_POINT ( 'NONE',  ( 3.249999999999999556, -3.000000000000000000, -9.500000000000000000 ) ) ;
#679 = VERTEX_POINT ( 'NONE', #263 ) ;
#680 = EDGE_CURVE ( 'NONE', #121, #233, #484, .T. ) ;
#681 = DIRECTION ( 'NONE',  ( 0.000000000000000000, 1.000000000000000000, 0.000000000000000000 ) ) ;
#682 = EDGE_CURVE ( 'NONE', #271, #585, #156, .T. ) ;
#683 = VERTEX_POINT ( 'NONE', #48 ) ;
#684 = CYLINDRICAL_SURFACE ( 'NONE', #407, 0.6500000000000000222 ) ;
#685 = CYLINDRICAL_SURFACE ( 'NONE', #168, 0.6500000000000003553 ) ;
#686 = ORIENTED_EDGE ( 'NONE', *, *, #24, .F. ) ;
#687 = CIRCLE ( 'NONE', #379, 0.6500000000000000222 ) ;
#688 = CARTESIAN_POINT ( 'NONE',  ( 0.000000000000000000, -1.500000000000000000, 3.600000000000000089 ) ) ;
#689 =( LENGTH_UNIT ( ) NAMED_UNIT ( * ) SI_UNIT ( .MILLI., .METRE. ) );
#690 = ORIENTED_EDGE ( 'NONE', *, *, #144, .F. ) ;
#691 = PRODUCT_DEFINITION_CONTEXT ( 'detailed design', #335, 'design' ) ;
#692 = CARTESIAN_POINT ( 'NONE',  ( 0.000000000000000000, -1.500000000000000000, 3.600000000000000089 ) ) ;
#693 = VERTEX_POINT ( 'NONE', #151 ) ;
#694 = CARTESIAN_POINT ( 'NONE',  ( 0.000000000000000000, 0.000000000000000000, 7.599999999999999645 ) ) ;
#695 = CARTESIAN_POINT ( 'NONE',  ( 0.000000000000000000, -3.000000000000000000, -4.400000000000001243 ) ) ;
#696 = CARTESIAN_POINT ( 'NONE',  ( 0.000000000000000000, 0.000000000000000000, 3.600000000000000089 ) ) ;
#697 = AXIS2_PLACEMENT_3D ( 'NONE', #554, #51, #338 ) ;
#698 = AXIS2_PLACEMENT_3D ( 'NONE', #307, #253, #535 ) ;
#699 = AXIS2_PLACEMENT_3D ( 'NONE', #587, #360, #479 ) ;
#700 = CARTESIAN_POINT ( 'NONE',  ( 7.960204194457797942E-17, -3.000000000000000000, -5.050000000000001599 ) ) ;
#701 = FACE_OUTER_BOUND ( 'NONE', #161, .T. ) ;
#702 = ADVANCED_FACE ( 'NONE', ( #381 ), #328, .F. ) ;
#703 = FACE_OUTER_BOUND ( 'NONE', #714, .T. ) ;
#704 = ADVANCED_FACE ( 'NONE', ( #657 ), #685, .F. ) ;
#705 = ORIENTED_EDGE ( 'NONE', *, *, #192, .F. ) ;
#706 = VERTEX_POINT ( 'NONE', #422 ) ;
#707 = DIRECTION ( 'NONE',  ( -0.000000000000000000, 1.000000000000000000, -0.000000000000000000 ) ) ;
#708 = ORIENTED_EDGE ( 'NONE', *, *, #492, .F. ) ;
#709 = DIRECTION ( 'NONE',  ( 2.282530889443167392E-17, 0.000000000000000000, 1.000000000000000000 ) ) ;
#710 = DIRECTION ( 'NONE',  ( 0.000000000000000000, 1.000000000000000000, 0.000000000000000000 ) ) ;
#711 = CARTESIAN_POINT ( 'NONE',  ( 0.000000000000000000, -1.500000000000000000, -4.400000000000001243 ) ) ;
#712 = DIRECTION ( 'NONE',  ( -0.000000000000000000, 1.000000000000000000, -0.000000000000000000 ) ) ;
#713 = CARTESIAN_POINT ( 'NONE',  ( 0.000000000000000000, -1.500000000000000000, -4.400000000000001243 ) ) ;
#714 = EDGE_LOOP ( 'NONE', ( #255, #613, #240, #321 ) ) ;
#715 = CARTESIAN_POINT ( 'NONE',  ( 0.000000000000000000, -3.000000000000000000, 0.2499999999999997780 ) ) ;
#716 = CYLINDRICAL_SURFACE ( 'NONE', #435, 0.6500000000000000222 ) ;
#717 = EDGE_LOOP ( 'NONE', ( #364, #284, #275, #633 ) ) ;
ENDSEC;
END-ISO-10303-21;
