  0
SECTION
  2
HEADER
  9
$ACADVER
  1
AC1015
  9
$ACADMAINTVER
 70
     6
  9
$DWGCODEPAGE
  3
ANSI_1252
  9
$INSBASE
 10
0.0
 20
0.0
 30
0.0
  9
$EXTMIN
 10
-46.6990067896
 20
-48.5287497464
 30
0.0
  9
$EXTMAX
 10
20.4692765146
 20
19.3669969648
 30
0.0
  9
$LIMMIN
 10
0.0
 20
0.0
  9
$LIMMAX
 10
420.0
 20
297.0
  9
$ORTHOMODE
 70
     0
  9
$REGENMODE
 70
     1
  9
$FILLMODE
 70
     1
  9
$QTEXTMODE
 70
     0
  9
$MIRRTEXT
 70
     1
  9
$LTSCALE
 40
1.0
  9
$ATTMODE
 70
     1
  9
$TEXTSIZE
 40
3.5
  9
$TRACEWID
 40
1.0
  9
$TEXTSTYLE
  7
Standard
  9
$CLAYER
  8
0
  9
$CELTYPE
  6
ByLayer
  9
$CECOLOR
 62
   256
  9
$CELTSCALE
 40
1.0
  9
$DISPSILH
 70
     0
  9
$DIMSCALE
 40
1.0
  9
$DIMASZ
 40
3.302
  9
$DIMEXO
 40
0.0
  9
$DIMDLI
 40
3.75
  9
$DIMRND
 40
0.0
  9
$DIMDLE
 40
0.0
  9
$DIMEXE
 40
1.0
  9
$DIMTP
 40
0.0
  9
$DIMTM
 40
0.0
  9
$DIMTXT
 40
3.5
  9
$DIMCEN
 40
2.5
  9
$DIMTSZ
 40
0.0
  9
$DIMTOL
 70
     0
  9
$DIMLIM
 70
     0
  9
$DIMTIH
 70
     1
  9
$DIMTOH
 70
     1
  9
$DIMSE1
 70
     0
  9
$DIMSE2
 70
     0
  9
$DIMTAD
 70
     1
  9
$DIMZIN
 70
     1
  9
$DIMBLK
  1

  9
$DIMASO
 70
     1
  9
$DIMSHO
 70
     1
  9
$DIMPOST
  1

  9
$DIMAPOST
  1

  9
$DIMALT
 70
     0
  9
$DIMALTD
 70
     3
  9
$DIMALTF
 40
0.0393700787
  9
$DIMLFAC
 40
1.0
  9
$DIMTOFL
 70
     1
  9
$DIMTVP
 40
0.0
  9
$DIMTIX
 70
     0
  9
$DIMSOXD
 70
     0
  9
$DIMSAH
 70
     0
  9
$DIMBLK1
  1

  9
$DIMBLK2
  1

  9
$DIMSTYLE
  2
ISO-25
  9
$DIMCLRD
 70
     0
  9
$DIMCLRE
 70
     0
  9
$DIMCLRT
 70
     0
  9
$DIMTFAC
 40
1.0
  9
$DIMGAP
 40
1.524
  9
$DIMJUST
 70
     0
  9
$DIMSD1
 70
     0
  9
$DIMSD2
 70
     0
  9
$DIMTOLJ
 70
     0
  9
$DIMTZIN
 70
     1
  9
$DIMALTZ
 70
     0
  9
$DIMALTTZ
 70
     0
  9
$DIMUPT
 70
     0
  9
$DIMDEC
 70
     2
  9
$DIMTDEC
 70
     2
  9
$DIMALTU
 70
     2
  9
$DIMALTTD
 70
     3
  9
$DIMTXSTY
  7
Standard
  9
$DIMAUNIT
 70
     0
  9
$DIMADEC
 70
     2
  9
$DIMALTRND
 40
0.0
  9
$DIMAZIN
 70
     0
  9
$DIMDSEP
 70
    44
  9
$DIMATFIT
 70
     3
  9
$DIMFRAC
 70
     0
  9
$DIMLDRBLK
  1

  9
$DIMLUNIT
 70
     2
  9
$DIMLWD
 70
    -2
  9
$DIMLWE
 70
    -2
  9
$DIMTMOVE
 70
     0
  9
$LUNITS
 70
     2
  9
$LUPREC
 70
     6
  9
$SKETCHINC
 40
1.0
  9
$FILLETRAD
 40
0.0
  9
$AUNITS
 70
     0
  9
$AUPREC
 70
     2
  9
$MENU
  1
.
  9
$ELEVATION
 40
0.0
  9
$PELEVATION
 40
0.0
  9
$THICKNESS
 40
0.0
  9
$LIMCHECK
 70
     0
  9
$CHAMFERA
 40
0.0
  9
$CHAMFERB
 40
0.0
  9
$CHAMFERC
 40
0.0
  9
$CHAMFERD
 40
0.0
  9
$SKPOLY
 70
     0
  9
$TDCREATE
 40
2460160.426187187
  9
$TDUCREATE
 40
2460160.592853854
  9
$TDUPDATE
 40
2460160.426248889
  9
$TDUUPDATE
 40
2460160.592915555
  9
$TDINDWG
 40
0.0000000116
  9
$TDUSRTIMER
 40
0.0000000116
  9
$USRTIMER
 70
     1
  9
$ANGBASE
 50
0.0
  9
$ANGDIR
 70
     0
  9
$PDMODE
 70
     0
  9
$PDSIZE
 40
-1.0
  9
$PLINEWID
 40
0.0
  9
$SPLFRAME
 70
     0
  9
$SPLINETYPE
 70
     6
  9
$SPLINESEGS
 70
     8
  9
$HANDSEED
  5
69
  9
$SURFTAB1
 70
     6
  9
$SURFTAB2
 70
     6
  9
$SURFTYPE
 70
     6
  9
$SURFU
 70
     6
  9
$SURFV
 70
     6
  9
$UCSBASE
  2

  9
$UCSNAME
  2

  9
$UCSORG
 10
0.0
 20
0.0
 30
0.0
  9
$UCSXDIR
 10
1.0
 20
0.0
 30
0.0
  9
$UCSYDIR
 10
0.0
 20
1.0
 30
0.0
  9
$UCSORTHOREF
  2

  9
$UCSORTHOVIEW
 70
     0
  9
$UCSORGTOP
 10
0.0
 20
0.0
 30
0.0
  9
$UCSORGBOTTOM
 10
0.0
 20
0.0
 30
0.0
  9
$UCSORGLEFT
 10
0.0
 20
0.0
 30
0.0
  9
$UCSORGRIGHT
 10
0.0
 20
0.0
 30
0.0
  9
$UCSORGFRONT
 10
0.0
 20
0.0
 30
0.0
  9
$UCSORGBACK
 10
0.0
 20
0.0
 30
0.0
  9
$PUCSBASE
  2

  9
$PUCSNAME
  2

  9
$PUCSORG
 10
0.0
 20
0.0
 30
0.0
  9
$PUCSXDIR
 10
1.0
 20
0.0
 30
0.0
  9
$PUCSYDIR
 10
0.0
 20
1.0
 30
0.0
  9
$PUCSORTHOREF
  2

  9
$PUCSORTHOVIEW
 70
     0
  9
$PUCSORGTOP
 10
0.0
 20
0.0
 30
0.0
  9
$PUCSORGBOTTOM
 10
0.0
 20
0.0
 30
0.0
  9
$PUCSORGLEFT
 10
0.0
 20
0.0
 30
0.0
  9
$PUCSORGRIGHT
 10
0.0
 20
0.0
 30
0.0
  9
$PUCSORGFRONT
 10
0.0
 20
0.0
 30
0.0
  9
$PUCSORGBACK
 10
0.0
 20
0.0
 30
0.0
  9
$USERI1
 70
     0
  9
$USERI2
 70
     0
  9
$USERI3
 70
     0
  9
$USERI4
 70
     0
  9
$USERI5
 70
     0
  9
$USERR1
 40
0.0
  9
$USERR2
 40
0.0
  9
$USERR3
 40
0.0
  9
$USERR4
 40
0.0
  9
$USERR5
 40
0.0
  9
$WORLDVIEW
 70
     1
  9
$SHADEDGE
 70
     3
  9
$SHADEDIF
 70
    70
  9
$TILEMODE
 70
     1
  9
$MAXACTVP
 70
    64
  9
$PINSBASE
 10
0.0
 20
0.0
 30
0.0
  9
$PLIMCHECK
 70
     0
  9
$PEXTMIN
 10
1.0000000000E+20
 20
1.0000000000E+20
 30
1.0000000000E+20
  9
$PEXTMAX
 10
-1.0000000000E+20
 20
-1.0000000000E+20
 30
-1.0000000000E+20
  9
$PLIMMIN
 10
0.0
 20
0.0
  9
$PLIMMAX
 10
420.0
 20
297.0
  9
$UNITMODE
 70
     0
  9
$VISRETAIN
 70
     1
  9
$PLINEGEN
 70
     0
  9
$PSLTSCALE
 70
     1
  9
$TREEDEPTH
 70
  3020
  9
$CMLSTYLE
  2
Standard
  9
$CMLJUST
 70
     0
  9
$CMLSCALE
 40
20.0
  9
$PROXYGRAPHICS
 70
     1
  9
$MEASUREMENT
 70
     1
  9
$CELWEIGHT
370
    -1
  9
$ENDCAPS
280
     0
  9
$JOINSTYLE
280
     0
  9
$LWDISPLAY
290
     1
  9
$INSUNITS
 70
     4
  9
$HYPERLINKBASE
  1

  9
$STYLESHEET
  1

  9
$XEDIT
290
     1
  9
$CEPSNTYPE
380
     0
  9
$PSTYLEMODE
290
     1
  9
$FINGERPRINTGUID
  2
{b519fe4c-bddd-4355-9eeb-17869a5c1aa5}
  9
$VERSIONGUID
  2
{FAEB1C32-E019-11D5-929B-00C0DF256EC4}
  9
$EXTNAMES
290
     1
  9
$PSVPSCALE
 40
0.0
  9
$OLESTARTUP
290
     0
  0
ENDSEC
  0
SECTION
  2
CLASSES
  0
CLASS
  1
ACDBDICTIONARYWDFLT
  2
AcDbDictionaryWithDefault
  3
ObjectDBX Classes
 90
        0
280
     0
281
     0
  0
CLASS
  1
VISUALSTYLE
  2
AcDbVisualStyle
  3
ObjectDBX Classes
 90
     4095
280
     0
281
     0
  0
CLASS
  1
MATERIAL
  2
AcDbMaterial
  3
ObjectDBX Classes
 90
     1153
280
     0
281
     0
  0
CLASS
  1
SCALE
  2
AcDbScale
  3
ObjectDBX Classes
 90
     1153
280
     0
281
     0
  0
CLASS
  1
TABLESTYLE
  2
AcDbTableStyle
  3
ObjectDBX Classes
 90
     4095
280
     0
281
     0
  0
CLASS
  1
MLEADERSTYLE
  2
AcDbMLeaderStyle
  3
ACDB_MLEADERSTYLE_CLASS
 90
     4095
280
     0
281
     0
  0
CLASS
  1
SUN
  2
AcDbSun
  3
SCENEOE
 90
     1153
280
     0
281
     0
  0
CLASS
  1
ACDBPLACEHOLDER
  2
AcDbPlaceHolder
  3
ObjectDBX Classes
 90
        0
280
     0
281
     0
  0
CLASS
  1
LAYOUT
  2
AcDbLayout
  3
ObjectDBX Classes
 90
        0
280
     0
281
     0
  0
ENDSEC
  0
SECTION
  2
TABLES
  0
TABLE
  2
VPORT
  5
8
330
0
100
AcDbSymbolTable
 70
     1
  0
VPORT
  5
29
330
8
100
AcDbSymbolTableRecord
100
AcDbViewportTableRecord
  2
*Active
 70
     0
 10
0.0
 20
0.0
 11
1.0
 21
1.0
 12
-13.1148651375
 22
-14.5808763908
 13
0.0
 23
0.0
 14
10.0
 24
10.0
 15
10.0
 25
10.0
 16
0.0
 26
0.0
 36
1.0
 17
0.0
 27
0.0
 37
0.0
 40
69.2536616455
 41
0.9892855821
 42
50.0
 43
0.0
 44
0.0
 50
0.0
 51
0.0
 71
     0
 72
   100
 73
     1
 74
     3
 75
     0
 76
     0
 77
     0
 78
     0
281
     0
 65
     1
110
0.0
120
0.0
130
0.0
111
1.0
121
0.0
131
0.0
112
0.0
122
1.0
132
0.0
 79
     0
146
0.0
  0
ENDTAB
  0
TABLE
  2
LTYPE
  5
5
330
0
100
AcDbSymbolTable
 70
     6
  0
LTYPE
  5
14
330
5
100
AcDbSymbolTableRecord
100
AcDbLinetypeTableRecord
  2
ByBlock
 70
     0
  3

 72
    65
 73
     0
 40
0.0
  0
LTYPE
  5
15
330
5
100
AcDbSymbolTableRecord
100
AcDbLinetypeTableRecord
  2
ByLayer
 70
     0
  3

 72
    65
 73
     0
 40
0.0
  0
LTYPE
  5
16
330
5
100
AcDbSymbolTableRecord
100
AcDbLinetypeTableRecord
  2
Continuous
 70
     0
  3
Solid line
 72
    65
 73
     0
 40
0.0
  0
LTYPE
  5
5E
330
5
100
AcDbSymbolTableRecord
100
AcDbLinetypeTableRecord
  2
HIDDEN
 70
     0
  3
Hidden __ __ __ __ __ __ __ __ __ __ __ __ __ __
 72
    65
 73
     2
 40
1.905
 49
1.27
 74
     0
 49
-0.635
 74
     0
  0
LTYPE
  5
5F
330
5
100
AcDbSymbolTableRecord
100
AcDbLinetypeTableRecord
  2
PHANTOM
 70
     0
  3
Phantom ______  __  __  ______  __  __  ______
 72
    65
 73
     6
 40
12.7
 49
6.35
 74
     0
 49
-1.27
 74
     0
 49
1.27
 74
     0
 49
-1.27
 74
     0
 49
1.27
 74
     0
 49
-1.27
 74
     0
  0
LTYPE
  5
60
330
5
100
AcDbSymbolTableRecord
100
AcDbLinetypeTableRecord
  2
CENTER
 70
     0
  3
Center ____ _ ____ _ ____ _ ____ _ ____ _ ____
 72
    65
 73
     4
 40
10.16
 49
6.35
 74
     0
 49
-1.27
 74
     0
 49
1.27
 74
     0
 49
-1.27
 74
     0
  0
LTYPE
  5
61
330
5
100
AcDbSymbolTableRecord
100
AcDbLinetypeTableRecord
  2
CENTERX2
 70
     0
  3
Center (2x) ________  __  ________  __  _____
 72
    65
 73
     4
 40
20.32
 49
12.7
 74
     0
 49
-2.54
 74
     0
 49
2.54
 74
     0
 49
-2.54
 74
     0
  0
LTYPE
  5
62
330
5
100
AcDbSymbolTableRecord
100
AcDbLinetypeTableRecord
  2
DOT2
 70
     0
  3
Dot (.5x) ........................................
 72
    65
 73
     2
 40
0.635
 49
0.0
 74
     0
 49
-0.635
 74
     0
  0
ENDTAB
  0
TABLE
  2
LAYER
  5
2
330
0
100
AcDbSymbolTable
 70
     1
  0
LAYER
  5
10
330
2
100
AcDbSymbolTableRecord
100
AcDbLayerTableRecord
  2
0
 70
     0
 62
     7
  6
Continuous
370
    -3
390
F
  0
ENDTAB
  0
TABLE
  2
STYLE
  5
3
330
0
100
AcDbSymbolTable
 70
     2
  0
STYLE
  5
11
330
3
100
AcDbSymbolTableRecord
100
AcDbTextStyleTableRecord
  2
Standard
 70
     0
 40
0.0
 41
1.0
 50
0.0
 71
     0
 42
3.5
  3
txt
  4

  0
STYLE
  5
65
330
3
100
AcDbSymbolTableRecord
100
AcDbTextStyleTableRecord
  2
SLDTEXTSTYLE0
 70
     0
 40
0.0
 41
0.7
 50
0.0
 71
     0
 42
3.5
  3
TXT
  4

  0
ENDTAB
  0
TABLE
  2
VIEW
  5
6
330
0
100
AcDbSymbolTable
 70
     0
  0
ENDTAB
  0
TABLE
  2
UCS
  5
7
330
0
100
AcDbSymbolTable
 70
     0
  0
ENDTAB
  0
TABLE
  2
APPID
  5
9
330
0
100
AcDbSymbolTable
 70
     1
  0
APPID
  5
12
330
9
100
AcDbSymbolTableRecord
100
AcDbRegAppTableRecord
  2
ACAD
 70
     0
  0
ENDTAB
  0
TABLE
  2
DIMSTYLE
  5
A
330
0
100
AcDbSymbolTable
 70
     1
100
AcDbDimStyleTable
  0
DIMSTYLE
105
27
330
A
100
AcDbSymbolTableRecord
100
AcDbDimStyleTableRecord
  2
ISO-25
 70
     0
 41
2.5
 42
0.625
 43
3.75
 44
1.25
 73
     0
 74
     0
 77
     1
 78
     8
140
2.5
141
2.5
143
0.0393700787
147
0.625
171
     3
172
     1
178
     0
271
     2
272
     2
274
     3
278
    44
283
     0
284
     8
340
11
  0
ENDTAB
  0
TABLE
  2
BLOCK_RECORD
  5
1
330
0
100
AcDbSymbolTable
 70
     1
  0
BLOCK_RECORD
  5
1F
330
1
100
AcDbSymbolTableRecord
100
AcDbBlockTableRecord
  2
*Model_Space
340
22
  0
BLOCK_RECORD
  5
1B
330
1
100
AcDbSymbolTableRecord
100
AcDbBlockTableRecord
  2
*Paper_Space
340
1E
  0
BLOCK_RECORD
  5
23
330
1
100
AcDbSymbolTableRecord
100
AcDbBlockTableRecord
  2
*Paper_Space0
340
26
  0
ENDTAB
  0
ENDSEC
  0
SECTION
  2
BLOCKS
  0
BLOCK
  5
20
330
1F
100
AcDbEntity
  8
0
100
AcDbBlockBegin
  2
*Model_Space
 70
     0
 10
0.0
 20
0.0
 30
0.0
  3
*Model_Space
  1

  0
ENDBLK
  5
21
330
1F
100
AcDbEntity
  8
0
100
AcDbBlockEnd
  0
BLOCK
  5
1C
330
1B
100
AcDbEntity
 67
     1
  8
0
100
AcDbBlockBegin
  2
*Paper_Space
 70
     0
 10
0.0
 20
0.0
 30
0.0
  3
*Paper_Space
  1

  0
ENDBLK
  5
1D
330
1B
100
AcDbEntity
 67
     1
  8
0
100
AcDbBlockEnd
  0
BLOCK
  5
24
330
23
100
AcDbEntity
  8
0
100
AcDbBlockBegin
  2
*Paper_Space0
 70
     0
 10
0.0
 20
0.0
 30
0.0
  3
*Paper_Space0
  1

  0
ENDBLK
  5
25
330
23
100
AcDbEntity
  8
0
100
AcDbBlockEnd
  0
ENDSEC
  0
SECTION
  2
ENTITIES
  0
SPLINE
  5
63
330
1F
100
AcDbEntity
  8
0
  6
Continuous
 62
     7
370
    25
100
AcDbSpline
210
0.0
220
0.0
230
1.0
 70
    11
 71
     3
 72
   367
 73
   363
 74
     0
 42
0.00000001
 43
0.00000001
 40
0.0
 40
0.0
 40
0.0
 40
0.0
 40
0.001764203389181
 40
0.0035194917834703
 40
0.0052660957306955
 40
0.0070042441421
 40
0.0087341642592015
 40
0.010456081620477
 40
0.0121702200279325
 40
0.013876801513619
 40
0.0155760463061534
 40
0.0172681727973076
 40
0.0189533975087267
 40
0.0206319350588404
 40
0.022303998130028
 40
0.0239697974360996
 40
0.0256295416901572
 40
0.0272834375728938
 40
0.0289316897013933
 40
0.0305745005984883
 40
0.0322120706627346
 40
0.0338445981390587
 40
0.0354722790901317
 40
0.037095307368522
 40
0.0387138745896784
 40
0.0403281701057893
 40
0.041938380980565
 40
0.0435446919649844
 40
0.0451472854740469
 40
0.0467463415645653
 40
0.0483420379140343
 40
0.0499345498006051
 40
0.0515240500841929
 40
0.0531107091887415
 40
0.0546946950856675
 40
0.0562761732784987
 40
0.0578553067887233
 40
0.0594322561428599
 40
0.0610071793607551
 40
0.0625802319451144
 40
0.0641515668722666
 40
0.0657213345841591
 40
0.0672896829815805
 40
0.0688567574186017
 40
0.0704227006982232
 40
0.0719876530692183
 40
0.0735517522241523
 40
0.0751151332985615
 40
0.0766779288712702
 40
0.0782402689658218
 40
0.0798022810530004
 40
0.081364090054414
 40
0.0829258183471118
 40
0.0844875857692043
 40
0.0860495096264549
 40
0.0876117046998104
 40
0.0891742832538347
 40
0.0907373550460121
 40
0.0923010273368847
 40
0.0938654049009849
 40
0.0954305900385292
 40
0.0969966825878338
 40
0.098563779938415
 40
0.1001319770447374
 40
0.1017013664405713
 40
0.1032720382539222
 40
0.1048440802224958
 40
0.1064175777096604
 40
0.1079926137208718
 40
0.1095692689205232
 40
0.1111476216491862
 40
0.1127277479412078
 40
0.1143097215426296
 40
0.1158936139293963
 40
0.1174794943258213
 40
0.1190674297232791
 40
0.1206574848990927
 40
0.1222497224355886
 40
0.1238442027392901
 40
0.1254409840602226
 40
0.1270401225113038
 40
0.1286416720877961
 40
0.1302456846867946
 40
0.1318522101267303
 40
0.1334612961668666
 40
0.1350729885267674
 40
0.1366873309057186
 40
0.1383043650020857
 40
0.1399241305325875
 40
0.1415466652514729
 40
0.1431720049695849
 40
0.1448001835732958
 40
0.1464312330433045
 40
0.1480651834732805
 40
0.1497020630883457
 40
0.1513418982633831
 40
0.1529847135411633
 40
0.1546305316502817
 40
0.1562793735228975
 40
0.1579312583122684
 40
0.1595862034100773
 40
0.161244224463542
 40
0.1629053353923088
 40
0.1645695484051221
 40
0.1662368740162698
 40
0.1679073210618021
 40
0.1695808967155213
 40
0.1712576065047429
 40
0.1729374543258275
 40
0.1746204424594829
 40
0.1763065715858382
 40
0.1779958407992919
 40
0.1796882476231339
 40
0.181383788023945
 40
0.1830824564257771
 40
0.1847842457241155
 40
0.1864891472996289
 40
0.1881971510317093
 40
0.1899082453118072
 40
0.191622417056566
 40
0.1933396517207611
 40
0.1950599333100485
 40
0.1967832443935281
 40
0.1985095661161285
 40
0.2002388782108188
 40
0.2019711806302177
 40
0.2037066348057212
 40
0.2054455037872962
 40
0.2071881000665969
 40
0.2089347934393163
 40
0.2106860189732256
 40
0.2124422847614078
 40
0.2142041794162833
 40
0.2159723792513113
 40
0.2177476550887501
 40
0.2195308786240526
 40
0.2213230282708809
 40
0.2231251944059337
 40
0.2249385839303852
 40
0.2267645240653098
 40
0.2286044653025207
 40
0.2304599834401449
 40
0.2323327806441817
 40
0.2342246854931833
 40
0.2361376519827025
 40
0.2380737574886322
 40
0.2400351997130699
 40
0.2420242926617167
 40
0.2440434617267048
 40
0.2460952379717721
 40
0.2481822517365357
 40
0.2503072256921273
 40
0.2524729674908117
 40
0.2546823621569532
 40
0.2569383643657501
 40
0.2592439907498729
 40
0.2616023123631668
 40
0.2640164474158535
 40
0.2664895543782642
 40
0.2690248255311842
 40
0.2716254810214713
 40
0.274294763462687
 40
0.2770359331028262
 40
0.2798522635654342
 40
0.2827470381568244
 40
0.2857235467209402
 40
0.2887850830146589
 40
0.2919349425698965
 40
0.2951764210045405
 40
0.298512812741747
 40
0.3019474100961999
 40
0.3054835026862503
 40
0.3091243771321432
 40
0.3128733170025548
 40
0.3167336029741666
 40
0.3207085131718179
 40
0.3248013236597389
 40
0.3290153090573635
 40
0.3333516619041353
 40
0.3378031401171205
 40
0.3423601287462963
 40
0.3470127669706499
 40
0.3517510235040993
 40
0.356564760340336
 40
0.3614437881796085
 40
0.3663779161663553
 40
0.3713569980647886
 40
0.3763709766551156
 40
0.3814099279074151
 40
0.3864641063562886
 40
0.3915239930384166
 40
0.3965803473537301
 40
0.4016242642591268
 40
0.4066472382930842
 40
0.4116412360512611
 40
0.4165987788756296
 40
0.4215130376654308
 40
0.4263779418401695
 40
0.4311883045407381
 40
0.4359399660805773
 40
0.4406318275811195
 40
0.4452707170478261
 40
0.4498646842985707
 40
0.4544210441356454
 40
0.4589463771653896
 40
0.4634465409670135
 40
0.4679266907224163
 40
0.4723913081860059
 40
0.4768442377457586
 40
0.4812887282942906
 40
0.4857274796747402
 40
0.4901626925705742
 40
0.4945961208506264
 40
0.4990291255423214
 40
0.5034627297719656
 40
0.5078976741696706
 40
0.512334472379887
 40
0.5167734664415913
 40
0.5212148819021092
 40
0.5256588826041839
 40
0.530105625137013
 40
0.5345553129689502
 40
0.5390081529168462
 40
0.5434640739892236
 40
0.547922899701876
 40
0.5523844166391008
 40
0.5568483792633641
 40
0.5613145147090369
 40
0.5657825275671263
 40
0.5702521046689172
 40
0.5747229198772604
 40
0.5791946388948864
 40
0.583666924099619
 40
0.5881394394166907
 40
0.5926118552385361
 40
0.5970838534024323
 40
0.6015551322362055
 40
0.6060254116818639
 40
0.6104944385064853
 40
0.6149619916089313
 40
0.6194278874299953
 40
0.6238919854723546
 40
0.6283541939352131
 40
0.6328144754667266
 40
0.6372728530351947
 40
0.641729415917556
 40
0.646184325800905
 40
0.6506378229895532
 40
0.655090232706571
 40
0.6595419714747576
 40
0.6639935535576157
 40
0.6684455974361723
 40
0.6728988322924251
 40
0.6773541044648734
 40
0.6818123838360999
 40
0.6862747701068066
 40
0.6907424989052386
 40
0.695216754459362
 40
0.6996973249744142
 40
0.7041832126820166
 40
0.7086732736591546
 40
0.7131662319307996
 40
0.7176606897638573
 40
0.7221551373438372
 40
0.7266479618623288
 40
0.7311374560475377
 40
0.7356218261731814
 40
0.740099199583222
 40
0.7445676317714178
 40
0.7490251130556937
 40
0.7534695748880481
 40
0.7578988958412247
 40
0.76231090731386
 40
0.7667033989963381
 40
0.7710741241402677
 40
0.7754208046754316
 40
0.7797411362193367
 40
0.7840327930262077
 40
0.7882934329245129
 40
0.7925207022950076
 40
0.7967122411449125
 40
0.8008656883383889
 40
0.8049786870490381
 40
0.8090488905069428
 40
0.813073968120973
 40
0.8170516120669444
 40
0.8209795444440027
 40
0.8248555251156446
 40
0.8286773603684219
 40
0.8324429125409971
 40
0.8361501107992957
 40
0.8397969632604224
 40
0.8433816762997887
 40
0.8469041298433054
 40
0.8503654525429306
 40
0.8537668024993673
 40
0.8571093353827506
 40
0.8603942045300954
 40
0.8636225610316985
 40
0.8667955538051343
 40
0.8699143296554033
 40
0.8729800333197235
 40
0.8759938074953787
 40
0.8789567928489751
 40
0.8818701280054024
 40
0.8847349495147486
 40
0.8875523917953801
 40
0.8903235870513864
 40
0.893049665162577
 40
0.8957317535452426
 40
0.8983709769819282
 40
0.9009684574185328
 40
0.9035253137271393
 40
0.9060426614331056
 40
0.908521612405097
 40
0.9109632745069326
 40
0.9133687512103396
 40
0.9157391411679711
 40
0.9180755377463377
 40
0.920379028518634
 40
0.922650694717807
 40
0.9248916106506065
 40
0.9271028430737815
 40
0.9292854505340279
 40
0.9314404826737568
 40
0.9335689795052158
 40
0.935671970655968
 40
0.9377504745891965
 40
0.9398054978027408
 40
0.9418380340111925
 40
0.9438490633157564
 40
0.9458395513669126
 40
0.9478104485251977
 40
0.9497626890256294
 40
0.9516971901514474
 40
0.9536148514229044
 40
0.9555165538068284
 40
0.9574031589525807
 40
0.9592755084598558
 40
0.9611344231835144
 40
0.9629807025803043
 40
0.9648151241019296
 40
0.966638442638464
 40
0.9684513900155963
 40
0.9702546745486433
 40
0.9720489806556872
 40
0.9738349685315979
 40
0.9756132738841025
 40
0.9773845077324663
 40
0.9791492562687761
 40
0.980908080781265
 40
0.9826615176386052
 40
0.9844100783336244
 40
0.986154249584476
 40
0.9878944934909272
 40
0.9896312477431108
 40
0.9913649258798298
 40
0.9930959175933007
 40
0.9948245890770763
 40
0.9965512834137904
 40
0.9982763209993252
 40
0.9999999999999999
 40
0.9999999999999999
 40
0.9999999999999999
 40
0.9999999999999999
 10
20.46927651463757
 20
0.0
 30
0.0
 10
20.45392698183239
 20
0.1203263703958539
 30
0.0
 10
20.37906938995073
 20
0.3546748792396163
 30
0.0
 10
20.29683006273018
 20
0.7084990920258866
 30
0.0
 10
20.20143340269374
 20
1.058274137415545
 30
0.0
 10
20.10451316924662
 20
1.405451481613575
 30
0.0
 10
20.00303996373673
 20
1.749648927813555
 30
0.0
 10
19.89788218503235
 20
2.090972241400183
 30
0.0
 10
19.78886896189597
 20
2.429397518249163
 30
0.0
 10
19.67610363286543
 20
2.764935406024084
 30
0.0
 10
19.55961429558982
 20
3.097587318502831
 30
0.0
 10
19.43944684672478
 20
3.427357000289712
 30
0.0
 10
19.31564026308881
 20
3.754247363001767
 30
0.0
 10
19.1882332298727
 20
4.078261243932355
 30
0.0
 10
19.05726242599117
 20
4.399401122621435
 30
0.0
 10
18.92276303313899
 20
4.717669117107075
 30
0.0
 10
18.78476865487885
 20
5.03306690796093
 30
0.0
 10
18.64331139501801
 20
5.345595683878465
 30
0.0
 10
18.49842189562368
 20
5.655256083899082
 30
0.0
 10
18.35012938778817
 20
5.962048142946379
 30
0.0
 10
18.1984617409138
 20
6.265971238953491
 30
0.0
 10
18.04344551423056
 20
6.567024042081639
 30
0.0
 10
17.88510600947631
 20
6.865204465939492
 30
0.0
 10
17.72346732494367
 20
7.160509620869147
 30
0.0
 10
17.55855241075686
 20
7.452935769319738
 30
0.0
 10
17.39038312533194
 20
7.742478283339452
 30
0.0
 10
17.21898029294937
 20
8.029131604211944
 30
0.0
 10
17.0443637623729
 20
8.312889204261616
 30
0.0
 10
16.86655246644804
 20
8.593743550850926
 30
0.0
 10
16.68556448261155
 20
8.871686072590235
 30
0.0
 10
16.50141709424472
 20
9.146707127779477
 30
0.0
 10
16.31412685280137
 20
9.41879597509866
 30
0.0
 10
16.12370964064238
 20
9.687940746562507
 30
0.0
 10
15.93018073450748
 20
9.954128422752579
 30
0.0
 10
15.7335548695553
 20
10.2173448103383
 30
0.0
 10
15.53384630390237
 20
10.47757452189652
 30
0.0
 10
15.33106888359182
 20
10.73480095803727
 30
0.0
 10
15.12523610792217
 20
10.98900629184138
 30
0.0
 10
14.91636119506704
 20
11.24017145561406
 30
0.0
 10
14.70445714791619
 20
11.48827612995622
 30
0.0
 10
14.4895368200688
 20
11.73329873515371
 30
0.0
 10
14.27161298190995
 20
11.97521642488287
 30
0.0
 10
14.050698386701
 20
12.21400508222844
 30
0.0
 10
13.82680583661588
 20
12.44963931800864
 30
0.0
 10
13.59994824865413
 20
12.68209247139985
 30
0.0
 10
13.37013872036337
 20
12.91133661285185
 30
0.0
 10
13.13739059530302
 20
13.13734254928237
 30
0.0
 10
12.90171752818236
 20
13.36007983153852
 30
0.0
 10
12.66313354960607
 20
13.57951676410977
 30
0.0
 10
12.42165313036104
 20
13.79562041707694
 30
0.0
 10
12.17729124517884
 20
14.00835664027804
 30
0.0
 10
11.93006343590869
 20
14.2176900796717
 30
0.0
 10
11.67998587403678
 20
14.42358419587622
 30
0.0
 10
11.42707542248796
 20
14.62600128486065
 30
0.0
 10
11.17134969664714
 20
14.82490250076313
 30
0.0
 10
10.91282712453805
 20
15.02024788080938
 30
0.0
 10
10.65152700609806
 20
15.211996372303
 30
0.0
 10
10.38746957148882
 20
15.40010586165763
 30
0.0
 10
10.12067603838278
 20
15.58453320543888
 30
0.0
 10
9.851168668167434
 20
15.76523426338328
 30
0.0
 10
9.578970821009232
 20
15.94216393335898
 30
0.0
 10
9.304107009721081
 20
16.11527618823208
 30
0.0
 10
9.02660295237737
 20
16.28452411460061
 30
0.0
 10
8.746485623622688
 20
16.44985995335693
 30
0.0
 10
8.463783304620385
 20
16.61123514203769
 30
0.0
 10
8.1785256315895
 20
16.76860035891934
 30
0.0
 10
7.890743642878482
 20
16.92190556881522
 30
0.0
 10
7.600469824526813
 20
17.07110007053001
 30
0.0
 10
7.307738154265536
 20
17.21613254592463
 30
0.0
 10
7.012584143910013
 20
17.3569511105445
 30
0.0
 10
6.715044880099152
 20
17.49350336576241
 30
0.0
 10
6.41515906333662
 20
17.62573645238588
 30
0.0
 10
6.112967045291312
 20
17.75359710567804
 30
0.0
 10
5.808510864315489
 20
17.8770317117398
 30
0.0
 10
5.501834279140517
 20
17.99598636519989
 30
0.0
 10
5.192982800711721
 20
18.11040692815836
 30
0.0
 10
4.882003722125338
 20
18.22023909032828
 30
0.0
 10
4.568946146631996
 20
18.32542843031915
 30
0.0
 10
4.253861013672796
 20
18.42592047800452
 30
0.0
 10
3.936801122915791
 20
18.521660777916
 30
0.0
 10
3.61782115626189
 20
18.61259495360427
 30
0.0
 10
3.296977697791267
 20
18.69866877290714
 30
0.0
 10
2.974329251622701
 20
18.77982821406441
 30
0.0
 10
2.649936257660138
 20
18.85601953261753
 30
0.0
 10
2.323861105202251
 20
18.92718932903269
 30
0.0
 10
1.996168144392684
 20
18.99328461698383
 30
0.0
 10
1.666923695490277
 20
19.05425289223317
 30
0.0
 10
1.336196055940228
 20
19.11004220204437
 30
0.0
 10
1.004055505229088
 20
19.16060121506493
 30
0.0
 10
0.670574307508057
 20
19.2058792916123
 30
0.0
 10
0.3358267119709531
 20
19.24582655429876
 30
0.0
 10
-0.0001110490252008
 20
19.28039395892937
 30
0.0
 10
-0.3371607641067859
 20
19.30953336560712
 30
0.0
 10
-0.6752422493061874
 20
19.33319760997884
 30
0.0
 10
-1.014273356766312
 20
19.35134057455579
 30
0.0
 10
-1.354169985732403
 20
19.3639172600418
 30
0.0
 10
-1.694846095833401
 20
19.37088385660265
 30
0.0
 10
-2.036213722654496
 20
19.37219781500945
 30
0.0
 10
-2.378182995599692
 20
19.36781791758934
 30
0.0
 10
-2.720662158042236
 20
19.35770434891643
 30
0.0
 10
-3.063557589758049
 20
19.34181876617619
 30
0.0
 10
-3.406773831636626
 20
19.32012436913653
 30
0.0
 10
-3.750213612660658
 20
19.29258596965874
 30
0.0
 10
-4.093777879145192
 20
19.25917006068227
 30
0.0
 10
-4.437365826224392
 20
19.21984488461647
 30
0.0
 10
-4.780874931572424
 20
19.17458050107408
 30
0.0
 10
-5.124200991343529
 20
19.12334885388035
 30
0.0
 10
-5.467238158313969
 20
19.06612383729266
 30
0.0
 10
-5.809878982207398
 20
19.00288136136609
 30
0.0
 10
-6.152014452182619
 20
18.93359941640005
 30
0.0
 10
-6.493534041462197
 20
18.85825813640296
 30
0.0
 10
-6.834325754076785
 20
18.77683986151025
 30
0.0
 10
-7.174276173701575
 20
18.68932919929661
 30
0.0
 10
-7.513270514550497
 20
18.59571308490811
 30
0.0
 10
-7.851192674324506
 20
18.49598083999863
 30
0.0
 10
-8.187925289087486
 20
18.39012423023848
 30
0.0
 10
-8.52334979039523
 20
18.27813752197743
 30
0.0
 10
-8.857346463303399
 20
18.16001753560026
 30
0.0
 10
-9.189794510233511
 20
18.03576370450841
 30
0.0
 10
-9.520572101892816
 20
17.90537810602218
 30
0.0
 10
-9.84955648543692
 20
17.76886559006313
 30
0.0
 10
-10.17662388703701
 20
17.62623353437526
 30
0.0
 10
-10.50165019219902
 20
17.47749298940873
 30
0.0
 10
-10.82450872402009
 20
17.32265461513187
 30
0.0
 10
-11.14508022439116
 20
17.16174342667345
 30
0.0
 10
-11.46323074732164
 20
16.99473594823373
 30
0.0
 10
-11.77905089742546
 20
16.82198719458924
 30
0.0
 10
-12.09271708225715
 20
16.64391645119277
 30
0.0
 10
-12.40442328033937
 20
16.46090143589656
 30
0.0
 10
-12.71439196677033
 20
16.27330734569654
 30
0.0
 10
-13.02286909221358
 20
16.08147820971621
 30
0.0
 10
-13.33012431082298
 20
15.88573787895055
 30
0.0
 10
-13.63644975359948
 20
15.68638846234759
 30
0.0
 10
-13.9421591456213
 20
15.48370949028214
 30
0.0
 10
-14.24758678454932
 20
15.27795692429166
 30
0.0
 10
-14.55308651137595
 20
15.06936225122
 30
0.0
 10
-14.85903063942492
 20
14.85813159866994
 30
0.0
 10
-15.16580885214882
 20
14.64444488965464
 30
0.0
 10
-15.47382706843242
 20
14.42845503245243
 30
0.0
 10
-15.78350627747063
 20
14.21028714751986
 30
0.0
 10
-16.09528134456153
 20
13.99003783173146
 30
0.0
 10
-16.40959978952541
 20
13.76777446067596
 30
0.0
 10
-16.72692053951569
 20
13.54353452969305
 30
0.0
 10
-17.0477126580963
 20
13.31732503446673
 30
0.0
 10
-17.37245405250243
 20
13.08912189210895
 30
0.0
 10
-17.70163016100391
 20
12.85886940380548
 30
0.0
 10
-18.03573262223293
 20
12.62647976022672
 30
0.0
 10
-18.37525792823021
 20
12.39183259101407
 30
0.0
 10
-18.72070606280896
 20
12.1547745597185
 30
0.0
 10
-19.07257912665243
 20
11.91511900557998
 30
0.0
 10
-19.43137995036569
 20
11.67264563348433
 30
0.0
 10
-19.79761069651656
 20
11.42710025331911
 30
0.0
 10
-20.17177145154709
 20
11.17819456977779
 30
0.0
 10
-20.55435880832937
 20
10.92560602344824
 30
0.0
 10
-20.94586444008987
 20
10.66897768378299
 30
0.0
 10
-21.34677366643581
 20
10.40791819430846
 30
0.0
 10
-21.75756401228338
 20
10.14200177020609
 30
0.0
 10
-22.17870376059626
 20
9.870768248204827
 30
0.0
 10
-22.61065049998458
 20
9.593723188574435
 30
0.0
 10
-23.05384966836678
 20
9.310338028904297
 30
0.0
 10
-23.50873309405282
 20
9.020050289291415
 30
0.0
 10
-23.97571753574416
 20
8.722263828541744
 30
0.0
 10
-24.45520322306687
 20
8.416349150995844
 30
0.0
 10
-24.94757239934158
 20
8.101643763620212
 30
0.0
 10
-25.45318786835759
 20
7.777452583044396
 30
0.0
 10
-25.97239154695173
 20
7.443048392266327
 30
0.0
 10
-26.50550302520116
 20
7.097672346780205
 30
0.0
 10
-27.05281813604023
 20
6.740534529929715
 30
0.0
 10
-27.61460753604795
 20
6.370814557222086
 30
0.0
 10
-28.19111529927868
 20
5.987662229666313
 30
0.0
 10
-28.78255752534926
 20
5.59019823492146
 30
0.0
 10
-29.38912096537987
 20
5.177514899965741
 30
0.0
 10
-30.01096165989018
 20
4.748676979684024
 30
0.0
 10
-30.64820361958596
 20
4.302722540924855
 30
0.0
 10
-31.30093743614684
 20
3.838663708312912
 30
0.0
 10
-31.96921927085346
 20
3.355488181585919
 30
0.0
 10
-32.65306848195364
 20
2.852157974514522
 30
0.0
 10
-33.35235556142106
 20
2.327705553985336
 30
0.0
 10
-34.06632553313346
 20
1.781561053366222
 30
0.0
 10
-34.79215617621657
 20
1.211988180452058
 30
0.0
 10
-35.52643351112432
 20
0.6179091947789385
 30
0.0
 10
-36.26558773358093
 20
-0.0014576224524128
 30
0.0
 10
-37.00602034546229
 20
-0.6466718417672639
 30
0.0
 10
-37.74411229074838
 20
-1.31807318265029
 30
0.0
 10
-38.47623399343515
 20
-2.015780313248926
 30
0.0
 10
-39.19875478515726
 20
-2.739691011812521
 30
0.0
 10
-39.9080524244691
 20
-3.489482364666503
 30
0.0
 10
-40.60052251609809
 20
-4.264611376535381
 30
0.0
 10
-41.27258787866668
 20
-5.064315897737345
 30
0.0
 10
-41.9207078387709
 20
-5.887615899784913
 30
0.0
 10
-42.54138744366782
 20
-6.733315094432329
 30
0.0
 10
-43.13118657731612
 20
-7.600002900804243
 30
0.0
 10
-43.68672895725339
 20
-8.48605675689791
 30
0.0
 10
-44.20471100139919
 20
-9.389644785980046
 30
0.0
 10
-44.68191048655667
 20
-10.30872876532395
 30
0.0
 10
-45.11519514380061
 20
-11.24106755695418
 30
0.0
 10
-45.50153048148334
 20
-12.1842203427245
 30
0.0
 10
-45.83798924802114
 20
-13.13555196745961
 30
0.0
 10
-46.12175343867055
 20
-14.09223171948711
 30
0.0
 10
-46.35017198099841
 20
-15.05138291920551
 30
0.0
 10
-46.52073156284187
 20
-16.01047018342473
 30
0.0
 10
-46.6352593130262
 20
-16.96683336838785
 30
0.0
 10
-46.69588118179217
 20
-17.91870792204073
 30
0.0
 10
-46.7047584142951
 20
-18.86458925207145
 30
0.0
 10
-46.66407767535544
 20
-19.80311692727527
 30
0.0
 10
-46.57603932528342
 20
-20.73306983226419
 30
0.0
 10
-46.44285256409314
 20
-21.65336662114632
 30
0.0
 10
-46.26672894764558
 20
-22.56306441118961
 30
0.0
 10
-46.04987653975825
 20
-23.46135763856726
 30
0.0
 10
-45.79449409934673
 20
-24.34757661373792
 30
0.0
 10
-45.50276545138452
 20
-25.2211859374646
 30
0.0
 10
-45.17685398533079
 20
-26.08178276226386
 30
0.0
 10
-44.81889727745776
 20
-26.92909492110407
 30
0.0
 10
-44.43100182073335
 20
-27.76297892677965
 30
0.0
 10
-44.01523785191839
 20
-28.58341784446427
 30
0.0
 10
-43.57363426968323
 20
-29.39051903390328
 30
0.0
 10
-43.10817363410171
 20
-30.18451176416408
 30
0.0
 10
-42.62078726717598
 20
-30.96574467353927
 30
0.0
 10
-42.11335037834647
 20
-31.73468315792027
 30
0.0
 10
-41.58767750815741
 20
-32.49190635832646
 30
0.0
 10
-41.04551721337032
 20
-33.23810496226086
 30
0.0
 10
-40.48855410316713
 20
-33.97406990172922
 30
0.0
 10
-39.91841396536698
 20
-34.70067656479995
 30
0.0
 10
-39.33481728960433
 20
-35.41734181564928
 30
0.0
 10
-38.73753461373976
 20
-36.12343126633723
 30
0.0
 10
-38.12636895349523
 20
-36.81828448817338
 30
0.0
 10
-37.50115677448333
 20
-37.50121681140172
 30
0.0
 10
-36.86176842356527
 20
-38.17152143188233
 30
0.0
 10
-36.20810937843284
 20
-38.82847055618497
 30
0.0
 10
-35.54012121989803
 20
-39.47131685330808
 30
0.0
 10
-34.85778261921529
 20
-40.09929487110946
 30
0.0
 10
-34.16111026061933
 20
-40.71162250730112
 30
0.0
 10
-33.45015971911271
 20
-41.30750250903947
 30
0.0
 10
-32.72502628682098
 20
-41.88612400616196
 30
0.0
 10
-31.98584574845901
 20
-42.44666407476845
 30
0.0
 10
-31.23279510457446
 20
-42.98828933005555
 30
0.0
 10
-30.46609324180514
 20
-43.51015754668642
 30
0.0
 10
-29.68600154929834
 20
-44.01141930512556
 30
0.0
 10
-28.89282448053316
 20
-44.49121966230114
 30
0.0
 10
-28.0869100598284
 20
-44.94869984496124
 30
0.0
 10
-27.26865033288114
 20
-45.3829989640729
 30
0.0
 10
-26.43848176072969
 20
-45.79325574860994
 30
0.0
 10
-25.59688555659467
 20
-46.17861029707291
 30
0.0
 10
-24.74438796510199
 20
-46.53820584508433
 30
0.0
 10
-23.8815604834436
 20
-46.8711905474239
 30
0.0
 10
-23.00902002408598
 20
-47.17671927282936
 30
0.0
 10
-22.12742901865398
 20
-47.45395541009535
 30
0.0
 10
-21.23749546276023
 20
-47.70207268332106
 30
0.0
 10
-20.33997290119125
 20
-47.92025697680576
 30
0.0
 10
-19.43566035434313
 20
-48.10770816033516
 30
0.0
 10
-18.52540218137631
 20
-48.26364194214086
 30
0.0
 10
-17.61008789584242
 20
-48.38729164059977
 30
0.0
 10
-16.69065187383589
 20
-48.47791027429028
 30
0.0
 10
-15.76807317726696
 20
-48.53477147157199
 30
0.0
 10
-14.84337465963017
 20
-48.55717479032061
 30
0.0
 10
-13.91762446320697
 20
-48.54443455603952
 30
0.0
 10
-12.99194163080989
 20
-48.49593098477018
 30
0.0
 10
-12.06762866427181
 20
-48.41094298040437
 30
0.0
 10
-11.14606824789065
 20
-48.29004635052454
 30
0.0
 10
-10.22868094368497
 20
-48.13414374149366
 30
0.0
 10
-9.316882791919223
 20
-47.94412281551814
 30
0.0
 10
-8.412028472809006
 20
-47.72093941977317
 30
0.0
 10
-7.515412753704779
 20
-47.46559096750954
 30
0.0
 10
-6.628268230329069
 20
-47.17912031489153
 30
0.0
 10
-5.751764230773281
 20
-46.86261141056836
 30
0.0
 10
-4.887005519736752
 20
-46.51718710284856
 30
0.0
 10
-4.035031170261775
 20
-46.14400632286469
 30
0.0
 10
-3.196813506194552
 20
-45.74426139287115
 30
0.0
 10
-2.373257142795182
 20
-45.31917526257021
 30
0.0
 10
-1.565198119477146
 20
-44.86999872991345
 30
0.0
 10
-0.7734031274461649
 20
-44.39800763498661
 30
0.0
 10
0.0014311675039041
 20
-43.90450003376939
 30
0.0
 10
0.7586787062608427
 20
-43.39079335372074
 30
0.0
 10
1.497784521236496
 20
-42.85822153444366
 30
0.0
 10
2.218265124355013
 20
-42.30813215633793
 30
0.0
 10
2.919708797876121
 20
-41.7418835602376
 30
0.0
 10
3.601775787844234
 20
-41.16084196099504
 30
0.0
 10
4.264198400054059
 20
-40.56637855796736
 30
0.0
 10
4.906780998524815
 20
-39.95986664534171
 30
0.0
 10
5.529399906562277
 20
-39.34267872520998
 30
0.0
 10
6.132003210627048
 20
-38.71618362630058
 30
0.0
 10
6.714610467172054
 20
-38.08174363115409
 30
0.0
 10
7.277312313284099
 20
-37.44071161483436
 30
0.0
 10
7.820269979968185
 20
-36.79442819697683
 30
0.0
 10
8.343714714747085
 20
-36.14421891352833
 30
0.0
 10
8.847947092014078
 20
-35.49139139760454
 30
0.0
 10
9.333336293700862
 20
-34.83723262075223
 30
0.0
 10
9.800319061944244
 20
-34.18300601898092
 30
0.0
 10
10.24939942013106
 20
-33.52994915819627
 30
0.0
 10
10.68114516067017
 20
-32.87926955801709
 30
0.0
 10
11.09619571535105
 20
-32.23214737803339
 30
0.0
 10
11.49523197022714
 20
-31.58970703560068
 30
0.0
 10
11.87914985858587
 20
-30.95299278079964
 30
0.0
 10
12.2485170482679
 20
-30.32255206905931
 30
0.0
 10
12.60369434171446
 20
-29.69855609807534
 30
0.0
 10
12.94515378753407
 20
-29.08112720042578
 30
0.0
 10
13.27334431429253
 20
-28.47035952885656
 30
0.0
 10
13.58871349066259
 20
-27.86633533934561
 30
0.0
 10
13.89170107530397
 20
-27.26912170748979
 30
0.0
 10
14.18274023909457
 20
-26.67877186441498
 30
0.0
 10
14.46225680250211
 20
-26.09532533691204
 30
0.0
 10
14.73066900902442
 20
-25.51880840916736
 30
0.0
 10
14.98838717681411
 20
-24.94923450944409
 30
0.0
 10
15.23581340039112
 20
-24.38660462470553
 30
0.0
 10
15.47334125770587
 20
-23.83090771573344
 30
0.0
 10
15.70135553436128
 20
-23.28212113934824
 30
0.0
 10
15.92023196202254
 20
-22.74021107544258
 30
0.0
 10
16.13033697188724
 20
-22.20513295886335
 30
0.0
 10
16.33202746306913
 20
-21.6768319155678
 30
0.0
 10
16.52565058600058
 20
-21.15524320263798
 30
0.0
 10
16.71154354087666
 20
-20.64029265169691
 30
0.0
 10
16.89003339117172
 20
-20.13189711527976
 30
0.0
 10
17.06143689224051
 20
-19.62996491571117
 30
0.0
 10
17.22606033500787
 20
-19.13439629604167
 30
0.0
 10
17.38419940473696
 20
-18.64508387259711
 30
0.0
 10
17.53613905485604
 20
-18.16191308869585
 30
0.0
 10
17.68215339581139
 20
-17.68476266909052
 30
0.0
 10
17.82250559890405
 20
-17.21350507469442
 30
0.0
 10
17.957447815055
 20
-16.74800695715283
 30
0.0
 10
18.08722110843455
 20
-16.288129612825
 30
0.0
 10
18.21205540487907
 20
-15.83372943574415
 30
0.0
 10
18.33216945500848
 20
-15.38465836912729
 30
0.0
 10
18.44777081194654
 20
-14.9407643550108
 30
0.0
 10
18.55905582353577
 20
-14.50189178159168
 30
0.0
 10
18.66620963892805
 20
-14.06788192786068
 30
0.0
 10
18.76940622942088
 20
-13.63857340511688
 30
0.0
 10
18.86880842339998
 20
-13.21380259496043
 30
0.0
 10
18.96456795523648
 20
-12.79340408336618
 30
0.0
 10
19.05682552797832
 20
-12.37721109044588
 30
0.0
 10
19.14571088966306
 20
-11.96505589551462
 30
0.0
 10
19.23134292307001
 20
-11.55677025708358
 30
0.0
 10
19.31382974871814
 20
-11.15218582740718
 30
0.0
 10
19.39326884090589
 20
-10.75113456122173
 30
0.0
 10
19.46974715657839
 20
-10.35344911831748
 30
0.0
 10
19.54334127679686
 20
-9.958963259595729
 30
0.0
 10
19.61411756057468
 20
-9.567512236267786
 30
0.0
 10
19.68213231083442
 20
-9.178933171861415
 30
0.0
 10
19.74743195222968
 20
-8.79306543670701
 30
0.0
 10
19.81005322056599
 20
-8.409751014582824
 30
0.0
 10
19.87002336354582
 20
-8.028834861207214
 30
0.0
 10
19.92736035255247
 20
-7.650165254271002
 30
0.0
 10
19.9820731051806
 20
-7.273594134712823
 30
0.0
 10
20.03416171820964
 20
-6.898977438945998
 30
0.0
 10
20.08361771071649
 20
-6.526175421753694
 30
0.0
 10
20.13042427698859
 20
-6.155052969578763
 30
0.0
 10
20.1745565489944
 20
-5.785479903931121
 30
0.0
 10
20.21598186777824
 20
-5.417331274691804
 30
0.0
 10
20.25466006456416
 20
-5.050487642915463
 30
0.0
 10
20.29054374706749
 20
-4.68483535343764
 30
0.0
 10
20.32357860609229
 20
-4.320266795015065
 30
0.0
 10
20.35370368481176
 20
-3.95668065533954
 30
0.0
 10
20.38085182294074
 20
-3.593982142622911
 30
0.0
 10
20.40494948583827
 20
-3.232083277881825
 30
0.0
 10
20.4259189124717
 20
-2.870902870005434
 30
0.0
 10
20.4436716730239
 20
-2.510367614856635
 30
0.0
 10
20.45813420752883
 20
-2.150408957305572
 30
0.0
 10
20.46915439589976
 20
-1.790975661630994
 30
0.0
 10
20.47685097264891
 20
-1.43198785519189
 30
0.0
 10
20.48031408454999
 20
-1.073508931054913
 30
0.0
 10
20.48244712508312
 20
-0.7151059642836954
 30
0.0
 10
20.47192833971238
 20
-0.3582333826865385
 30
0.0
 10
20.48427346313495
 20
-0.1175624302450885
 30
0.0
 10
20.46927651463757
 20
0.0
 30
0.0
  0
CIRCLE
  5
64
330
1F
100
AcDbEntity
  8
0
  6
Continuous
 62
     7
370
    25
100
AcDbCircle
 10
0.0
 20
0.0
 30
0.0
 40
3.075
  0
MTEXT
  5
66
330
1F
100
AcDbEntity
  8
0
  6
Continuous
 62
     7
100
AcDbMText
 10
-46.6990067896
 20
-49.5483161381
 30
0.0
 40
4.83362
 41
0.0
 71
     1
 72
     1
  1
SOLIDWORKS Educational Product.
  7
SLDTEXTSTYLE0
 73
     1
 44
1.0
  0
MTEXT
  5
67
330
1F
100
AcDbEntity
  8
0
  6
Continuous
 62
     7
100
AcDbMText
 10
-46.6990067896
 20
-56.7987461381
 30
0.0
 40
4.83362
 41
0.0
 71
     1
 72
     1
  1
For Instructional Use Only.
  7
SLDTEXTSTYLE0
 73
     1
 44
1.0
  0
ENDSEC
  0
SECTION
  2
OBJECTS
  0
DICTIONARY
  5
C
330
0
100
AcDbDictionary
281
     1
  3
ACAD_GROUP
350
D
  3
ACAD_LAYOUT
350
1A
  3
ACAD_MLINESTYLE
350
17
  3
ACAD_PLOTSETTINGS
350
19
  3
ACAD_PLOTSTYLENAME
350
E
  3
ACAD_SCALELIST
350
47
  3
DWGPROPS
350
68
  0
DICTIONARY
  5
D
102
{ACAD_REACTORS
330
C
102
}
330
C
100
AcDbDictionary
281
     1
  0
DICTIONARY
  5
1A
102
{ACAD_REACTORS
330
C
102
}
330
C
100
AcDbDictionary
281
     1
  3
Layout1
350
1E
  3
Layout2
350
26
  3
Model
350
22
  0
DICTIONARY
  5
17
102
{ACAD_REACTORS
330
C
102
}
330
C
100
AcDbDictionary
281
     1
  3
Standard
350
18
  0
DICTIONARY
  5
19
102
{ACAD_REACTORS
330
C
102
}
330
C
100
AcDbDictionary
281
     1
  0
ACDBDICTIONARYWDFLT
  5
E
102
{ACAD_REACTORS
330
C
102
}
330
C
100
AcDbDictionary
281
     1
  3
Normal
350
F
100
AcDbDictionaryWithDefault
340
F
  0
DICTIONARY
  5
47
102
{ACAD_REACTORS
330
C
102
}
330
C
100
AcDbDictionary
281
     1
  3
A0
350
48
  3
A1
350
49
  3
A2
350
4A
  3
A3
350
4B
  3
A4
350
4C
  3
A5
350
4D
  3
A6
350
4E
  3
A7
350
4F
  3
A8
350
50
  3
A9
350
51
  3
B0
350
52
  3
B1
350
53
  3
B2
350
54
  3
B3
350
55
  3
B4
350
56
  3
B5
350
57
  3
B6
350
58
  0
XRECORD
  5
68
102
{ACAD_REACTORS
330
C
102
}
330
C
100
AcDbXrecord
280
     1
  1
DWGPROPS COOKIE
  2

  3

  4

  6

  7

  8
Stephan
  9

300
=
301
=
302
=
303
=
304
=
305
=
306
=
307
=
308
=
309
=
 40
0.0
 41
2460160.592853854
 42
2460160.592915555
  1

 90
        0
  0
LAYOUT
  5
1E
102
{ACAD_REACTORS
330
1A
102
}
330
1A
100
AcDbPlotSettings
  1

  2
none_device
  4

  6

 40
0.0
 41
0.0
 42
0.0
 43
0.0
 44
0.0
 45
0.0
 46
0.0
 47
0.0
 48
0.0
 49
0.0
140
0.0
141
0.0
142
1.0
143
1.0
 70
   688
 72
     1
 73
     0
 74
     5
  7

 75
    16
147
1.0
148
0.0
149
0.0
100
AcDbLayout
  1
Layout1
 70
     1
 71
     1
 10
0.0
 20
0.0
 11
420.0
 21
297.0
 12
0.0
 22
0.0
 32
0.0
 14
1.0000000000E+20
 24
1.0000000000E+20
 34
1.0000000000E+20
 15
-1.0000000000E+20
 25
-1.0000000000E+20
 35
-1.0000000000E+20
146
0.0
 13
0.0
 23
0.0
 33
0.0
 16
1.0
 26
0.0
 36
0.0
 17
0.0
 27
1.0
 37
0.0
 76
     0
330
1B
  0
LAYOUT
  5
26
102
{ACAD_REACTORS
330
1A
102
}
330
1A
100
AcDbPlotSettings
  1

  2
none_device
  4

  6

 40
0.0
 41
0.0
 42
0.0
 43
0.0
 44
0.0
 45
0.0
 46
0.0
 47
0.0
 48
0.0
 49
0.0
140
0.0
141
0.0
142
1.0
143
1.0
 70
   688
 72
     1
 73
     0
 74
     5
  7

 75
    16
147
1.0
148
0.0
149
0.0
100
AcDbLayout
  1
Layout2
 70
     1
 71
     2
 10
0.0
 20
0.0
 11
0.0
 21
0.0
 12
0.0
 22
0.0
 32
0.0
 14
0.0
 24
0.0
 34
0.0
 15
0.0
 25
0.0
 35
0.0
146
0.0
 13
0.0
 23
0.0
 33
0.0
 16
1.0
 26
0.0
 36
0.0
 17
0.0
 27
1.0
 37
0.0
 76
     0
330
23
  0
LAYOUT
  5
22
102
{ACAD_REACTORS
330
1A
102
}
330
1A
100
AcDbPlotSettings
  1

  2
none_device
  4
ANSI_A_(11.00_x_8.50_Inches)
  6

 40
6.35
 41
19.05
 42
6.35000508
 43
19.05000254
 44
279.4
 45
215.9
 46
174.6365952976
 47
134.8017120421
 48
0.0
 49
0.0
140
0.0
141
0.0
142
0.123940017
143
1.0
 70
  1696
 72
     0
 73
     0
 74
     0
  7

 75
     0
147
0.0179189148
148
-1300.4909072572
149
0.0
100
AcDbLayout
  1
Model
 70
     1
 71
     0
 10
0.0
 20
0.0
 11
420.0
 21
297.0
 12
0.0
 22
0.0
 32
0.0
 14
-46.6990067896
 24
-48.5287497464
 34
0.0
 15
20.4692765146
 25
19.3669969648
 35
0.0
146
0.0
 13
0.0
 23
0.0
 33
0.0
 16
1.0
 26
0.0
 36
0.0
 17
0.0
 27
1.0
 37
0.0
 76
     0
330
1F
331
29
  0
MLINESTYLE
  5
18
102
{ACAD_REACTORS
330
17
102
}
330
17
100
AcDbMlineStyle
  2
Standard
 70
     0
  3

 62
   256
 51
90.0
 52
90.0
 71
     2
 49
0.5
 62
   256
  6
BYLAYER
 49
-0.5
 62
   256
  6
BYLAYER
  0
ACDBPLACEHOLDER
  5
F
102
{ACAD_REACTORS
330
E
102
}
330
E
  0
SCALE
  5
48
102
{ACAD_REACTORS
330
47
102
}
330
47
100
AcDbScale
 70
     0
300
1:1
140
1.0
141
1.0
290
     1
  0
SCALE
  5
49
102
{ACAD_REACTORS
330
47
102
}
330
47
100
AcDbScale
 70
     0
300
1:2
140
1.0
141
2.0
290
     0
  0
SCALE
  5
4A
102
{ACAD_REACTORS
330
47
102
}
330
47
100
AcDbScale
 70
     0
300
1:4
140
1.0
141
4.0
290
     0
  0
SCALE
  5
4B
102
{ACAD_REACTORS
330
47
102
}
330
47
100
AcDbScale
 70
     0
300
1:5
140
1.0
141
5.0
290
     0
  0
SCALE
  5
4C
102
{ACAD_REACTORS
330
47
102
}
330
47
100
AcDbScale
 70
     0
300
1:8
140
1.0
141
8.0
290
     0
  0
SCALE
  5
4D
102
{ACAD_REACTORS
330
47
102
}
330
47
100
AcDbScale
 70
     0
300
1:10
140
1.0
141
10.0
290
     0
  0
SCALE
  5
4E
102
{ACAD_REACTORS
330
47
102
}
330
47
100
AcDbScale
 70
     0
300
1:16
140
1.0
141
16.0
290
     0
  0
SCALE
  5
4F
102
{ACAD_REACTORS
330
47
102
}
330
47
100
AcDbScale
 70
     0
300
1:20
140
1.0
141
20.0
290
     0
  0
SCALE
  5
50
102
{ACAD_REACTORS
330
47
102
}
330
47
100
AcDbScale
 70
     0
300
1:30
140
1.0
141
30.0
290
     0
  0
SCALE
  5
51
102
{ACAD_REACTORS
330
47
102
}
330
47
100
AcDbScale
 70
     0
300
1:40
140
1.0
141
40.0
290
     0
  0
SCALE
  5
52
102
{ACAD_REACTORS
330
47
102
}
330
47
100
AcDbScale
 70
     0
300
1:50
140
1.0
141
50.0
290
     0
  0
SCALE
  5
53
102
{ACAD_REACTORS
330
47
102
}
330
47
100
AcDbScale
 70
     0
300
1:100
140
1.0
141
100.0
290
     0
  0
SCALE
  5
54
102
{ACAD_REACTORS
330
47
102
}
330
47
100
AcDbScale
 70
     0
300
2:1
140
2.0
141
1.0
290
     0
  0
SCALE
  5
55
102
{ACAD_REACTORS
330
47
102
}
330
47
100
AcDbScale
 70
     0
300
4:1
140
4.0
141
1.0
290
     0
  0
SCALE
  5
56
102
{ACAD_REACTORS
330
47
102
}
330
47
100
AcDbScale
 70
     0
300
8:1
140
8.0
141
1.0
290
     0
  0
SCALE
  5
57
102
{ACAD_REACTORS
330
47
102
}
330
47
100
AcDbScale
 70
     0
300
10:1
140
10.0
141
1.0
290
     0
  0
SCALE
  5
58
102
{ACAD_REACTORS
330
47
102
}
330
47
100
AcDbScale
 70
     0
300
100:1
140
100.0
141
1.0
290
     0
  0
ENDSEC
  0
EOF
