  0
SECTION
  2
HEADER
  9
$ACADVER
  1
AC1015
  9
$ACADMAINTVER
 70
     6
  9
$DWGCODEPAGE
  3
ANSI_1252
  9
$INSBASE
 10
0.0
 20
0.0
 30
0.0
  9
$EXTMIN
 10
-43.4434338687
 20
-46.9188253381
 30
0.0
  9
$EXTMAX
 10
20.4699445509
 20
24.553310855
 30
0.0
  9
$LIMMIN
 10
0.0
 20
0.0
  9
$LIMMAX
 10
420.0
 20
297.0
  9
$ORTHOMODE
 70
     0
  9
$REGENMODE
 70
     1
  9
$FILLMODE
 70
     1
  9
$QTEXTMODE
 70
     0
  9
$MIRRTEXT
 70
     1
  9
$LTSCALE
 40
1.0
  9
$ATTMODE
 70
     1
  9
$TEXTSIZE
 40
3.5
  9
$TRACEWID
 40
1.0
  9
$TEXTSTYLE
  7
Standard
  9
$CLAYER
  8
0
  9
$CELTYPE
  6
ByLayer
  9
$CECOLOR
 62
   256
  9
$CELTSCALE
 40
1.0
  9
$DISPSILH
 70
     0
  9
$DIMSCALE
 40
1.0
  9
$DIMASZ
 40
3.302
  9
$DIMEXO
 40
0.0
  9
$DIMDLI
 40
3.75
  9
$DIMRND
 40
0.0
  9
$DIMDLE
 40
0.0
  9
$DIMEXE
 40
1.0
  9
$DIMTP
 40
0.0
  9
$DIMTM
 40
0.0
  9
$DIMTXT
 40
3.5
  9
$DIMCEN
 40
2.5
  9
$DIMTSZ
 40
0.0
  9
$DIMTOL
 70
     0
  9
$DIMLIM
 70
     0
  9
$DIMTIH
 70
     1
  9
$DIMTOH
 70
     1
  9
$DIMSE1
 70
     0
  9
$DIMSE2
 70
     0
  9
$DIMTAD
 70
     1
  9
$DIMZIN
 70
     1
  9
$DIMBLK
  1

  9
$DIMASO
 70
     1
  9
$DIMSHO
 70
     1
  9
$DIMPOST
  1

  9
$DIMAPOST
  1

  9
$DIMALT
 70
     0
  9
$DIMALTD
 70
     3
  9
$DIMALTF
 40
0.0393700787
  9
$DIMLFAC
 40
1.0
  9
$DIMTOFL
 70
     1
  9
$DIMTVP
 40
0.0
  9
$DIMTIX
 70
     0
  9
$DIMSOXD
 70
     0
  9
$DIMSAH
 70
     0
  9
$DIMBLK1
  1

  9
$DIMBLK2
  1

  9
$DIMSTYLE
  2
ISO-25
  9
$DIMCLRD
 70
     0
  9
$DIMCLRE
 70
     0
  9
$DIMCLRT
 70
     0
  9
$DIMTFAC
 40
1.0
  9
$DIMGAP
 40
1.524
  9
$DIMJUST
 70
     0
  9
$DIMSD1
 70
     0
  9
$DIMSD2
 70
     0
  9
$DIMTOLJ
 70
     0
  9
$DIMTZIN
 70
     1
  9
$DIMALTZ
 70
     0
  9
$DIMALTTZ
 70
     0
  9
$DIMUPT
 70
     0
  9
$DIMDEC
 70
     2
  9
$DIMTDEC
 70
     2
  9
$DIMALTU
 70
     2
  9
$DIMALTTD
 70
     3
  9
$DIMTXSTY
  7
Standard
  9
$DIMAUNIT
 70
     0
  9
$DIMADEC
 70
     2
  9
$DIMALTRND
 40
0.0
  9
$DIMAZIN
 70
     0
  9
$DIMDSEP
 70
    44
  9
$DIMATFIT
 70
     3
  9
$DIMFRAC
 70
     0
  9
$DIMLDRBLK
  1

  9
$DIMLUNIT
 70
     2
  9
$DIMLWD
 70
    -2
  9
$DIMLWE
 70
    -2
  9
$DIMTMOVE
 70
     0
  9
$LUNITS
 70
     2
  9
$LUPREC
 70
     6
  9
$SKETCHINC
 40
1.0
  9
$FILLETRAD
 40
0.0
  9
$AUNITS
 70
     0
  9
$AUPREC
 70
     2
  9
$MENU
  1
.
  9
$ELEVATION
 40
0.0
  9
$PELEVATION
 40
0.0
  9
$THICKNESS
 40
0.0
  9
$LIMCHECK
 70
     0
  9
$CHAMFERA
 40
0.0
  9
$CHAMFERB
 40
0.0
  9
$CHAMFERC
 40
0.0
  9
$CHAMFERD
 40
0.0
  9
$SKPOLY
 70
     0
  9
$TDCREATE
 40
2460160.428795764
  9
$TDUCREATE
 40
2460160.595462431
  9
$TDUPDATE
 40
2460160.428832651
  9
$TDUUPDATE
 40
2460160.595499317
  9
$TDINDWG
 40
0.0000000116
  9
$TDUSRTIMER
 40
0.0000000116
  9
$USRTIMER
 70
     1
  9
$ANGBASE
 50
0.0
  9
$ANGDIR
 70
     0
  9
$PDMODE
 70
     0
  9
$PDSIZE
 40
-1.0
  9
$PLINEWID
 40
0.0
  9
$SPLFRAME
 70
     0
  9
$SPLINETYPE
 70
     6
  9
$SPLINESEGS
 70
     8
  9
$HANDSEED
  5
6A
  9
$SURFTAB1
 70
     6
  9
$SURFTAB2
 70
     6
  9
$SURFTYPE
 70
     6
  9
$SURFU
 70
     6
  9
$SURFV
 70
     6
  9
$UCSBASE
  2

  9
$UCSNAME
  2

  9
$UCSORG
 10
0.0
 20
0.0
 30
0.0
  9
$UCSXDIR
 10
1.0
 20
0.0
 30
0.0
  9
$UCSYDIR
 10
0.0
 20
1.0
 30
0.0
  9
$UCSORTHOREF
  2

  9
$UCSORTHOVIEW
 70
     0
  9
$UCSORGTOP
 10
0.0
 20
0.0
 30
0.0
  9
$UCSORGBOTTOM
 10
0.0
 20
0.0
 30
0.0
  9
$UCSORGLEFT
 10
0.0
 20
0.0
 30
0.0
  9
$UCSORGRIGHT
 10
0.0
 20
0.0
 30
0.0
  9
$UCSORGFRONT
 10
0.0
 20
0.0
 30
0.0
  9
$UCSORGBACK
 10
0.0
 20
0.0
 30
0.0
  9
$PUCSBASE
  2

  9
$PUCSNAME
  2

  9
$PUCSORG
 10
0.0
 20
0.0
 30
0.0
  9
$PUCSXDIR
 10
1.0
 20
0.0
 30
0.0
  9
$PUCSYDIR
 10
0.0
 20
1.0
 30
0.0
  9
$PUCSORTHOREF
  2

  9
$PUCSORTHOVIEW
 70
     0
  9
$PUCSORGTOP
 10
0.0
 20
0.0
 30
0.0
  9
$PUCSORGBOTTOM
 10
0.0
 20
0.0
 30
0.0
  9
$PUCSORGLEFT
 10
0.0
 20
0.0
 30
0.0
  9
$PUCSORGRIGHT
 10
0.0
 20
0.0
 30
0.0
  9
$PUCSORGFRONT
 10
0.0
 20
0.0
 30
0.0
  9
$PUCSORGBACK
 10
0.0
 20
0.0
 30
0.0
  9
$USERI1
 70
     0
  9
$USERI2
 70
     0
  9
$USERI3
 70
     0
  9
$USERI4
 70
     0
  9
$USERI5
 70
     0
  9
$USERR1
 40
0.0
  9
$USERR2
 40
0.0
  9
$USERR3
 40
0.0
  9
$USERR4
 40
0.0
  9
$USERR5
 40
0.0
  9
$WORLDVIEW
 70
     1
  9
$SHADEDGE
 70
     3
  9
$SHADEDIF
 70
    70
  9
$TILEMODE
 70
     1
  9
$MAXACTVP
 70
    64
  9
$PINSBASE
 10
0.0
 20
0.0
 30
0.0
  9
$PLIMCHECK
 70
     0
  9
$PEXTMIN
 10
1.0000000000E+20
 20
1.0000000000E+20
 30
1.0000000000E+20
  9
$PEXTMAX
 10
-1.0000000000E+20
 20
-1.0000000000E+20
 30
-1.0000000000E+20
  9
$PLIMMIN
 10
0.0
 20
0.0
  9
$PLIMMAX
 10
420.0
 20
297.0
  9
$UNITMODE
 70
     0
  9
$VISRETAIN
 70
     1
  9
$PLINEGEN
 70
     0
  9
$PSLTSCALE
 70
     1
  9
$TREEDEPTH
 70
  3020
  9
$CMLSTYLE
  2
Standard
  9
$CMLJUST
 70
     0
  9
$CMLSCALE
 40
20.0
  9
$PROXYGRAPHICS
 70
     1
  9
$MEASUREMENT
 70
     1
  9
$CELWEIGHT
370
    -1
  9
$ENDCAPS
280
     0
  9
$JOINSTYLE
280
     0
  9
$LWDISPLAY
290
     1
  9
$INSUNITS
 70
     4
  9
$HYPERLINKBASE
  1

  9
$STYLESHEET
  1

  9
$XEDIT
290
     1
  9
$CEPSNTYPE
380
     0
  9
$PSTYLEMODE
290
     1
  9
$FINGERPRINTGUID
  2
{bccc0fb5-e806-42b1-a694-d16156aefff3}
  9
$VERSIONGUID
  2
{FAEB1C32-E019-11D5-929B-00C0DF256EC4}
  9
$EXTNAMES
290
     1
  9
$PSVPSCALE
 40
0.0
  9
$OLESTARTUP
290
     0
  0
ENDSEC
  0
SECTION
  2
CLASSES
  0
CLASS
  1
ACDBDICTIONARYWDFLT
  2
AcDbDictionaryWithDefault
  3
ObjectDBX Classes
 90
        0
280
     0
281
     0
  0
CLASS
  1
VISUALSTYLE
  2
AcDbVisualStyle
  3
ObjectDBX Classes
 90
     4095
280
     0
281
     0
  0
CLASS
  1
MATERIAL
  2
AcDbMaterial
  3
ObjectDBX Classes
 90
     1153
280
     0
281
     0
  0
CLASS
  1
SCALE
  2
AcDbScale
  3
ObjectDBX Classes
 90
     1153
280
     0
281
     0
  0
CLASS
  1
TABLESTYLE
  2
AcDbTableStyle
  3
ObjectDBX Classes
 90
     4095
280
     0
281
     0
  0
CLASS
  1
MLEADERSTYLE
  2
AcDbMLeaderStyle
  3
ACDB_MLEADERSTYLE_CLASS
 90
     4095
280
     0
281
     0
  0
CLASS
  1
SUN
  2
AcDbSun
  3
SCENEOE
 90
     1153
280
     0
281
     0
  0
CLASS
  1
ACDBPLACEHOLDER
  2
AcDbPlaceHolder
  3
ObjectDBX Classes
 90
        0
280
     0
281
     0
  0
CLASS
  1
LAYOUT
  2
AcDbLayout
  3
ObjectDBX Classes
 90
        0
280
     0
281
     0
  0
ENDSEC
  0
SECTION
  2
TABLES
  0
TABLE
  2
VPORT
  5
8
330
0
100
AcDbSymbolTable
 70
     1
  0
VPORT
  5
29
330
8
100
AcDbSymbolTableRecord
100
AcDbViewportTableRecord
  2
*Active
 70
     0
 10
0.0
 20
0.0
 11
1.0
 21
1.0
 12
-11.4867446589
 22
-11.1827572416
 13
0.0
 23
0.0
 14
10.0
 24
10.0
 15
10.0
 25
10.0
 16
0.0
 26
0.0
 36
1.0
 17
0.0
 27
0.0
 37
0.0
 40
72.9015789169
 41
0.8942418937
 42
50.0
 43
0.0
 44
0.0
 50
0.0
 51
0.0
 71
     0
 72
   100
 73
     1
 74
     3
 75
     0
 76
     0
 77
     0
 78
     0
281
     0
 65
     1
110
0.0
120
0.0
130
0.0
111
1.0
121
0.0
131
0.0
112
0.0
122
1.0
132
0.0
 79
     0
146
0.0
  0
ENDTAB
  0
TABLE
  2
LTYPE
  5
5
330
0
100
AcDbSymbolTable
 70
     6
  0
LTYPE
  5
14
330
5
100
AcDbSymbolTableRecord
100
AcDbLinetypeTableRecord
  2
ByBlock
 70
     0
  3

 72
    65
 73
     0
 40
0.0
  0
LTYPE
  5
15
330
5
100
AcDbSymbolTableRecord
100
AcDbLinetypeTableRecord
  2
ByLayer
 70
     0
  3

 72
    65
 73
     0
 40
0.0
  0
LTYPE
  5
16
330
5
100
AcDbSymbolTableRecord
100
AcDbLinetypeTableRecord
  2
Continuous
 70
     0
  3
Solid line
 72
    65
 73
     0
 40
0.0
  0
LTYPE
  5
5E
330
5
100
AcDbSymbolTableRecord
100
AcDbLinetypeTableRecord
  2
HIDDEN
 70
     0
  3
Hidden __ __ __ __ __ __ __ __ __ __ __ __ __ __
 72
    65
 73
     2
 40
1.905
 49
1.27
 74
     0
 49
-0.635
 74
     0
  0
LTYPE
  5
5F
330
5
100
AcDbSymbolTableRecord
100
AcDbLinetypeTableRecord
  2
PHANTOM
 70
     0
  3
Phantom ______  __  __  ______  __  __  ______
 72
    65
 73
     6
 40
12.7
 49
6.35
 74
     0
 49
-1.27
 74
     0
 49
1.27
 74
     0
 49
-1.27
 74
     0
 49
1.27
 74
     0
 49
-1.27
 74
     0
  0
LTYPE
  5
60
330
5
100
AcDbSymbolTableRecord
100
AcDbLinetypeTableRecord
  2
CENTER
 70
     0
  3
Center ____ _ ____ _ ____ _ ____ _ ____ _ ____
 72
    65
 73
     4
 40
10.16
 49
6.35
 74
     0
 49
-1.27
 74
     0
 49
1.27
 74
     0
 49
-1.27
 74
     0
  0
LTYPE
  5
61
330
5
100
AcDbSymbolTableRecord
100
AcDbLinetypeTableRecord
  2
CENTERX2
 70
     0
  3
Center (2x) ________  __  ________  __  _____
 72
    65
 73
     4
 40
20.32
 49
12.7
 74
     0
 49
-2.54
 74
     0
 49
2.54
 74
     0
 49
-2.54
 74
     0
  0
LTYPE
  5
62
330
5
100
AcDbSymbolTableRecord
100
AcDbLinetypeTableRecord
  2
DOT2
 70
     0
  3
Dot (.5x) ........................................
 72
    65
 73
     2
 40
0.635
 49
0.0
 74
     0
 49
-0.635
 74
     0
  0
ENDTAB
  0
TABLE
  2
LAYER
  5
2
330
0
100
AcDbSymbolTable
 70
     1
  0
LAYER
  5
10
330
2
100
AcDbSymbolTableRecord
100
AcDbLayerTableRecord
  2
0
 70
     0
 62
     7
  6
Continuous
370
    -3
390
F
  0
ENDTAB
  0
TABLE
  2
STYLE
  5
3
330
0
100
AcDbSymbolTable
 70
     2
  0
STYLE
  5
11
330
3
100
AcDbSymbolTableRecord
100
AcDbTextStyleTableRecord
  2
Standard
 70
     0
 40
0.0
 41
1.0
 50
0.0
 71
     0
 42
3.5
  3
txt
  4

  0
STYLE
  5
66
330
3
100
AcDbSymbolTableRecord
100
AcDbTextStyleTableRecord
  2
SLDTEXTSTYLE0
 70
     0
 40
0.0
 41
0.7
 50
0.0
 71
     0
 42
3.5
  3
TXT
  4

  0
ENDTAB
  0
TABLE
  2
VIEW
  5
6
330
0
100
AcDbSymbolTable
 70
     0
  0
ENDTAB
  0
TABLE
  2
UCS
  5
7
330
0
100
AcDbSymbolTable
 70
     0
  0
ENDTAB
  0
TABLE
  2
APPID
  5
9
330
0
100
AcDbSymbolTable
 70
     1
  0
APPID
  5
12
330
9
100
AcDbSymbolTableRecord
100
AcDbRegAppTableRecord
  2
ACAD
 70
     0
  0
ENDTAB
  0
TABLE
  2
DIMSTYLE
  5
A
330
0
100
AcDbSymbolTable
 70
     1
100
AcDbDimStyleTable
  0
DIMSTYLE
105
27
330
A
100
AcDbSymbolTableRecord
100
AcDbDimStyleTableRecord
  2
ISO-25
 70
     0
 41
2.5
 42
0.625
 43
3.75
 44
1.25
 73
     0
 74
     0
 77
     1
 78
     8
140
2.5
141
2.5
143
0.0393700787
147
0.625
171
     3
172
     1
178
     0
271
     2
272
     2
274
     3
278
    44
283
     0
284
     8
340
11
  0
ENDTAB
  0
TABLE
  2
BLOCK_RECORD
  5
1
330
0
100
AcDbSymbolTable
 70
     1
  0
BLOCK_RECORD
  5
1F
330
1
100
AcDbSymbolTableRecord
100
AcDbBlockTableRecord
  2
*Model_Space
340
22
  0
BLOCK_RECORD
  5
1B
330
1
100
AcDbSymbolTableRecord
100
AcDbBlockTableRecord
  2
*Paper_Space
340
1E
  0
BLOCK_RECORD
  5
23
330
1
100
AcDbSymbolTableRecord
100
AcDbBlockTableRecord
  2
*Paper_Space0
340
26
  0
ENDTAB
  0
ENDSEC
  0
SECTION
  2
BLOCKS
  0
BLOCK
  5
20
330
1F
100
AcDbEntity
  8
0
100
AcDbBlockBegin
  2
*Model_Space
 70
     0
 10
0.0
 20
0.0
 30
0.0
  3
*Model_Space
  1

  0
ENDBLK
  5
21
330
1F
100
AcDbEntity
  8
0
100
AcDbBlockEnd
  0
BLOCK
  5
1C
330
1B
100
AcDbEntity
 67
     1
  8
0
100
AcDbBlockBegin
  2
*Paper_Space
 70
     0
 10
0.0
 20
0.0
 30
0.0
  3
*Paper_Space
  1

  0
ENDBLK
  5
1D
330
1B
100
AcDbEntity
 67
     1
  8
0
100
AcDbBlockEnd
  0
BLOCK
  5
24
330
23
100
AcDbEntity
  8
0
100
AcDbBlockBegin
  2
*Paper_Space0
 70
     0
 10
0.0
 20
0.0
 30
0.0
  3
*Paper_Space0
  1

  0
ENDBLK
  5
25
330
23
100
AcDbEntity
  8
0
100
AcDbBlockEnd
  0
ENDSEC
  0
SECTION
  2
ENTITIES
  0
SPLINE
  5
63
330
1F
100
AcDbEntity
  8
0
  6
Continuous
 62
     7
370
    25
100
AcDbSpline
210
0.0
220
0.0
230
1.0
 70
     8
 71
     3
 72
   126
 73
   122
 74
     0
 42
0.00000001
 43
0.00000001
 40
0.5615125439158684
 40
0.5615125439158684
 40
0.5615125439158684
 40
0.5615125439158684
 40
0.5657825275671263
 40
0.5702521046689172
 40
0.5747229198772604
 40
0.5791946388948864
 40
0.583666924099619
 40
0.5881394394166907
 40
0.5926118552385361
 40
0.5970838534024323
 40
0.6015551322362055
 40
0.6060254116818639
 40
0.6104944385064853
 40
0.6149619916089313
 40
0.6194278874299953
 40
0.6238919854723546
 40
0.6283541939352131
 40
0.6328144754667266
 40
0.6372728530351947
 40
0.641729415917556
 40
0.646184325800905
 40
0.6506378229895532
 40
0.655090232706571
 40
0.6595419714747576
 40
0.6639935535576157
 40
0.6684455974361723
 40
0.6728988322924251
 40
0.6773541044648734
 40
0.6818123838360999
 40
0.6862747701068066
 40
0.6907424989052386
 40
0.695216754459362
 40
0.6996973249744142
 40
0.7041832126820166
 40
0.7086732736591546
 40
0.7131662319307996
 40
0.7176606897638573
 40
0.7221551373438372
 40
0.7266479618623288
 40
0.7311374560475377
 40
0.7356218261731814
 40
0.740099199583222
 40
0.7445676317714178
 40
0.7490251130556937
 40
0.7534695748880481
 40
0.7578988958412247
 40
0.76231090731386
 40
0.7667033989963381
 40
0.7710741241402677
 40
0.7754208046754316
 40
0.7797411362193367
 40
0.7840327930262077
 40
0.7882934329245129
 40
0.7925207022950076
 40
0.7967122411449125
 40
0.8008656883383889
 40
0.8049786870490381
 40
0.8090488905069428
 40
0.813073968120973
 40
0.8170516120669444
 40
0.8209795444440027
 40
0.8248555251156446
 40
0.8286773603684219
 40
0.8324429125409971
 40
0.8361501107992957
 40
0.8397969632604224
 40
0.8433816762997887
 40
0.8469041298433054
 40
0.8571093353827506
 40
0.8636225610316985
 40
0.8699143296554033
 40
0.8759938074953787
 40
0.8818701280054024
 40
0.8875523917953801
 40
0.893049665162577
 40
0.9009684574185328
 40
0.908521612405097
 40
0.9180755377463377
 40
0.9248916106506065
 40
0.9314404826737568
 40
0.935671970655968
 40
0.9398054978027408
 40
0.9438490633157564
 40
0.9478104485251977
 40
0.9516971901514474
 40
0.9555165538068284
 40
0.9592755084598558
 40
0.9629807025803043
 40
0.966638442638464
 40
0.9702546745486433
 40
0.9738349685315979
 40
0.9773845077324663
 40
0.980908080781265
 40
0.9844100783336244
 40
0.9878944934909272
 40
0.9896312477431108
 40
0.9913649258798298
 40
0.9930959175933007
 40
0.9948245890770763
 40
0.9965512834137904
 40
0.9982763209993252
 40
0.9999999999999999
 40
1.001764203389181
 40
1.00351949178347
 40
1.005266095730695
 40
1.0070042441421
 40
1.008734164259201
 40
1.010456081620477
 40
1.012170220027932
 40
1.017268172797307
 40
1.025629541690157
 40
1.032212070662734
 40
1.038713874589678
 40
1.045147285474047
 40
1.051524050084193
 40
1.057855306788723
 40
1.064151566872267
 40
1.070422700698223
 40
1.07667792887127
 40
1.082925818347112
 40
1.088243786159098
 40
1.088243786159098
 40
1.088243786159098
 40
1.088243786159098
 10
-39.55444448708276
 20
-35.14629811776185
 30
0.0
 10
-39.35892261278299
 20
-35.37153268871489
 30
0.0
 10
-38.95408603397329
 20
-35.82849175673787
 30
0.0
 10
-38.32763537747719
 20
-36.50608742801735
 30
0.0
 10
-37.67644360565139
 20
-37.17969026432124
 30
0.0
 10
-37.00987220789793
 20
-37.83835300088671
 30
0.0
 10
-36.32793024163655
 20
-38.48126824954895
 30
0.0
 10
-35.6306660204234
 20
-39.10761254645558
 30
0.0
 10
-34.91816798825809
 20
-39.71654788338974
 30
0.0
 10
-34.19056554294242
 20
-40.30722327167502
 30
0.0
 10
-33.44802980762077
 20
-40.87877633697728
 30
0.0
 10
-32.69077434954919
 20
-41.43033494346761
 30
0.0
 10
-31.91905584523275
 20
-41.96101884574079
 30
0.0
 10
-31.13317469110903
 20
-42.46994136688347
 30
0.0
 10
-30.33347555902239
 20
-42.95621110106583
 30
0.0
 10
-29.52034789577788
 20
-43.41893363902295
 30
0.0
 10
-28.69422636612765
 20
-43.85721331478889
 30
0.0
 10
-27.8555912385906
 20
-44.27015497204036
 30
0.0
 10
-27.00496871356199
 20
-44.65686574842727
 30
0.0
 10
-26.14293119322001
 20
-45.01645687622412
 30
0.0
 10
-25.27009749276753
 20
-45.34804549784472
 30
0.0
 10
-24.38713299265104
 20
-45.65075649406515
 30
0.0
 10
-23.49474973119141
 20
-45.92372432549303
 30
0.0
 10
-22.59370643798198
 20
-46.16609487789481
 30
0.0
 10
-21.68480850509258
 20
-46.37702733916419
 30
0.0
 10
-20.76890790554657
 20
-46.55569599713296
 30
0.0
 10
-19.84690302216427
 20
-46.70129236481296
 30
0.0
 10
-18.91973852293231
 20
-46.81302610821926
 30
0.0
 10
-17.98840477266157
 20
-46.89013046458666
 30
0.0
 10
-17.05393868511034
 20
-46.93185089619205
 30
0.0
 10
-16.11743239655705
 20
-46.93749632231575
 30
0.0
 10
-15.18015710867341
 20
-46.90626266405212
 30
0.0
 10
-14.24354134416066
 20
-46.83864917785395
 30
0.0
 10
-13.30907109552444
 20
-46.73548253820108
 30
0.0
 10
-12.37822691134003
 20
-46.59757457304142
 30
0.0
 10
-11.45243147151485
 20
-46.42580949893228
 30
0.0
 10
-10.53304947781709
 20
-46.22111698781811
 30
0.0
 10
-9.621385604207465
 20
-45.98447621037119
 30
0.0
 10
-8.718683134961232
 20
-45.71691151273959
 30
0.0
 10
-7.826122528498212
 20
-45.41949028123634
 30
0.0
 10
-6.944820113366267
 20
-45.09332016777655
 30
0.0
 10
-6.075826862935524
 20
-44.739546437356
 30
0.0
 10
-5.22012726484347
 20
-44.35934923715214
 30
0.0
 10
-4.37863828244712
 20
-43.9539408445366
 30
0.0
 10
-3.552208410404385
 20
-43.52456288234566
 30
0.0
 10
-2.741616825044869
 20
-43.07248350824288
 30
0.0
 10
-1.94757263042904
 20
-42.59899458009614
 30
0.0
 10
-1.170714200784876
 20
-42.10540880062179
 30
0.0
 10
-0.4116086199239122
 20
-41.59305684420324
 30
0.0
 10
0.329248781873173
 20
-41.06328446889052
 30
0.0
 10
1.051434793115863
 20
-40.51744961655344
 30
0.0
 10
1.754598588223486
 20
-39.95691950416423
 30
0.0
 10
2.438461896324226
 20
-39.3830677091711
 30
0.0
 10
3.102819071641753
 20
-38.79727125190235
 30
0.0
 10
3.747537065518443
 20
-38.20090767794755
 30
0.0
 10
4.372555300075193
 20
-37.59535214333494
 30
0.0
 10
4.977885444167698
 20
-36.9819745056728
 30
0.0
 10
5.563611090361678
 20
-36.36213642300522
 30
0.0
 10
6.129887339282373
 20
-35.73718846718162
 30
0.0
 10
6.676940270213978
 20
-35.10846723980659
 30
0.0
 10
7.205066378198234
 20
-34.47729254736417
 30
0.0
 10
7.714631687102092
 20
-33.84496444078586
 30
0.0
 10
8.206071605878696
 20
-33.21276084435368
 30
0.0
 10
8.679887632294834
 20
-32.58193313655141
 30
0.0
 10
9.136655132656859
 20
-31.95370932336933
 30
0.0
 10
9.576994570038158
 20
-31.32926363258084
 30
0.0
 10
10.00174803057898
 20
-30.70970211135652
 30
0.0
 10
10.67289535297389
 20
-29.70375091492892
 30
0.0
 10
11.42852551804678
 20
-28.50851997393593
 30
0.0
 10
12.24631788896766
 20
-27.12474493340523
 30
0.0
 10
12.89123738910651
 20
-25.97398326469775
 30
0.0
 10
13.48969277765388
 20
-24.8485466399926
 30
0.0
 10
14.04495924800522
 20
-23.7486863519835
 30
0.0
 10
14.56018632316906
 20
-22.67445173675521
 30
0.0
 10
15.11366421382594
 20
-21.46061452194028
 30
0.0
 10
15.69065913229344
 20
-20.11422169496592
 30
0.0
 10
16.33769250226945
 20
-18.49019314789384
 30
0.0
 10
16.91325990367318
 20
-16.9212268187084
 30
0.0
 10
17.42673010085179
 20
-15.40485116766506
 30
0.0
 10
17.79786596316654
 20
-14.23306568904697
 30
0.0
 10
18.09701677411918
 20
-13.23519841994879
 30
0.0
 10
18.33607579612793
 20
-12.40207242256544
 30
0.0
 10
18.56056870417853
 20
-11.58445382709007
 30
0.0
 10
18.77149161278309
 20
-10.78104011921353
 30
0.0
 10
18.96966848884344
 20
-9.9905235675942
 30
0.0
 10
19.15575465013786
 20
-9.211604237863709
 30
0.0
 10
19.33024122962651
 20
-8.443002713784823
 30
0.0
 10
19.4934604178924
 20
-7.68347236295817
 30
0.0
 10
19.64559148003206
 20
-6.93181112997889
 30
0.0
 10
19.78666750373997
 20
-6.186872813114888
 30
0.0
 10
19.91658283960033
 20
-5.447577787006153
 30
0.0
 10
20.03510118973505
 20
-4.712923133913222
 30
0.0
 10
20.14186428130119
 20
-3.981992148757939
 30
0.0
 10
20.23640080711278
 20
-3.253963203132884
 30
0.0
 10
20.30458133305445
 20
-2.648458675651887
 30
0.0
 10
20.3523719936208
 20
-2.16501520230985
 30
0.0
 10
20.38467454303517
 20
-1.803139052808175
 30
0.0
 10
20.41359862512504
 20
-1.44151630817452
 30
0.0
 10
20.43822282170893
 20
-1.080157273692326
 30
0.0
 10
20.46150102590344
 20
-0.7187964462561368
 30
0.0
 10
20.47192833973114
 20
-0.3582333826849772
 30
0.0
 10
20.51219339086565
 20
0.0075836111584546
 30
0.0
 10
20.42029432475401
 20
0.3662823039513299
 30
0.0
 10
20.35820434111979
 20
0.7279984885783033
 30
0.0
 10
20.28260513608908
 20
1.086406254392749
 30
0.0
 10
20.205316122332
 20
1.442283779350771
 30
0.0
 10
20.12325930772283
 20
1.795424152565356
 30
0.0
 10
20.03731679714827
 20
2.145882859811089
 30
0.0
 10
19.88796201450562
 20
2.722982176226398
 30
0.0
 10
19.5966981500653
 20
3.742230412521514
 30
0.0
 10
19.14472231439007
 20
5.067911953173025
 30
0.0
 10
18.58141924284
 20
6.45645516331668
 30
0.0
 10
18.00556092124066
 20
7.692654390174528
 30
0.0
 10
17.37439951346915
 20
8.885317521363406
 30
0.0
 10
16.68916857798709
 20
10.03391251090647
 30
0.0
 10
15.95088126104109
 20
11.13764538304784
 30
0.0
 10
15.16039276159223
 20
12.19542817639427
 30
0.0
 10
14.31846686368014
 20
13.20585822322711
 30
0.0
 10
13.42584347293279
 20
14.16720628025421
 30
0.0
 10
12.53007751278995
 20
15.03224775780942
 30
0.0
 10
11.92077852407644
 20
15.56307828686372
 30
0.0
 10
11.63495081141297
 20
15.80032144859455
 30
0.0
  0
SPLINE
  5
64
330
1F
100
AcDbEntity
  8
0
  6
Continuous
 62
     7
370
    25
100
AcDbSpline
210
0.0
220
0.0
230
1.0
 70
     8
 71
     3
 72
    11
 73
     7
 74
     0
 42
0.00000001
 43
0.00000001
 40
0.0
 40
0.0
 40
0.0
 40
0.0
 40
0.3092510145834399
 40
0.5822433780704357
 40
0.8200167296915148
 40
1.0
 40
1.0
 40
1.0
 40
1.0
 10
11.63495081141297
 20
15.80032144859454
 30
0.0
 10
0.0280559042533952
 20
25.43429437582475
 30
0.0
 10
-17.41402071166369
 20
27.24895502121506
 30
0.0
 10
-35.8950466580405
 20
4.242354750206748
 30
0.0
 10
-43.98542746429268
 20
-15.8283755060338
 30
0.0
 10
-43.78451085848072
 20
-30.27340505821637
 30
0.0
 10
-39.55444448708275
 20
-35.14629811776185
 30
0.0
  0
CIRCLE
  5
65
330
1F
100
AcDbEntity
  8
0
  6
Continuous
 62
     7
370
    25
100
AcDbCircle
 10
0.0
 20
0.0
 30
0.0
 40
3.075
  0
MTEXT
  5
67
330
1F
100
AcDbEntity
  8
0
  6
Continuous
 62
     7
100
AcDbMText
 10
-43.4434338687
 20
-47.9383917298
 30
0.0
 40
4.83362
 41
0.0
 71
     1
 72
     1
  1
SOLIDWORKS Educational Product.
  7
SLDTEXTSTYLE0
 73
     1
 44
1.0
  0
MTEXT
  5
68
330
1F
100
AcDbEntity
  8
0
  6
Continuous
 62
     7
100
AcDbMText
 10
-43.4434338687
 20
-55.1888217298
 30
0.0
 40
4.83362
 41
0.0
 71
     1
 72
     1
  1
For Instructional Use Only.
  7
SLDTEXTSTYLE0
 73
     1
 44
1.0
  0
ENDSEC
  0
SECTION
  2
OBJECTS
  0
DICTIONARY
  5
C
330
0
100
AcDbDictionary
281
     1
  3
ACAD_GROUP
350
D
  3
ACAD_LAYOUT
350
1A
  3
ACAD_MLINESTYLE
350
17
  3
ACAD_PLOTSETTINGS
350
19
  3
ACAD_PLOTSTYLENAME
350
E
  3
ACAD_SCALELIST
350
47
  3
DWGPROPS
350
69
  0
DICTIONARY
  5
D
102
{ACAD_REACTORS
330
C
102
}
330
C
100
AcDbDictionary
281
     1
  0
DICTIONARY
  5
1A
102
{ACAD_REACTORS
330
C
102
}
330
C
100
AcDbDictionary
281
     1
  3
Layout1
350
1E
  3
Layout2
350
26
  3
Model
350
22
  0
DICTIONARY
  5
17
102
{ACAD_REACTORS
330
C
102
}
330
C
100
AcDbDictionary
281
     1
  3
Standard
350
18
  0
DICTIONARY
  5
19
102
{ACAD_REACTORS
330
C
102
}
330
C
100
AcDbDictionary
281
     1
  0
ACDBDICTIONARYWDFLT
  5
E
102
{ACAD_REACTORS
330
C
102
}
330
C
100
AcDbDictionary
281
     1
  3
Normal
350
F
100
AcDbDictionaryWithDefault
340
F
  0
DICTIONARY
  5
47
102
{ACAD_REACTORS
330
C
102
}
330
C
100
AcDbDictionary
281
     1
  3
A0
350
48
  3
A1
350
49
  3
A2
350
4A
  3
A3
350
4B
  3
A4
350
4C
  3
A5
350
4D
  3
A6
350
4E
  3
A7
350
4F
  3
A8
350
50
  3
A9
350
51
  3
B0
350
52
  3
B1
350
53
  3
B2
350
54
  3
B3
350
55
  3
B4
350
56
  3
B5
350
57
  3
B6
350
58
  0
XRECORD
  5
69
102
{ACAD_REACTORS
330
C
102
}
330
C
100
AcDbXrecord
280
     1
  1
DWGPROPS COOKIE
  2

  3

  4

  6

  7

  8
Stephan
  9

300
=
301
=
302
=
303
=
304
=
305
=
306
=
307
=
308
=
309
=
 40
0.0
 41
2460160.595462431
 42
2460160.595499317
  1

 90
        0
  0
LAYOUT
  5
1E
102
{ACAD_REACTORS
330
1A
102
}
330
1A
100
AcDbPlotSettings
  1

  2
none_device
  4

  6

 40
0.0
 41
0.0
 42
0.0
 43
0.0
 44
0.0
 45
0.0
 46
0.0
 47
0.0
 48
0.0
 49
0.0
140
0.0
141
0.0
142
1.0
143
1.0
 70
   688
 72
     1
 73
     0
 74
     5
  7

 75
    16
147
1.0
148
0.0
149
0.0
100
AcDbLayout
  1
Layout1
 70
     1
 71
     1
 10
0.0
 20
0.0
 11
420.0
 21
297.0
 12
0.0
 22
0.0
 32
0.0
 14
1.0000000000E+20
 24
1.0000000000E+20
 34
1.0000000000E+20
 15
-1.0000000000E+20
 25
-1.0000000000E+20
 35
-1.0000000000E+20
146
0.0
 13
0.0
 23
0.0
 33
0.0
 16
1.0
 26
0.0
 36
0.0
 17
0.0
 27
1.0
 37
0.0
 76
     0
330
1B
  0
LAYOUT
  5
26
102
{ACAD_REACTORS
330
1A
102
}
330
1A
100
AcDbPlotSettings
  1

  2
none_device
  4

  6

 40
0.0
 41
0.0
 42
0.0
 43
0.0
 44
0.0
 45
0.0
 46
0.0
 47
0.0
 48
0.0
 49
0.0
140
0.0
141
0.0
142
1.0
143
1.0
 70
   688
 72
     1
 73
     0
 74
     5
  7

 75
    16
147
1.0
148
0.0
149
0.0
100
AcDbLayout
  1
Layout2
 70
     1
 71
     2
 10
0.0
 20
0.0
 11
0.0
 21
0.0
 12
0.0
 22
0.0
 32
0.0
 14
0.0
 24
0.0
 34
0.0
 15
0.0
 25
0.0
 35
0.0
146
0.0
 13
0.0
 23
0.0
 33
0.0
 16
1.0
 26
0.0
 36
0.0
 17
0.0
 27
1.0
 37
0.0
 76
     0
330
23
  0
LAYOUT
  5
22
102
{ACAD_REACTORS
330
1A
102
}
330
1A
100
AcDbPlotSettings
  1

  2
none_device
  4
ANSI_A_(11.00_x_8.50_Inches)
  6

 40
6.35
 41
19.05
 42
6.35000508
 43
19.05000254
 44
279.4
 45
215.9
 46
167.7016821992
 47
122.342593885
 48
0.0
 49
0.0
140
0.0
141
0.0
142
0.1177381907
143
1.0
 70
  1696
 72
     0
 73
     0
 74
     0
  7

 75
     0
147
0.0179189148
148
-1300.4909072572
149
0.0
100
AcDbLayout
  1
Model
 70
     1
 71
     0
 10
0.0
 20
0.0
 11
420.0
 21
297.0
 12
0.0
 22
0.0
 32
0.0
 14
-43.4434338687
 24
-46.9188253381
 34
0.0
 15
20.4699445509
 25
24.553310855
 35
0.0
146
0.0
 13
0.0
 23
0.0
 33
0.0
 16
1.0
 26
0.0
 36
0.0
 17
0.0
 27
1.0
 37
0.0
 76
     0
330
1F
331
29
  0
MLINESTYLE
  5
18
102
{ACAD_REACTORS
330
17
102
}
330
17
100
AcDbMlineStyle
  2
Standard
 70
     0
  3

 62
   256
 51
90.0
 52
90.0
 71
     2
 49
0.5
 62
   256
  6
BYLAYER
 49
-0.5
 62
   256
  6
BYLAYER
  0
ACDBPLACEHOLDER
  5
F
102
{ACAD_REACTORS
330
E
102
}
330
E
  0
SCALE
  5
48
102
{ACAD_REACTORS
330
47
102
}
330
47
100
AcDbScale
 70
     0
300
1:1
140
1.0
141
1.0
290
     1
  0
SCALE
  5
49
102
{ACAD_REACTORS
330
47
102
}
330
47
100
AcDbScale
 70
     0
300
1:2
140
1.0
141
2.0
290
     0
  0
SCALE
  5
4A
102
{ACAD_REACTORS
330
47
102
}
330
47
100
AcDbScale
 70
     0
300
1:4
140
1.0
141
4.0
290
     0
  0
SCALE
  5
4B
102
{ACAD_REACTORS
330
47
102
}
330
47
100
AcDbScale
 70
     0
300
1:5
140
1.0
141
5.0
290
     0
  0
SCALE
  5
4C
102
{ACAD_REACTORS
330
47
102
}
330
47
100
AcDbScale
 70
     0
300
1:8
140
1.0
141
8.0
290
     0
  0
SCALE
  5
4D
102
{ACAD_REACTORS
330
47
102
}
330
47
100
AcDbScale
 70
     0
300
1:10
140
1.0
141
10.0
290
     0
  0
SCALE
  5
4E
102
{ACAD_REACTORS
330
47
102
}
330
47
100
AcDbScale
 70
     0
300
1:16
140
1.0
141
16.0
290
     0
  0
SCALE
  5
4F
102
{ACAD_REACTORS
330
47
102
}
330
47
100
AcDbScale
 70
     0
300
1:20
140
1.0
141
20.0
290
     0
  0
SCALE
  5
50
102
{ACAD_REACTORS
330
47
102
}
330
47
100
AcDbScale
 70
     0
300
1:30
140
1.0
141
30.0
290
     0
  0
SCALE
  5
51
102
{ACAD_REACTORS
330
47
102
}
330
47
100
AcDbScale
 70
     0
300
1:40
140
1.0
141
40.0
290
     0
  0
SCALE
  5
52
102
{ACAD_REACTORS
330
47
102
}
330
47
100
AcDbScale
 70
     0
300
1:50
140
1.0
141
50.0
290
     0
  0
SCALE
  5
53
102
{ACAD_REACTORS
330
47
102
}
330
47
100
AcDbScale
 70
     0
300
1:100
140
1.0
141
100.0
290
     0
  0
SCALE
  5
54
102
{ACAD_REACTORS
330
47
102
}
330
47
100
AcDbScale
 70
     0
300
2:1
140
2.0
141
1.0
290
     0
  0
SCALE
  5
55
102
{ACAD_REACTORS
330
47
102
}
330
47
100
AcDbScale
 70
     0
300
4:1
140
4.0
141
1.0
290
     0
  0
SCALE
  5
56
102
{ACAD_REACTORS
330
47
102
}
330
47
100
AcDbScale
 70
     0
300
8:1
140
8.0
141
1.0
290
     0
  0
SCALE
  5
57
102
{ACAD_REACTORS
330
47
102
}
330
47
100
AcDbScale
 70
     0
300
10:1
140
10.0
141
1.0
290
     0
  0
SCALE
  5
58
102
{ACAD_REACTORS
330
47
102
}
330
47
100
AcDbScale
 70
     0
300
100:1
140
100.0
141
1.0
290
     0
  0
ENDSEC
  0
EOF
