  0
SECTION
  2
HEADER
  9
$ACADVER
  1
AC1015
  9
$ACADMAINTVER
 70
     6
  9
$DWGCODEPAGE
  3
ANSI_1252
  9
$INSBASE
 10
0.0
 20
0.0
 30
0.0
  9
$EXTMIN
 10
-50.1409242314
 20
-46.9422857415
 30
0.0
  9
$EXTMAX
 10
19.7168374721
 20
22.8831478485
 30
0.0
  9
$LIMMIN
 10
0.0
 20
0.0
  9
$LIMMAX
 10
420.0
 20
297.0
  9
$ORTHOMODE
 70
     0
  9
$REGENMODE
 70
     1
  9
$FILLMODE
 70
     1
  9
$QTEXTMODE
 70
     0
  9
$MIRRTEXT
 70
     1
  9
$LTSCALE
 40
1.0
  9
$ATTMODE
 70
     1
  9
$TEXTSIZE
 40
3.5
  9
$TRACEWID
 40
1.0
  9
$TEXTSTYLE
  7
Standard
  9
$CLAYER
  8
0
  9
$CELTYPE
  6
ByLayer
  9
$CECOLOR
 62
   256
  9
$CELTSCALE
 40
1.0
  9
$DISPSILH
 70
     0
  9
$DIMSCALE
 40
1.0
  9
$DIMASZ
 40
3.302
  9
$DIMEXO
 40
0.0
  9
$DIMDLI
 40
3.75
  9
$DIMRND
 40
0.0
  9
$DIMDLE
 40
0.0
  9
$DIMEXE
 40
1.0
  9
$DIMTP
 40
0.0
  9
$DIMTM
 40
0.0
  9
$DIMTXT
 40
3.5
  9
$DIMCEN
 40
2.5
  9
$DIMTSZ
 40
0.0
  9
$DIMTOL
 70
     0
  9
$DIMLIM
 70
     0
  9
$DIMTIH
 70
     1
  9
$DIMTOH
 70
     1
  9
$DIMSE1
 70
     0
  9
$DIMSE2
 70
     0
  9
$DIMTAD
 70
     1
  9
$DIMZIN
 70
     1
  9
$DIMBLK
  1

  9
$DIMASO
 70
     1
  9
$DIMSHO
 70
     1
  9
$DIMPOST
  1

  9
$DIMAPOST
  1

  9
$DIMALT
 70
     0
  9
$DIMALTD
 70
     3
  9
$DIMALTF
 40
0.0393700787
  9
$DIMLFAC
 40
1.0
  9
$DIMTOFL
 70
     1
  9
$DIMTVP
 40
0.0
  9
$DIMTIX
 70
     0
  9
$DIMSOXD
 70
     0
  9
$DIMSAH
 70
     0
  9
$DIMBLK1
  1

  9
$DIMBLK2
  1

  9
$DIMSTYLE
  2
ISO-25
  9
$DIMCLRD
 70
     0
  9
$DIMCLRE
 70
     0
  9
$DIMCLRT
 70
     0
  9
$DIMTFAC
 40
1.0
  9
$DIMGAP
 40
1.524
  9
$DIMJUST
 70
     0
  9
$DIMSD1
 70
     0
  9
$DIMSD2
 70
     0
  9
$DIMTOLJ
 70
     0
  9
$DIMTZIN
 70
     1
  9
$DIMALTZ
 70
     0
  9
$DIMALTTZ
 70
     0
  9
$DIMUPT
 70
     0
  9
$DIMDEC
 70
     2
  9
$DIMTDEC
 70
     2
  9
$DIMALTU
 70
     2
  9
$DIMALTTD
 70
     3
  9
$DIMTXSTY
  7
Standard
  9
$DIMAUNIT
 70
     0
  9
$DIMADEC
 70
     2
  9
$DIMALTRND
 40
0.0
  9
$DIMAZIN
 70
     0
  9
$DIMDSEP
 70
    44
  9
$DIMATFIT
 70
     3
  9
$DIMFRAC
 70
     0
  9
$DIMLDRBLK
  1

  9
$DIMLUNIT
 70
     2
  9
$DIMLWD
 70
    -2
  9
$DIMLWE
 70
    -2
  9
$DIMTMOVE
 70
     0
  9
$LUNITS
 70
     2
  9
$LUPREC
 70
     6
  9
$SKETCHINC
 40
1.0
  9
$FILLETRAD
 40
0.0
  9
$AUNITS
 70
     0
  9
$AUPREC
 70
     2
  9
$MENU
  1
.
  9
$ELEVATION
 40
0.0
  9
$PELEVATION
 40
0.0
  9
$THICKNESS
 40
0.0
  9
$LIMCHECK
 70
     0
  9
$CHAMFERA
 40
0.0
  9
$CHAMFERB
 40
0.0
  9
$CHAMFERC
 40
0.0
  9
$CHAMFERD
 40
0.0
  9
$SKPOLY
 70
     0
  9
$TDCREATE
 40
2460166.682337222
  9
$TDUCREATE
 40
2460166.849003889
  9
$TDUPDATE
 40
2460166.682377546
  9
$TDUUPDATE
 40
2460166.849044213
  9
$TDINDWG
 40
0.0000000116
  9
$TDUSRTIMER
 40
0.0000000116
  9
$USRTIMER
 70
     1
  9
$ANGBASE
 50
0.0
  9
$ANGDIR
 70
     0
  9
$PDMODE
 70
     0
  9
$PDSIZE
 40
-1.0
  9
$PLINEWID
 40
0.0
  9
$SPLFRAME
 70
     0
  9
$SPLINETYPE
 70
     6
  9
$SPLINESEGS
 70
     8
  9
$HANDSEED
  5
6A
  9
$SURFTAB1
 70
     6
  9
$SURFTAB2
 70
     6
  9
$SURFTYPE
 70
     6
  9
$SURFU
 70
     6
  9
$SURFV
 70
     6
  9
$UCSBASE
  2

  9
$UCSNAME
  2

  9
$UCSORG
 10
0.0
 20
0.0
 30
0.0
  9
$UCSXDIR
 10
1.0
 20
0.0
 30
0.0
  9
$UCSYDIR
 10
0.0
 20
1.0
 30
0.0
  9
$UCSORTHOREF
  2

  9
$UCSORTHOVIEW
 70
     0
  9
$UCSORGTOP
 10
0.0
 20
0.0
 30
0.0
  9
$UCSORGBOTTOM
 10
0.0
 20
0.0
 30
0.0
  9
$UCSORGLEFT
 10
0.0
 20
0.0
 30
0.0
  9
$UCSORGRIGHT
 10
0.0
 20
0.0
 30
0.0
  9
$UCSORGFRONT
 10
0.0
 20
0.0
 30
0.0
  9
$UCSORGBACK
 10
0.0
 20
0.0
 30
0.0
  9
$PUCSBASE
  2

  9
$PUCSNAME
  2

  9
$PUCSORG
 10
0.0
 20
0.0
 30
0.0
  9
$PUCSXDIR
 10
1.0
 20
0.0
 30
0.0
  9
$PUCSYDIR
 10
0.0
 20
1.0
 30
0.0
  9
$PUCSORTHOREF
  2

  9
$PUCSORTHOVIEW
 70
     0
  9
$PUCSORGTOP
 10
0.0
 20
0.0
 30
0.0
  9
$PUCSORGBOTTOM
 10
0.0
 20
0.0
 30
0.0
  9
$PUCSORGLEFT
 10
0.0
 20
0.0
 30
0.0
  9
$PUCSORGRIGHT
 10
0.0
 20
0.0
 30
0.0
  9
$PUCSORGFRONT
 10
0.0
 20
0.0
 30
0.0
  9
$PUCSORGBACK
 10
0.0
 20
0.0
 30
0.0
  9
$USERI1
 70
     0
  9
$USERI2
 70
     0
  9
$USERI3
 70
     0
  9
$USERI4
 70
     0
  9
$USERI5
 70
     0
  9
$USERR1
 40
0.0
  9
$USERR2
 40
0.0
  9
$USERR3
 40
0.0
  9
$USERR4
 40
0.0
  9
$USERR5
 40
0.0
  9
$WORLDVIEW
 70
     1
  9
$SHADEDGE
 70
     3
  9
$SHADEDIF
 70
    70
  9
$TILEMODE
 70
     1
  9
$MAXACTVP
 70
    64
  9
$PINSBASE
 10
0.0
 20
0.0
 30
0.0
  9
$PLIMCHECK
 70
     0
  9
$PEXTMIN
 10
1.0000000000E+20
 20
1.0000000000E+20
 30
1.0000000000E+20
  9
$PEXTMAX
 10
-1.0000000000E+20
 20
-1.0000000000E+20
 30
-1.0000000000E+20
  9
$PLIMMIN
 10
0.0
 20
0.0
  9
$PLIMMAX
 10
420.0
 20
297.0
  9
$UNITMODE
 70
     0
  9
$VISRETAIN
 70
     1
  9
$PLINEGEN
 70
     0
  9
$PSLTSCALE
 70
     1
  9
$TREEDEPTH
 70
  3020
  9
$CMLSTYLE
  2
Standard
  9
$CMLJUST
 70
     0
  9
$CMLSCALE
 40
20.0
  9
$PROXYGRAPHICS
 70
     1
  9
$MEASUREMENT
 70
     1
  9
$CELWEIGHT
370
    -1
  9
$ENDCAPS
280
     0
  9
$JOINSTYLE
280
     0
  9
$LWDISPLAY
290
     1
  9
$INSUNITS
 70
     4
  9
$HYPERLINKBASE
  1

  9
$STYLESHEET
  1

  9
$XEDIT
290
     1
  9
$CEPSNTYPE
380
     0
  9
$PSTYLEMODE
290
     1
  9
$FINGERPRINTGUID
  2
{329071cc-0089-4198-954f-52b6da01040d}
  9
$VERSIONGUID
  2
{FAEB1C32-E019-11D5-929B-00C0DF256EC4}
  9
$EXTNAMES
290
     1
  9
$PSVPSCALE
 40
0.0
  9
$OLESTARTUP
290
     0
  0
ENDSEC
  0
SECTION
  2
CLASSES
  0
CLASS
  1
ACDBDICTIONARYWDFLT
  2
AcDbDictionaryWithDefault
  3
ObjectDBX Classes
 90
        0
280
     0
281
     0
  0
CLASS
  1
VISUALSTYLE
  2
AcDbVisualStyle
  3
ObjectDBX Classes
 90
     4095
280
     0
281
     0
  0
CLASS
  1
MATERIAL
  2
AcDbMaterial
  3
ObjectDBX Classes
 90
     1153
280
     0
281
     0
  0
CLASS
  1
SCALE
  2
AcDbScale
  3
ObjectDBX Classes
 90
     1153
280
     0
281
     0
  0
CLASS
  1
TABLESTYLE
  2
AcDbTableStyle
  3
ObjectDBX Classes
 90
     4095
280
     0
281
     0
  0
CLASS
  1
MLEADERSTYLE
  2
AcDbMLeaderStyle
  3
ACDB_MLEADERSTYLE_CLASS
 90
     4095
280
     0
281
     0
  0
CLASS
  1
SUN
  2
AcDbSun
  3
SCENEOE
 90
     1153
280
     0
281
     0
  0
CLASS
  1
ACDBPLACEHOLDER
  2
AcDbPlaceHolder
  3
ObjectDBX Classes
 90
        0
280
     0
281
     0
  0
CLASS
  1
LAYOUT
  2
AcDbLayout
  3
ObjectDBX Classes
 90
        0
280
     0
281
     0
  0
ENDSEC
  0
SECTION
  2
TABLES
  0
TABLE
  2
VPORT
  5
8
330
0
100
AcDbSymbolTable
 70
     1
  0
VPORT
  5
29
330
8
100
AcDbSymbolTableRecord
100
AcDbViewportTableRecord
  2
*Active
 70
     0
 10
0.0
 20
0.0
 11
1.0
 21
1.0
 12
-15.2120433797
 22
-12.0295689465
 13
0.0
 23
0.0
 14
10.0
 24
10.0
 15
10.0
 25
10.0
 16
0.0
 26
0.0
 36
1.0
 17
0.0
 27
0.0
 37
0.0
 40
71.2219422617
 41
1.0004629848
 42
50.0
 43
0.0
 44
0.0
 50
0.0
 51
0.0
 71
     0
 72
   100
 73
     1
 74
     3
 75
     0
 76
     0
 77
     0
 78
     0
281
     0
 65
     1
110
0.0
120
0.0
130
0.0
111
1.0
121
0.0
131
0.0
112
0.0
122
1.0
132
0.0
 79
     0
146
0.0
  0
ENDTAB
  0
TABLE
  2
LTYPE
  5
5
330
0
100
AcDbSymbolTable
 70
     6
  0
LTYPE
  5
14
330
5
100
AcDbSymbolTableRecord
100
AcDbLinetypeTableRecord
  2
ByBlock
 70
     0
  3

 72
    65
 73
     0
 40
0.0
  0
LTYPE
  5
15
330
5
100
AcDbSymbolTableRecord
100
AcDbLinetypeTableRecord
  2
ByLayer
 70
     0
  3

 72
    65
 73
     0
 40
0.0
  0
LTYPE
  5
16
330
5
100
AcDbSymbolTableRecord
100
AcDbLinetypeTableRecord
  2
Continuous
 70
     0
  3
Solid line
 72
    65
 73
     0
 40
0.0
  0
LTYPE
  5
5E
330
5
100
AcDbSymbolTableRecord
100
AcDbLinetypeTableRecord
  2
HIDDEN
 70
     0
  3
Hidden __ __ __ __ __ __ __ __ __ __ __ __ __ __
 72
    65
 73
     2
 40
1.905
 49
1.27
 74
     0
 49
-0.635
 74
     0
  0
LTYPE
  5
5F
330
5
100
AcDbSymbolTableRecord
100
AcDbLinetypeTableRecord
  2
PHANTOM
 70
     0
  3
Phantom ______  __  __  ______  __  __  ______
 72
    65
 73
     6
 40
12.7
 49
6.35
 74
     0
 49
-1.27
 74
     0
 49
1.27
 74
     0
 49
-1.27
 74
     0
 49
1.27
 74
     0
 49
-1.27
 74
     0
  0
LTYPE
  5
60
330
5
100
AcDbSymbolTableRecord
100
AcDbLinetypeTableRecord
  2
CENTER
 70
     0
  3
Center ____ _ ____ _ ____ _ ____ _ ____ _ ____
 72
    65
 73
     4
 40
10.16
 49
6.35
 74
     0
 49
-1.27
 74
     0
 49
1.27
 74
     0
 49
-1.27
 74
     0
  0
LTYPE
  5
61
330
5
100
AcDbSymbolTableRecord
100
AcDbLinetypeTableRecord
  2
CENTERX2
 70
     0
  3
Center (2x) ________  __  ________  __  _____
 72
    65
 73
     4
 40
20.32
 49
12.7
 74
     0
 49
-2.54
 74
     0
 49
2.54
 74
     0
 49
-2.54
 74
     0
  0
LTYPE
  5
62
330
5
100
AcDbSymbolTableRecord
100
AcDbLinetypeTableRecord
  2
DOT2
 70
     0
  3
Dot (.5x) ........................................
 72
    65
 73
     2
 40
0.635
 49
0.0
 74
     0
 49
-0.635
 74
     0
  0
ENDTAB
  0
TABLE
  2
LAYER
  5
2
330
0
100
AcDbSymbolTable
 70
     1
  0
LAYER
  5
10
330
2
100
AcDbSymbolTableRecord
100
AcDbLayerTableRecord
  2
0
 70
     0
 62
     7
  6
Continuous
370
    -3
390
F
  0
ENDTAB
  0
TABLE
  2
STYLE
  5
3
330
0
100
AcDbSymbolTable
 70
     2
  0
STYLE
  5
11
330
3
100
AcDbSymbolTableRecord
100
AcDbTextStyleTableRecord
  2
Standard
 70
     0
 40
0.0
 41
1.0
 50
0.0
 71
     0
 42
3.5
  3
txt
  4

  0
STYLE
  5
66
330
3
100
AcDbSymbolTableRecord
100
AcDbTextStyleTableRecord
  2
SLDTEXTSTYLE0
 70
     0
 40
0.0
 41
0.7
 50
0.0
 71
     0
 42
3.5
  3
TXT
  4

  0
ENDTAB
  0
TABLE
  2
VIEW
  5
6
330
0
100
AcDbSymbolTable
 70
     0
  0
ENDTAB
  0
TABLE
  2
UCS
  5
7
330
0
100
AcDbSymbolTable
 70
     0
  0
ENDTAB
  0
TABLE
  2
APPID
  5
9
330
0
100
AcDbSymbolTable
 70
     1
  0
APPID
  5
12
330
9
100
AcDbSymbolTableRecord
100
AcDbRegAppTableRecord
  2
ACAD
 70
     0
  0
ENDTAB
  0
TABLE
  2
DIMSTYLE
  5
A
330
0
100
AcDbSymbolTable
 70
     1
100
AcDbDimStyleTable
  0
DIMSTYLE
105
27
330
A
100
AcDbSymbolTableRecord
100
AcDbDimStyleTableRecord
  2
ISO-25
 70
     0
 41
2.5
 42
0.625
 43
3.75
 44
1.25
 73
     0
 74
     0
 77
     1
 78
     8
140
2.5
141
2.5
143
0.0393700787
147
0.625
171
     3
172
     1
178
     0
271
     2
272
     2
274
     3
278
    44
283
     0
284
     8
340
11
  0
ENDTAB
  0
TABLE
  2
BLOCK_RECORD
  5
1
330
0
100
AcDbSymbolTable
 70
     1
  0
BLOCK_RECORD
  5
1F
330
1
100
AcDbSymbolTableRecord
100
AcDbBlockTableRecord
  2
*Model_Space
340
22
  0
BLOCK_RECORD
  5
1B
330
1
100
AcDbSymbolTableRecord
100
AcDbBlockTableRecord
  2
*Paper_Space
340
1E
  0
BLOCK_RECORD
  5
23
330
1
100
AcDbSymbolTableRecord
100
AcDbBlockTableRecord
  2
*Paper_Space0
340
26
  0
ENDTAB
  0
ENDSEC
  0
SECTION
  2
BLOCKS
  0
BLOCK
  5
20
330
1F
100
AcDbEntity
  8
0
100
AcDbBlockBegin
  2
*Model_Space
 70
     0
 10
0.0
 20
0.0
 30
0.0
  3
*Model_Space
  1

  0
ENDBLK
  5
21
330
1F
100
AcDbEntity
  8
0
100
AcDbBlockEnd
  0
BLOCK
  5
1C
330
1B
100
AcDbEntity
 67
     1
  8
0
100
AcDbBlockBegin
  2
*Paper_Space
 70
     0
 10
0.0
 20
0.0
 30
0.0
  3
*Paper_Space
  1

  0
ENDBLK
  5
1D
330
1B
100
AcDbEntity
 67
     1
  8
0
100
AcDbBlockEnd
  0
BLOCK
  5
24
330
23
100
AcDbEntity
  8
0
100
AcDbBlockBegin
  2
*Paper_Space0
 70
     0
 10
0.0
 20
0.0
 30
0.0
  3
*Paper_Space0
  1

  0
ENDBLK
  5
25
330
23
100
AcDbEntity
  8
0
100
AcDbBlockEnd
  0
ENDSEC
  0
SECTION
  2
ENTITIES
  0
SPLINE
  5
63
330
1F
100
AcDbEntity
  8
0
  6
Continuous
 62
     7
370
    25
100
AcDbSpline
210
0.0
220
0.0
230
1.0
 70
     8
 71
     3
 72
   144
 73
   140
 74
     0
 42
0.00000001
 43
0.00000001
 40
0.4836750468733436
 40
0.4836750468733436
 40
0.4836750468733436
 40
0.4836750468733436
 40
0.4857274796747402
 40
0.4901626925705742
 40
0.4945961208506264
 40
0.4990291255423214
 40
0.5034627297719656
 40
0.5078976741696706
 40
0.512334472379887
 40
0.5167734664415913
 40
0.5212148819021092
 40
0.5256588826041839
 40
0.530105625137013
 40
0.5345553129689502
 40
0.5390081529168462
 40
0.547922899701876
 40
0.5523844166391008
 40
0.5568483792633641
 40
0.5613145147090369
 40
0.5657825275671263
 40
0.5702521046689172
 40
0.5747229198772604
 40
0.5791946388948864
 40
0.583666924099619
 40
0.5881394394166907
 40
0.5926118552385361
 40
0.5970838534024323
 40
0.6015551322362055
 40
0.6060254116818639
 40
0.6104944385064853
 40
0.6149619916089313
 40
0.6194278874299953
 40
0.6238919854723546
 40
0.6283541939352131
 40
0.6328144754667266
 40
0.6372728530351947
 40
0.641729415917556
 40
0.646184325800905
 40
0.6506378229895532
 40
0.655090232706571
 40
0.6595419714747576
 40
0.6639935535576157
 40
0.6684455974361723
 40
0.6728988322924251
 40
0.6773541044648734
 40
0.6818123838360999
 40
0.6862747701068066
 40
0.6907424989052386
 40
0.695216754459362
 40
0.6996973249744142
 40
0.7041832126820166
 40
0.7086732736591546
 40
0.7131662319307996
 40
0.7176606897638573
 40
0.7221551373438372
 40
0.7266479618623288
 40
0.7311374560475377
 40
0.7356218261731814
 40
0.740099199583222
 40
0.7445676317714178
 40
0.7490251130556937
 40
0.7534695748880481
 40
0.7578988958412247
 40
0.76231090731386
 40
0.7667033989963381
 40
0.7710741241402677
 40
0.7754208046754316
 40
0.7797411362193367
 40
0.7840327930262077
 40
0.7882934329245129
 40
0.7925207022950076
 40
0.7967122411449125
 40
0.8008656883383889
 40
0.8049786870490381
 40
0.8090488905069428
 40
0.813073968120973
 40
0.8170516120669444
 40
0.8209795444440027
 40
0.8248555251156446
 40
0.8286773603684219
 40
0.8324429125409971
 40
0.8361501107992957
 40
0.8397969632604224
 40
0.8433816762997887
 40
0.8469041298433054
 40
0.8571093353827506
 40
0.8636225610316985
 40
0.8699143296554033
 40
0.8759938074953787
 40
0.8818701280054024
 40
0.8875523917953801
 40
0.893049665162577
 40
0.9009684574185328
 40
0.908521612405097
 40
0.9180755377463377
 40
0.9248916106506065
 40
0.9314404826737568
 40
0.9377504745891965
 40
0.9418380340111925
 40
0.9458395513669126
 40
0.9497626890256294
 40
0.9536148514229044
 40
0.9574031589525807
 40
0.9611344231835144
 40
0.9648151241019296
 40
0.9684513900155963
 40
0.9720489806556872
 40
0.9756132738841025
 40
0.9791492562687761
 40
0.9844100783336244
 40
0.986154249584476
 40
0.9878944934909272
 40
0.9896312477431108
 40
0.9913649258798298
 40
0.9930959175933007
 40
0.9948245890770763
 40
0.9965512834137904
 40
0.9982763209993252
 40
0.9999999999999999
 40
1.001764203389181
 40
1.00351949178347
 40
1.005266095730695
 40
1.0070042441421
 40
1.008734164259201
 40
1.010456081620477
 40
1.012170220027932
 40
1.017268172797307
 40
1.025629541690157
 40
1.032212070662734
 40
1.038713874589678
 40
1.045147285474047
 40
1.051524050084193
 40
1.057855306788723
 40
1.064151566872267
 40
1.070422700698223
 40
1.07667792887127
 40
1.082925818347112
 40
1.089174283253834
 40
1.094328623663535
 40
1.094328623663535
 40
1.094328623663535
 40
1.094328623663535
 10
-46.72002677330428
 20
-22.20475521937096
 30
0.0
 10
-46.6806896431284
 20
-22.33975621077201
 30
0.0
 10
-46.55233718782232
 20
-22.76532012943351
 30
0.0
 10
-46.31553033464916
 20
-23.47521967962108
 30
0.0
 10
-45.99472439600505
 20
-24.32835430428649
 30
0.0
 10
-45.64374302978934
 20
-25.16938116675584
 30
0.0
 10
-45.26463533299625
 20
-25.99820137613929
 30
0.0
 10
-44.85941440382688
 20
-26.81484074707106
 30
0.0
 10
-44.43005229600454
 20
-27.61944763640585
 30
0.0
 10
-43.97847506697617
 20
-28.41229062259062
 30
0.0
 10
-43.50655784801582
 20
-29.19375611322334
 30
0.0
 10
-43.01612021343737
 20
-29.96434554310965
 30
0.0
 10
-42.50892083103766
 20
-30.72467340819007
 30
0.0
 10
-41.9866590298339
 20
-31.47545599452613
 30
0.0
 10
-41.27217834166804
 20
-32.46517587236649
 30
0.0
 10
-40.53049558270919
 20
-33.43591192570837
 30
0.0
 10
-39.76065444546384
 20
-34.38525513583458
 30
0.0
 10
-39.16871460709488
 20
-35.08623677632465
 30
0.0
 10
-38.56223782967876
 20
-35.77527791102904
 30
0.0
 10
-37.9411016548474
 20
-36.45166169162671
 30
0.0
 10
-37.30521859537973
 20
-37.11465049322713
 30
0.0
 10
-36.65453716895096
 20
-37.76348727763139
 30
0.0
 10
-35.98904286990146
 20
-38.3973970131874
 30
0.0
 10
-35.30875909783279
 20
-39.01558812473384
 30
0.0
 10
-34.61374803661445
 20
-39.61725397889688
 30
0.0
 10
-33.90411148420773
 20
-40.20157440145198
 30
0.0
 10
-33.17999163194538
 20
-40.76771722571949
 30
0.0
 10
-32.44157179243904
 20
-41.3148398703262
 30
0.0
 10
-31.68907707521257
 20
-41.84209094481057
 30
0.0
 10
-30.92277500924289
 20
-42.34861188148081
 30
0.0
 10
-30.14297611163289
 20
-42.83353859193713
 30
0.0
 10
-29.35003440170371
 20
-43.29600314664795
 30
0.0
 10
-28.54434785983944
 20
-43.73513547596948
 30
0.0
 10
-27.72635883047877
 20
-44.15006509098474
 30
0.0
 10
-26.89655436869534
 20
-44.53992282254832
 30
0.0
 10
-26.05546652986251
 20
-44.90384257692905
 30
0.0
 10
-25.20367260195087
 20
-45.24096310641211
 30
0.0
 10
-24.34179528003043
 20
-45.5504297934193
 30
0.0
 10
-23.47050278266515
 20
-45.83139644603311
 30
0.0
 10
-22.59050890963677
 20
-46.08302710543615
 30
0.0
 10
-21.70257304151435
 20
-46.30449785607015
 30
0.0
 10
-20.8075000776663
 20
-46.4949986657037
 30
0.0
 10
-19.90614032399133
 20
-46.65373514692973
 30
0.0
 10
-18.99938928686496
 20
-46.77993063813424
 30
0.0
 10
-18.0881875342416
 20
-46.87282711109401
 30
0.0
 10
-17.17352002129085
 20
-46.9316904735896
 30
0.0
 10
-16.25641713002052
 20
-46.95579945847997
 30
0.0
 10
-15.33796225351558
 20
-46.94449601856088
 30
0.0
 10
-14.41941641114544
 20
-46.89701451855898
 30
0.0
 10
-13.50217145841445
 20
-46.81387022395317
 30
0.0
 10
-12.58766971931145
 20
-46.69590050506087
 30
0.0
 10
-11.6773484463756
 20
-46.54392807555944
 30
0.0
 10
-10.77258684355632
 20
-46.35884559403533
 30
0.0
 10
-9.874706443153526
 20
-46.14158925085806
 30
0.0
 10
-8.984969023175761
 20
-45.89314269629071
 30
0.0
 10
-8.104575349597189
 20
-45.61453277655037
 30
0.0
 10
-7.234663806421204
 20
-45.3068274140633
 30
0.0
 10
-6.376309166830302
 20
-44.97113286323583
 30
0.0
 10
-5.530521439326496
 20
-44.60859108731601
 30
0.0
 10
-4.698244808195382
 20
-44.22037706010028
 30
0.0
 10
-3.88035666457306
 20
-43.80769604861657
 30
0.0
 10
-3.0776667304062
 20
-43.37178086538999
 30
0.0
 10
-2.290916275830353
 20
-42.91388909700962
 30
0.0
 10
-1.520777430812872
 20
-42.43530031089351
 30
0.0
 10
-0.7678525916781144
 20
-41.93731324345669
 30
0.0
 10
-0.0326739230526381
 20
-41.42124297254261
 30
0.0
 10
0.6842970443427813
 20
-40.88841807707566
 30
0.0
 10
1.382669719729982
 20
-40.34017778685549
 30
0.0
 10
2.06212466191325
 20
-39.77786912541873
 30
0.0
 10
2.722413692398132
 20
-39.20284404887364
 30
0.0
 10
3.36335991195214
 20
-38.61645658359156
 30
0.0
 10
3.984857620708057
 20
-38.02005996564602
 30
0.0
 10
4.586872141860996
 20
-37.4150037847611
 30
0.0
 10
5.169439549662919
 20
-36.80263113586683
 30
0.0
 10
5.732666300493369
 20
-36.1842757799967
 30
0.0
 10
6.276728773360922
 20
-35.56125932108555
 30
0.0
 10
6.801872698905976
 20
-34.93488838734176
 30
0.0
 10
7.308412556615855
 20
-34.30645187124964
 30
0.0
 10
7.796730651852793
 20
-33.67721804246901
 30
0.0
 10
8.267276932265807
 20
-33.04843222528429
 30
0.0
 10
8.720565675950924
 20
-32.42131252438499
 30
0.0
 10
9.157183177437076
 20
-31.79705279677229
 30
0.0
 10
9.577758986886804
 20
-31.17679335275873
 30
0.0
 10
9.983138755698434
 20
-30.56160365861183
 30
0.0
 10
10.6231886493542
 20
-29.56308349794637
 30
0.0
 10
11.34268033583757
 20
-28.37743343108522
 30
0.0
 10
12.11973906176705
 20
-27.00577619372961
 30
0.0
 10
12.73146566919955
 20
-25.86572412407264
 30
0.0
 10
13.29808418255593
 20
-24.7513416832927
 30
0.0
 10
13.82281082850907
 20
-23.66281640144717
 30
0.0
 10
14.30873496789024
 20
-22.6001400263386
 30
0.0
 10
14.82965826996455
 20
-21.3998792688078
 30
0.0
 10
15.37125925460279
 20
-20.06920944992946
 30
0.0
 10
15.97654888624868
 20
-18.46502613826758
 30
0.0
 10
16.51274790228295
 20
-16.91612277550767
 30
0.0
 10
16.98899902500791
 20
-15.41990726847416
 30
0.0
 10
17.37237117663623
 20
-14.12764432380273
 30
0.0
 10
17.68199046040835
 20
-13.00869751323113
 30
0.0
 10
17.93113191372966
 20
-12.05422612053519
 30
0.0
 10
18.12993719457724
 20
-11.25566838947194
 30
0.0
 10
18.31610421940935
 20
-10.4706351131512
 30
0.0
 10
18.49033416030482
 20
-9.697832796765525
 30
0.0
 10
18.65316535112481
 20
-8.935984947817786
 30
0.0
 10
18.80497803910558
 20
-8.18384415660625
 30
0.0
 10
18.94600017214671
 20
-7.440203813265496
 30
0.0
 10
19.07631386088448
 20
-6.703909305655798
 30
0.0
 10
19.19586254013788
 20
-5.973868683477342
 30
0.0
 10
19.30445877669989
 20
-5.249062747691078
 30
0.0
 10
19.41782978206532
 20
-4.409840941676704
 30
0.0
 10
19.50074523504344
 20
-3.69243330539014
 30
0.0
 10
19.55938629876776
 20
-3.096194107387842
 30
0.0
 10
19.59126548793331
 20
-2.739927614762115
 30
0.0
 10
19.61986410796116
 20
-2.384101500216902
 30
0.0
 10
19.645033575195
 20
-2.028659000189235
 30
0.0
 10
19.66689461868423
 20
-1.673525741759371
 30
0.0
 10
19.68454386600834
 20
-1.318728398592453
 30
0.0
 10
19.70087317896792
 20
-0.9639534996834792
 30
0.0
 10
19.70461504359282
 20
-0.6101919745238967
 30
0.0
 10
19.73752180927318
 20
-0.2507418434149674
 30
0.0
 10
19.64095427760313
 20
0.0993515058348664
 30
0.0
 10
19.57356376127471
 20
0.4529398577208731
 30
0.0
 10
19.4929853708508
 20
0.8030410090689357
 30
0.0
 10
19.41079542296306
 20
1.150630580236409
 30
0.0
 10
19.32397930874132
 20
1.495450325265011
 30
0.0
 10
19.23340103695094
 20
1.837570515650299
 30
0.0
 10
19.07656440205199
 20
2.400797965789555
 30
0.0
 10
18.77261906813705
 20
3.395052184746402
 30
0.0
 10
18.30556693415863
 20
4.68691012576585
 30
0.0
 10
17.72821517047005
 20
6.038409457814841
 30
0.0
 10
17.14129083974533
 20
7.240292033626054
 30
0.0
 10
16.50091822728003
 20
8.398487991088706
 30
0.0
 10
15.80831654743845
 20
9.512497777995792
 30
0.0
 10
15.06449358455861
 20
10.58156102626018
 30
0.0
 10
14.27030752348253
 20
11.60462624060655
 30
0.0
 10
13.42653256486088
 20
12.58033167585253
 30
0.0
 10
12.53392536597985
 20
13.50699491211252
 30
0.0
 10
11.59329178930565
 20
14.38261199020242
 30
0.0
 10
10.66359536366419
 20
15.15654744458657
 30
0.0
 10
10.03817879075594
 20
15.62497481719609
 30
0.0
 10
9.750652488864896
 20
15.82995188812134
 30
0.0
  0
SPLINE
  5
64
330
1F
100
AcDbEntity
  8
0
  6
Continuous
 62
     7
370
    25
100
AcDbSpline
210
0.0
220
0.0
230
1.0
 70
     8
 71
     3
 72
     9
 73
     5
 74
     0
 42
0.00000001
 43
0.00000001
 40
0.0
 40
0.0
 40
0.0
 40
0.0
 40
0.4967559557708895
 40
0.9998556041699128
 40
0.9998556041699128
 40
0.9998556041699128
 40
0.9998556041699128
 10
9.7506524888649
 20
15.82995188812134
 30
0.0
 10
-3.426291801913536
 20
24.04311375564069
 30
0.0
 10
-32.27579577780237
 20
25.879881467022
 30
0.0
 10
-56.25845069855531
 20
0.9012273491788211
 30
0.0
 10
-46.72002677330428
 20
-22.20475521937094
 30
0.0
  0
CIRCLE
  5
65
330
1F
100
AcDbEntity
  8
0
  6
Continuous
 62
     7
370
    25
100
AcDbCircle
 10
0.0
 20
0.0
 30
0.0
 40
3.075
  0
MTEXT
  5
67
330
1F
100
AcDbEntity
  8
0
  6
Continuous
 62
     7
100
AcDbMText
 10
-50.1409242314
 20
-47.9618521332
 30
0.0
 40
4.83362
 41
0.0
 71
     1
 72
     1
  1
SOLIDWORKS Educational Product.
  7
SLDTEXTSTYLE0
 73
     1
 44
1.0
  0
MTEXT
  5
68
330
1F
100
AcDbEntity
  8
0
  6
Continuous
 62
     7
100
AcDbMText
 10
-50.1409242314
 20
-55.2122821332
 30
0.0
 40
4.83362
 41
0.0
 71
     1
 72
     1
  1
For Instructional Use Only.
  7
SLDTEXTSTYLE0
 73
     1
 44
1.0
  0
ENDSEC
  0
SECTION
  2
OBJECTS
  0
DICTIONARY
  5
C
330
0
100
AcDbDictionary
281
     1
  3
ACAD_GROUP
350
D
  3
ACAD_LAYOUT
350
1A
  3
ACAD_MLINESTYLE
350
17
  3
ACAD_PLOTSETTINGS
350
19
  3
ACAD_PLOTSTYLENAME
350
E
  3
ACAD_SCALELIST
350
47
  3
DWGPROPS
350
69
  0
DICTIONARY
  5
D
102
{ACAD_REACTORS
330
C
102
}
330
C
100
AcDbDictionary
281
     1
  0
DICTIONARY
  5
1A
102
{ACAD_REACTORS
330
C
102
}
330
C
100
AcDbDictionary
281
     1
  3
Layout1
350
1E
  3
Layout2
350
26
  3
Model
350
22
  0
DICTIONARY
  5
17
102
{ACAD_REACTORS
330
C
102
}
330
C
100
AcDbDictionary
281
     1
  3
Standard
350
18
  0
DICTIONARY
  5
19
102
{ACAD_REACTORS
330
C
102
}
330
C
100
AcDbDictionary
281
     1
  0
ACDBDICTIONARYWDFLT
  5
E
102
{ACAD_REACTORS
330
C
102
}
330
C
100
AcDbDictionary
281
     1
  3
Normal
350
F
100
AcDbDictionaryWithDefault
340
F
  0
DICTIONARY
  5
47
102
{ACAD_REACTORS
330
C
102
}
330
C
100
AcDbDictionary
281
     1
  3
A0
350
48
  3
A1
350
49
  3
A2
350
4A
  3
A3
350
4B
  3
A4
350
4C
  3
A5
350
4D
  3
A6
350
4E
  3
A7
350
4F
  3
A8
350
50
  3
A9
350
51
  3
B0
350
52
  3
B1
350
53
  3
B2
350
54
  3
B3
350
55
  3
B4
350
56
  3
B5
350
57
  3
B6
350
58
  0
XRECORD
  5
69
102
{ACAD_REACTORS
330
C
102
}
330
C
100
AcDbXrecord
280
     1
  1
DWGPROPS COOKIE
  2

  3

  4

  6

  7

  8
Stephan
  9

300
=
301
=
302
=
303
=
304
=
305
=
306
=
307
=
308
=
309
=
 40
0.0
 41
2460166.849003889
 42
2460166.849044213
  1

 90
        0
  0
LAYOUT
  5
1E
102
{ACAD_REACTORS
330
1A
102
}
330
1A
100
AcDbPlotSettings
  1

  2
none_device
  4

  6

 40
0.0
 41
0.0
 42
0.0
 43
0.0
 44
0.0
 45
0.0
 46
0.0
 47
0.0
 48
0.0
 49
0.0
140
0.0
141
0.0
142
1.0
143
1.0
 70
   688
 72
     1
 73
     0
 74
     5
  7

 75
    16
147
1.0
148
0.0
149
0.0
100
AcDbLayout
  1
Layout1
 70
     1
 71
     1
 10
0.0
 20
0.0
 11
420.0
 21
297.0
 12
0.0
 22
0.0
 32
0.0
 14
1.0000000000E+20
 24
1.0000000000E+20
 34
1.0000000000E+20
 15
-1.0000000000E+20
 25
-1.0000000000E+20
 35
-1.0000000000E+20
146
0.0
 13
0.0
 23
0.0
 33
0.0
 16
1.0
 26
0.0
 36
0.0
 17
0.0
 27
1.0
 37
0.0
 76
     0
330
1B
  0
LAYOUT
  5
26
102
{ACAD_REACTORS
330
1A
102
}
330
1A
100
AcDbPlotSettings
  1

  2
none_device
  4

  6

 40
0.0
 41
0.0
 42
0.0
 43
0.0
 44
0.0
 45
0.0
 46
0.0
 47
0.0
 48
0.0
 49
0.0
140
0.0
141
0.0
142
1.0
143
1.0
 70
   688
 72
     1
 73
     0
 74
     5
  7

 75
    16
147
1.0
148
0.0
149
0.0
100
AcDbLayout
  1
Layout2
 70
     1
 71
     2
 10
0.0
 20
0.0
 11
0.0
 21
0.0
 12
0.0
 22
0.0
 32
0.0
 14
0.0
 24
0.0
 34
0.0
 15
0.0
 25
0.0
 35
0.0
146
0.0
 13
0.0
 23
0.0
 33
0.0
 16
1.0
 26
0.0
 36
0.0
 17
0.0
 27
1.0
 37
0.0
 76
     0
330
23
  0
LAYOUT
  5
22
102
{ACAD_REACTORS
330
1A
102
}
330
1A
100
AcDbPlotSettings
  1

  2
none_device
  4
ANSI_A_(11.00_x_8.50_Inches)
  6

 40
6.35
 41
19.05
 42
6.35000508
 43
19.05000254
 44
279.4
 45
215.9
 46
179.9152273031
 47
125.7234305943
 48
0.0
 49
0.0
140
0.0
141
0.0
142
0.1205148263
143
1.0
 70
  1696
 72
     0
 73
     0
 74
     0
  7

 75
     0
147
0.0179189148
148
-1300.4909072572
149
0.0
100
AcDbLayout
  1
Model
 70
     1
 71
     0
 10
0.0
 20
0.0
 11
420.0
 21
297.0
 12
0.0
 22
0.0
 32
0.0
 14
-50.1409242314
 24
-46.9422857415
 34
0.0
 15
19.7168374721
 25
22.8831478485
 35
0.0
146
0.0
 13
0.0
 23
0.0
 33
0.0
 16
1.0
 26
0.0
 36
0.0
 17
0.0
 27
1.0
 37
0.0
 76
     0
330
1F
331
29
  0
MLINESTYLE
  5
18
102
{ACAD_REACTORS
330
17
102
}
330
17
100
AcDbMlineStyle
  2
Standard
 70
     0
  3

 62
   256
 51
90.0
 52
90.0
 71
     2
 49
0.5
 62
   256
  6
BYLAYER
 49
-0.5
 62
   256
  6
BYLAYER
  0
ACDBPLACEHOLDER
  5
F
102
{ACAD_REACTORS
330
E
102
}
330
E
  0
SCALE
  5
48
102
{ACAD_REACTORS
330
47
102
}
330
47
100
AcDbScale
 70
     0
300
1:1
140
1.0
141
1.0
290
     1
  0
SCALE
  5
49
102
{ACAD_REACTORS
330
47
102
}
330
47
100
AcDbScale
 70
     0
300
1:2
140
1.0
141
2.0
290
     0
  0
SCALE
  5
4A
102
{ACAD_REACTORS
330
47
102
}
330
47
100
AcDbScale
 70
     0
300
1:4
140
1.0
141
4.0
290
     0
  0
SCALE
  5
4B
102
{ACAD_REACTORS
330
47
102
}
330
47
100
AcDbScale
 70
     0
300
1:5
140
1.0
141
5.0
290
     0
  0
SCALE
  5
4C
102
{ACAD_REACTORS
330
47
102
}
330
47
100
AcDbScale
 70
     0
300
1:8
140
1.0
141
8.0
290
     0
  0
SCALE
  5
4D
102
{ACAD_REACTORS
330
47
102
}
330
47
100
AcDbScale
 70
     0
300
1:10
140
1.0
141
10.0
290
     0
  0
SCALE
  5
4E
102
{ACAD_REACTORS
330
47
102
}
330
47
100
AcDbScale
 70
     0
300
1:16
140
1.0
141
16.0
290
     0
  0
SCALE
  5
4F
102
{ACAD_REACTORS
330
47
102
}
330
47
100
AcDbScale
 70
     0
300
1:20
140
1.0
141
20.0
290
     0
  0
SCALE
  5
50
102
{ACAD_REACTORS
330
47
102
}
330
47
100
AcDbScale
 70
     0
300
1:30
140
1.0
141
30.0
290
     0
  0
SCALE
  5
51
102
{ACAD_REACTORS
330
47
102
}
330
47
100
AcDbScale
 70
     0
300
1:40
140
1.0
141
40.0
290
     0
  0
SCALE
  5
52
102
{ACAD_REACTORS
330
47
102
}
330
47
100
AcDbScale
 70
     0
300
1:50
140
1.0
141
50.0
290
     0
  0
SCALE
  5
53
102
{ACAD_REACTORS
330
47
102
}
330
47
100
AcDbScale
 70
     0
300
1:100
140
1.0
141
100.0
290
     0
  0
SCALE
  5
54
102
{ACAD_REACTORS
330
47
102
}
330
47
100
AcDbScale
 70
     0
300
2:1
140
2.0
141
1.0
290
     0
  0
SCALE
  5
55
102
{ACAD_REACTORS
330
47
102
}
330
47
100
AcDbScale
 70
     0
300
4:1
140
4.0
141
1.0
290
     0
  0
SCALE
  5
56
102
{ACAD_REACTORS
330
47
102
}
330
47
100
AcDbScale
 70
     0
300
8:1
140
8.0
141
1.0
290
     0
  0
SCALE
  5
57
102
{ACAD_REACTORS
330
47
102
}
330
47
100
AcDbScale
 70
     0
300
10:1
140
10.0
141
1.0
290
     0
  0
SCALE
  5
58
102
{ACAD_REACTORS
330
47
102
}
330
47
100
AcDbScale
 70
     0
300
100:1
140
100.0
141
1.0
290
     0
  0
ENDSEC
  0
EOF
