  0
SECTION
  2
HEADER
  9
$ACADVER
  1
AC1014
  9
$ACADMAINTVER
 70
     9
  9
$DWGCODEPAGE
  3
ANSI_1252
  9
$INSBASE
 10
0.0
 20
0.0
 30
0.0
  9
$EXTMIN
 10
0.0000000001465915
 20
-0.1999999980362335
 30
0.0
  9
$EXTMAX
 10
2.298241874116761
 20
1.050188858593938
 30
0.0
  9
$LIMMIN
 10
0.0
 20
0.0
  9
$LIMMAX
 10
12.0
 20
9.0
  9
$ORTHOMODE
 70
     0
  9
$REGENMODE
 70
     1
  9
$FILLMODE
 70
     1
  9
$QTEXTMODE
 70
     0
  9
$MIRRTEXT
 70
     1
  9
$DRAGMODE
 70
     2
  9
$LTSCALE
 40
1.0
  9
$OSMODE
 70
    39
  9
$ATTMODE
 70
     1
  9
$TEXTSIZE
 40
0.2
  9
$TRACEWID
 40
0.05
  9
$TEXTSTYLE
  7
STANDARD
  9
$CLAYER
  8
0
  9
$CELTYPE
  6
CONTINUOUS
  9
$CECOLOR
 62
   256
  9
$CELTSCALE
 40
1.0
  9
$DELOBJ
 70
     1
  9
$DISPSILH
 70
     0
  9
$DIMSCALE
 40
1.0
  9
$DIMASZ
 40
0.18
  9
$DIMEXO
 40
0.0625
  9
$DIMDLI
 40
0.38
  9
$DIMRND
 40
0.0
  9
$DIMDLE
 40
0.0
  9
$DIMEXE
 40
0.18
  9
$DIMTP
 40
0.0
  9
$DIMTM
 40
0.0
  9
$DIMTXT
 40
0.18
  9
$DIMCEN
 40
0.09
  9
$DIMTSZ
 40
0.0
  9
$DIMTOL
 70
     0
  9
$DIMLIM
 70
     0
  9
$DIMTIH
 70
     1
  9
$DIMTOH
 70
     1
  9
$DIMSE1
 70
     0
  9
$DIMSE2
 70
     0
  9
$DIMTAD
 70
     0
  9
$DIMZIN
 70
     0
  9
$DIMBLK
  1

  9
$DIMASO
 70
     1
  9
$DIMSHO
 70
     1
  9
$DIMPOST
  1

  9
$DIMAPOST
  1

  9
$DIMALT
 70
     0
  9
$DIMALTD
 70
     2
  9
$DIMALTF
 40
25.4
  9
$DIMLFAC
 40
1.0
  9
$DIMTOFL
 70
     0
  9
$DIMTVP
 40
0.0
  9
$DIMTIX
 70
     0
  9
$DIMSOXD
 70
     0
  9
$DIMSAH
 70
     0
  9
$DIMBLK1
  1

  9
$DIMBLK2
  1

  9
$DIMSTYLE
  2
STANDARD
  9
$DIMCLRD
 70
     0
  9
$DIMCLRE
 70
     0
  9
$DIMCLRT
 70
     0
  9
$DIMTFAC
 40
1.0
  9
$DIMGAP
 40
0.09
  9
$DIMJUST
 70
     0
  9
$DIMSD1
 70
     0
  9
$DIMSD2
 70
     0
  9
$DIMTOLJ
 70
     1
  9
$DIMTZIN
 70
     0
  9
$DIMALTZ
 70
     0
  9
$DIMALTTZ
 70
     0
  9
$DIMFIT
 70
     3
  9
$DIMUPT
 70
     0
  9
$DIMUNIT
 70
     2
  9
$DIMDEC
 70
     4
  9
$DIMTDEC
 70
     4
  9
$DIMALTU
 70
     2
  9
$DIMALTTD
 70
     2
  9
$DIMTXSTY
  7
STANDARD
  9
$DIMAUNIT
 70
     0
  9
$LUNITS
 70
     2
  9
$LUPREC
 70
     4
  9
$SKETCHINC
 40
0.1
  9
$FILLETRAD
 40
0.046875
  9
$AUNITS
 70
     0
  9
$AUPREC
 70
     0
  9
$MENU
  1
.
  9
$ELEVATION
 40
0.0
  9
$PELEVATION
 40
0.0
  9
$THICKNESS
 40
0.0
  9
$LIMCHECK
 70
     0
  9
$BLIPMODE
 70
     0
  9
$CHAMFERA
 40
0.0
  9
$CHAMFERB
 40
0.0
  9
$CHAMFERC
 40
0.0
  9
$CHAMFERD
 40
0.0
  9
$SKPOLY
 70
     0
  9
$TDCREATE
 40
2453166.443162742
  9
$TDUPDATE
 40
2453229.360676273
  9
$TDINDWG
 40
0.9972737616
  9
$TDUSRTIMER
 40
0.9972737616
  9
$USRTIMER
 70
     1
  9
$ANGBASE
 50
0.0
  9
$ANGDIR
 70
     0
  9
$PDMODE
 70
     0
  9
$PDSIZE
 40
0.0
  9
$PLINEWID
 40
0.0
  9
$COORDS
 70
     1
  9
$SPLFRAME
 70
     0
  9
$SPLINETYPE
 70
     6
  9
$SPLINESEGS
 70
     8
  9
$ATTDIA
 70
     0
  9
$ATTREQ
 70
     1
  9
$HANDLING
 70
 22529
  9
$HANDSEED
  5
35C
  9
$SURFTAB1
 70
     6
  9
$SURFTAB2
 70
     6
  9
$SURFTYPE
 70
     6
  9
$SURFU
 70
     6
  9
$SURFV
 70
     6
  9
$UCSNAME
  2

  9
$UCSORG
 10
0.0
 20
0.0
 30
0.0
  9
$UCSXDIR
 10
1.0
 20
0.0
 30
0.0
  9
$UCSYDIR
 10
0.0
 20
1.0
 30
0.0
  9
$PUCSNAME
  2

  9
$PUCSORG
 10
0.0
 20
0.0
 30
0.0
  9
$PUCSXDIR
 10
1.0
 20
0.0
 30
0.0
  9
$PUCSYDIR
 10
0.0
 20
1.0
 30
0.0
  9
$USERI1
 70
     0
  9
$USERI2
 70
     0
  9
$USERI3
 70
     0
  9
$USERI4
 70
     0
  9
$USERI5
 70
     0
  9
$USERR1
 40
0.0
  9
$USERR2
 40
0.0
  9
$USERR3
 40
0.0
  9
$USERR4
 40
0.0
  9
$USERR5
 40
0.0
  9
$WORLDVIEW
 70
     1
  9
$SHADEDGE
 70
     3
  9
$SHADEDIF
 70
    70
  9
$TILEMODE
 70
     1
  9
$MAXACTVP
 70
    64
  9
$PINSBASE
 10
0.0
 20
0.0
 30
0.0
  9
$PLIMCHECK
 70
     0
  9
$PEXTMIN
 10
1.000000000000000E+20
 20
1.000000000000000E+20
 30
1.000000000000000E+20
  9
$PEXTMAX
 10
-1.000000000000000E+20
 20
-1.000000000000000E+20
 30
-1.000000000000000E+20
  9
$PLIMMIN
 10
0.0
 20
0.0
  9
$PLIMMAX
 10
12.0
 20
9.0
  9
$UNITMODE
 70
     0
  9
$VISRETAIN
 70
     1
  9
$PLINEGEN
 70
     0
  9
$PSLTSCALE
 70
     1
  9
$TREEDEPTH
 70
  3020
  9
$PICKSTYLE
 70
     1
  9
$CMLSTYLE
  2
STANDARD
  9
$CMLJUST
 70
     0
  9
$CMLSCALE
 40
1.0
  9
$PROXYGRAPHICS
 70
     1
  9
$MEASUREMENT
 70
     0
  0
ENDSEC
  0
SECTION
  2
CLASSES
  0
CLASS
  1
ACDBDICTIONARYWDFLT
  2
AcDbDictionaryWithDefault
  3
AutoCAD 2000
 90
        0
280
     0
281
     0
  0
CLASS
  1
ACDBPLACEHOLDER
  2
AcDbPlaceHolder
  3
AutoCAD 2000
 90
        0
280
     0
281
     0
  0
CLASS
  1
LAYOUT
  2
AcDbLayout
  3
AutoCAD 2000
 90
        0
280
     0
281
     0
  0
CLASS
  1
DICTIONARYVAR
  2
AcDbDictionaryVar
  3
AutoCAD 2000
 90
        0
280
     0
281
     0
  0
CLASS
  1
LONG_TRANSACTION
  2
AcDbLongTransaction
  3
AutoCAD 2000
 90
        0
280
     0
281
     0
  0
CLASS
  1
LWPOLYLINE
  2
AcDbPolyline
  3
AutoCAD 2000
 90
        0
280
     0
281
     1
  0
CLASS
  1
HATCH
  2
AcDbHatch
  3
AutoCAD 2000
 90
        0
280
     0
281
     1
  0
CLASS
  1
XRECORD
  2
AcDbXrecord
  3
AutoCAD 2000
 90
        0
280
     0
281
     0
  0
ENDSEC
  0
SECTION
  2
TABLES
  0
TABLE
  2
VPORT
  5
8
330
0
100
AcDbSymbolTable
 70
     2
  0
VPORT
  5
337
330
8
100
AcDbSymbolTableRecord
100
AcDbViewportTableRecord
  2
*ACTIVE
 70
     0
 10
0.0
 20
0.0
 11
1.0
 21
1.0
 12
1.144320484207793
 22
0.434095275105419
 13
0.0
 23
0.0
 14
1.0
 24
1.0
 15
0.0
 25
0.0
 16
0.0
 26
0.0
 36
1.0
 17
0.0
 27
0.0
 37
0.0
 40
1.660342514318394
 41
1.595716198125836
 42
50.0
 43
0.0
 44
0.0
 50
0.0
 51
0.0
 71
     0
 72
   100
 73
     1
 74
     1
 75
     0
 76
     0
 77
     0
 78
     0
  0
ENDTAB
  0
TABLE
  2
LTYPE
  5
5
330
0
100
AcDbSymbolTable
 70
     5
  0
LTYPE
  5
13
330
5
100
AcDbSymbolTableRecord
100
AcDbLinetypeTableRecord
  2
BYBLOCK
 70
     0
  3

 72
    65
 73
     0
 40
0.0
  0
LTYPE
  5
14
330
5
100
AcDbSymbolTableRecord
100
AcDbLinetypeTableRecord
  2
BYLAYER
 70
     0
  3

 72
    65
 73
     0
 40
0.0
  0
LTYPE
  5
15
330
5
100
AcDbSymbolTableRecord
100
AcDbLinetypeTableRecord
  2
CONTINUOUS
 70
     0
  3
Solid line
 72
    65
 73
     0
 40
0.0
  0
LTYPE
  5
22
330
5
100
AcDbSymbolTableRecord
100
AcDbLinetypeTableRecord
  2
DASHDOT
 70
     0
  3
__ . __ . __ . __ . __ . __ . __ . __ . __ . __
 72
    65
 73
     4
 40
1.0
 49
0.5
 74
     0
 49
-0.25
 74
     0
 49
0.0
 74
     0
 49
-0.25
 74
     0
  0
LTYPE
  5
23
330
5
100
AcDbSymbolTableRecord
100
AcDbLinetypeTableRecord
  2
DASHED
 70
     0
  3
__ __ __ __ __ __ __ __ __ __ __ __ __ __ __ __
 72
    65
 73
     2
 40
0.75
 49
0.5
 74
     0
 49
-0.25
 74
     0
  0
LTYPE
  5
24
330
5
100
AcDbSymbolTableRecord
100
AcDbLinetypeTableRecord
  2
DIVIDE
 70
     0
  3
____ . . ____ . . ____ . . ____ . . ____ . . __
 72
    65
 73
     6
 40
1.25
 49
0.5
 74
     0
 49
-0.25
 74
     0
 49
0.0
 74
     0
 49
-0.25
 74
     0
 49
0.0
 74
     0
 49
-0.25
 74
     0
  0
LTYPE
  5
25
330
5
100
AcDbSymbolTableRecord
100
AcDbLinetypeTableRecord
  2
DOT
 70
     0
  3
. . . . . . . . . . . . . . . . . . . . . . . . 
 72
    65
 73
     2
 40
0.25
 49
0.0
 74
     0
 49
-0.25
 74
     0
  0
ENDTAB
  0
TABLE
  2
LAYER
  5
2
330
0
100
AcDbSymbolTable
 70
     1
  0
LAYER
  5
10
330
2
100
AcDbSymbolTableRecord
100
AcDbLayerTableRecord
  2
0
 70
     0
 62
     7
  6
CONTINUOUS
  0
ENDTAB
  0
TABLE
  2
STYLE
  5
3
330
0
100
AcDbSymbolTable
 70
     1
  0
STYLE
  5
11
330
3
100
AcDbSymbolTableRecord
100
AcDbTextStyleTableRecord
  2
STANDARD
 70
     0
 40
0.0
 41
1.0
 50
0.0
 71
     0
 42
0.2
  3
txt
  4

  0
ENDTAB
  0
TABLE
  2
VIEW
  5
6
330
0
100
AcDbSymbolTable
 70
     0
  0
ENDTAB
  0
TABLE
  2
UCS
  5
7
330
0
100
AcDbSymbolTable
 70
     0
  0
ENDTAB
  0
TABLE
  2
APPID
  5
9
330
0
100
AcDbSymbolTable
 70
     1
  0
APPID
  5
12
330
9
100
AcDbSymbolTableRecord
100
AcDbRegAppTableRecord
  2
ACAD
 70
     0
  0
ENDTAB
  0
TABLE
  2
DIMSTYLE
  5
A
330
0
100
AcDbSymbolTable
 70
     1
  0
DIMSTYLE
105
50
330
A
100
AcDbSymbolTableRecord
100
AcDbDimStyleTableRecord
  2
STANDARD
 70
     0
  3

  4

  5

  6

  7

 40
1.0
 41
0.18
 42
0.0625
 43
0.38
 44
0.18
 45
0.0
 46
0.0
 47
0.0
 48
0.0
140
0.18
141
0.09
142
0.0
143
25.4
144
1.0
145
0.0
146
1.0
147
0.09
 71
     0
 72
     0
 73
     1
 74
     1
 75
     0
 76
     0
 77
     0
 78
     0
170
     0
171
     2
172
     0
173
     0
174
     0
175
     0
176
     0
177
     0
178
     0
270
     2
271
     4
272
     4
273
     2
274
     2
340
11
275
     0
280
     0
281
     0
282
     0
283
     1
284
     0
285
     0
286
     0
287
     3
288
     0
  0
ENDTAB
  0
TABLE
  2
BLOCK_RECORD
  5
1
330
0
100
AcDbSymbolTable
 70
     0
  0
BLOCK_RECORD
  5
1E
102
{ACAD_XDICTIONARY
360
35A
102
}
330
1
100
AcDbSymbolTableRecord
100
AcDbBlockTableRecord
  2
*MODEL_SPACE
  0
BLOCK_RECORD
  5
1A
102
{ACAD_XDICTIONARY
360
358
102
}
330
1
100
AcDbSymbolTableRecord
100
AcDbBlockTableRecord
  2
*PAPER_SPACE
  0
ENDTAB
  0
ENDSEC
  0
SECTION
  2
BLOCKS
  0
BLOCK
  5
1F
330
1E
100
AcDbEntity
  8
0
100
AcDbBlockBegin
  2
*MODEL_SPACE
 70
     0
 10
0.0
 20
0.0
 30
0.0
  3
*MODEL_SPACE
  1

  0
ENDBLK
  5
20
330
1E
100
AcDbEntity
  8
0
100
AcDbBlockEnd
  0
BLOCK
  5
1B
330
1A
100
AcDbEntity
 67
     1
  8
0
100
AcDbBlockBegin
  2
*PAPER_SPACE
 70
     0
 10
0.0
 20
0.0
 30
0.0
  3
*PAPER_SPACE
  1

  0
ENDBLK
  5
1C
330
1A
100
AcDbEntity
 67
     1
  8
0
100
AcDbBlockEnd
  0
ENDSEC
  0
SECTION
  2
ENTITIES
  0
LINE
  5
2BF
330
1E
100
AcDbEntity
  8
0
  6
CONTINUOUS
 62
     7
100
AcDbLine
 10
0.3671429359356844
 20
0.348948052690412
 30
0.0
 11
0.7602342642496486
 21
0.3861012775616155
 31
0.0
  0
LINE
  5
2C0
330
1E
100
AcDbEntity
  8
0
  6
CONTINUOUS
 62
     7
100
AcDbLine
 10
0.9865321550920238
 20
0.1666666694637665
 30
0.0
 11
0.6790835434038915
 21
0.1667202869243753
 31
0.0
  0
LINE
  5
2C1
330
1E
100
AcDbEntity
  8
0
  6
CONTINUOUS
 62
     7
100
AcDbLine
 10
0.8638810721914293
 20
0.6107679158397882
 30
0.0
 11
0.0000000001465915
 21
0.8583459333485983
 31
0.0
  0
LINE
  5
2C2
330
1E
100
AcDbEntity
  8
0
  6
CONTINUOUS
 62
     7
100
AcDbLine
 10
0.3962342838457466
 20
0.4201403564376327
 30
0.0
 11
0.6028915503729087
 21
0.49988898032974
 31
0.0
  0
LINE
  5
2C3
330
1E
100
AcDbEntity
  8
0
  6
CONTINUOUS
100
AcDbLine
 10
1.958634285052462
 20
0.0000000019637665
 30
0.0
 11
1.583634285052462
 21
0.0000000019637665
 31
0.0
  0
LINE
  5
2C4
330
1E
100
AcDbEntity
  8
0
  6
CONTINUOUS
 62
     7
100
AcDbLine
 10
1.1629186631417
 20
0.7326665492807766
 30
0.0
 11
0.0549801409458904
 21
1.050188858593938
 31
0.0
  0
ARC
  5
2C5
330
1E
100
AcDbEntity
  8
0
  6
CONTINUOUS
100
AcDbCircle
 10
0.3715536929274989
 20
0.3022810317038613
 30
0.0
 40
0.046875
100
AcDbArc
 50
95.39929993848661
 51
180.0578021616653
  0
LINE
  5
2C6
330
1E
100
AcDbEntity
  8
0
  6
CONTINUOUS
100
AcDbLine
 10
0.2086342850524621
 20
0.3557986668219611
 30
0.0
 11
0.2086342850524621
 21
0.0000000019637665
 31
0.0
  0
LINE
  5
2C9
330
1E
100
AcDbEntity
  8
0
  6
CONTINUOUS
 62
     7
100
AcDbLine
 10
0.0000000001465915
 20
0.8583459333485981
 30
0.0
 11
0.0549801409458904
 21
1.050188858593938
 31
0.0
  0
LINE
  5
2CA
330
1E
100
AcDbEntity
  8
0
  6
CONTINUOUS
 62
     7
100
AcDbLine
 10
0.3500722714143293
 20
0.3559140360460901
 30
0.0
 11
0.2086342850524621
 21
0.3557986668219611
 31
0.0
  0
ARC
  5
2CB
330
1E
100
AcDbEntity
  8
0
  6
CONTINUOUS
 62
     7
100
AcDbCircle
 10
0.3380251978736395
 20
0.4152774950528682
 30
0.0
 40
0.06057352760195
100
AcDbArc
 50
281.4716751702359
 51
321.4675141983246
  0
LINE
  5
2CC
330
1E
100
AcDbEntity
  8
0
  6
CONTINUOUS
 62
     7
100
AcDbLine
 10
0.3962342838457466
 20
0.4201403564376327
 30
0.0
 11
0.3854091472579153
 21
0.3775427155133955
 31
0.0
  0
LINE
  5
2CD
330
1E
100
AcDbEntity
  8
0
  6
CONTINUOUS
 62
     7
100
AcDbLine
 10
2.280019987550038
 20
0.4296136020448249
 30
0.0
 11
1.240305766231368
 21
0.537683051100087
 31
0.0
  0
LINE
  5
2CE
330
1E
100
AcDbEntity
  8
0
  6
CONTINUOUS
100
AcDbLine
 10
1.34584663660321
 20
0.3289009437356931
 30
0.0
 11
1.958634285052462
 21
0.2551141571464059
 31
0.0
  0
LINE
  5
2CF
330
1E
100
AcDbEntity
  8
0
  6
CONTINUOUS
 62
     7
100
AcDbLine
 10
1.1629186631417
 20
0.7326665492807766
 30
0.0
 11
2.298241874116761
 21
0.6295100376720612
 31
0.0
  0
ARC
  5
2D0
330
1E
100
AcDbEntity
  8
0
  6
CONTINUOUS
 62
     7
100
AcDbCircle
 10
1.131390093614548
 20
0.3235849178494407
 30
0.0
 40
0.0528981984608402
100
AcDbArc
 50
1.695424935556374
 51
125.3540649032245
  0
LINE
  5
2D1
330
1E
100
AcDbEntity
  8
0
  6
CONTINUOUS
 62
     7
100
AcDbLine
 10
1.34584663660321
 20
0.3289009437356931
 30
0.0
 11
1.255839779972185
 21
0.3892697446672479
 31
0.0
  0
LINE
  5
2D2
330
1E
100
AcDbEntity
  8
0
  6
CONTINUOUS
 62
     7
100
AcDbLine
 10
0.9865321550920238
 20
0.1666666694637665
 30
0.0
 11
1.161697595469092
 21
0.1666666694637665
 31
0.0
  0
ARC
  5
2D3
330
1E
100
AcDbEntity
  8
0
  6
CONTINUOUS
 62
     7
100
AcDbCircle
 10
1.161697595469092
 20
0.2135416694637665
 30
0.0
 40
0.046875
100
AcDbArc
 50
270.0000000000001
 51
0.3622829574619835
  0
LINE
  5
2D4
330
1E
100
AcDbEntity
  8
0
  6
CONTINUOUS
 62
     7
100
AcDbLine
 10
1.184265134607846
 20
0.3251499866528897
 30
0.0
 11
1.17438230389804
 21
0.2964694314289579
 31
0.0
  0
LINE
  5
2D5
330
1E
100
AcDbEntity
  8
0
  6
CONTINUOUS
 62
     7
100
AcDbLine
 10
1.194624809258741
 20
0.2828304768178209
 30
0.0
 11
1.17438230389804
 21
0.2964694314289579
 31
0.0
  0
ARC
  5
2D6
330
1E
100
AcDbEntity
  8
0
  6
CONTINUOUS
 62
     7
100
AcDbCircle
 10
9.362847881263327
 20
0.2653984833874108
 30
0.0
 40
8.154439232446723
100
AcDbArc
 50
180.0593852494724
 51
180.3622829574619
  0
ARC
  5
2D7
330
1E
100
AcDbEntity
  8
0
  6
CONTINUOUS
 62
     7
100
AcDbCircle
 10
1.177163045464533
 20
0.2569142788914101
 30
0.0
 40
0.03125000015625
100
AcDbArc
 50
0.0593852494730978
 51
56.02877751113306
  0
LINE
  5
2D8
330
1E
100
AcDbEntity
  8
0
  6
CONTINUOUS
 62
     7
100
AcDbLine
 10
0.8798898877645937
 20
0.3954736907741395
 30
0.0
 11
1.080482027375328
 21
0.3592764559876851
 31
0.0
  0
ARC
  5
2D9
330
1E
100
AcDbEntity
  8
0
  6
CONTINUOUS
 62
     7
100
AcDbCircle
 10
0.8137493285790551
 20
0.5329932950061521
 30
0.0
 40
0.0647335700039268
100
AcDbArc
 50
271.4929941878291
 51
314.9996570416142
  0
ARC
  5
2DA
330
1E
100
AcDbEntity
  8
0
  6
CONTINUOUS
 62
     7
100
AcDbCircle
 10
0.8203536519384922
 20
0.4097736747752581
 30
0.0
 40
0.048424248316721
100
AcDbArc
 50
36.33464280605096
 51
147.2482035264951
  0
LINE
  5
2DB
330
1E
100
AcDbEntity
  8
0
  6
CONTINUOUS
 62
     7
100
AcDbLine
 10
0.6028915503729087
 20
0.49988898032974
 30
0.0
 11
0.7360913663836249
 21
0.5272660214387473
 31
0.0
  0
LINE
  5
2DC
330
1E
100
AcDbEntity
  8
0
  6
CONTINUOUS
 62
     7
100
AcDbLine
 10
0.7740886595670188
 20
0.4909091505104371
 30
0.0
 11
0.7360913663836249
 21
0.5272660214387473
 31
0.0
  0
ARC
  5
2DD
330
1E
100
AcDbEntity
  8
0
  6
CONTINUOUS
 62
     7
100
AcDbCircle
 10
0.8142146285401683
 20
0.5151407876603665
 30
0.0
 40
0.046875
100
AcDbArc
 50
211.1273222586776
 51
271.4929941878291
  0
LINE
  5
2DE
330
1E
100
AcDbEntity
  8
0
  6
CONTINUOUS
 62
     7
100
AcDbLine
 10
0.7602342642496486
 20
0.3861012775616155
 30
0.0
 11
0.779627791318795
 21
0.4359712338566771
 31
0.0
  0
LINE
  5
2DF
330
1E
100
AcDbEntity
  8
0
  6
CONTINUOUS
100
AcDbLine
 10
0.8595226009092822
 20
0.4872194746976378
 30
0.0
 11
0.8943726298323612
 21
0.5480086635984836
 31
0.0
  0
LINE
  5
2E0
330
1E
100
AcDbEntity
  8
0
  6
CONTINUOUS
 62
     7
100
AcDbLine
 10
0.8593627826337451
 20
0.4384650593260275
 30
0.0
 11
0.8798898877645937
 21
0.3954736907741395
 31
0.0
  0
ARC
  5
2E1
330
1E
100
AcDbEntity
  8
0
  6
CONTINUOUS
100
AcDbCircle
 10
0.8509671211005059
 20
0.565706896186198
 30
0.0
 40
0.046875
100
AcDbArc
 50
337.8172328783385
 51
74.0083285521963
  0
ARC
  5
2E2
330
1E
100
AcDbEntity
  8
0
  6
CONTINUOUS
100
AcDbCircle
 10
1.516691217376904
 20
-0.8856858947427868
 30
0.0
 40
1.449954507422483
100
AcDbArc
 50
100.9887725731677
 51
103.447816133164
  0
LINE
  5
2E3
330
1E
100
AcDbEntity
  8
0
  6
CONTINUOUS
100
AcDbLine
 10
1.159680913715693
 20
0.4658191663033842
 30
0.0
 11
1.179490302013963
 21
0.5245139550207743
 31
0.0
  0
ARC
  5
2E4
330
1E
100
AcDbEntity
  8
0
  6
CONTINUOUS
 62
     7
100
AcDbCircle
 10
1.196416953933358
 20
0.4174977506249299
 30
0.0
 40
0.0494363331421698
100
AcDbArc
 50
190.0206200451807
 51
288.3923568318272
  0
LINE
  5
2E5
330
1E
100
AcDbEntity
  8
0
  6
CONTINUOUS
 62
     7
100
AcDbLine
 10
1.080482027375328
 20
0.3592764559876851
 30
0.0
 11
1.100781742180522
 21
0.3667282629085987
 31
0.0
  0
LINE
  5
2E6
330
1E
100
AcDbEntity
  8
0
  6
CONTINUOUS
 62
     7
100
AcDbLine
 10
1.159680913715693
 20
0.4658191663033842
 30
0.0
 11
1.149969998801071
 21
0.4236579491600675
 31
0.0
  0
LINE
  5
2E7
330
1E
100
AcDbEntity
  8
0
  6
CONTINUOUS
 62
     7
100
AcDbLine
 10
1.147734762393512
 20
0.4088957007865841
 30
0.0
 11
1.149969998801071
 21
0.4236579491600675
 31
0.0
  0
LINE
  5
2E8
330
1E
100
AcDbEntity
  8
0
  6
CONTINUOUS
 62
     7
100
AcDbLine
 10
1.212015227159756
 20
0.3705867187998013
 30
0.0
 11
1.255839779972185
 21
0.3892697446672479
 31
0.0
  0
LINE
  5
2EA
330
1E
100
AcDbEntity
  8
0
  6
CONTINUOUS
 62
     7
100
AcDbLine
 10
2.298241874116761
 20
0.6295100376720612
 30
0.0
 11
2.280019987550038
 21
0.4296136020448249
 31
0.0
  0
ARC
  5
2EF
330
1E
100
AcDbEntity
  8
0
  6
CONTINUOUS
100
AcDbCircle
 10
0.3709910864641435
 20
0.3012395378855932
 30
0.0
 40
0.046875
100
AcDbArc
 50
188.9520769854317
 51
243.584246621328
  0
LINE
  5
2F1
330
1E
100
AcDbEntity
  8
0
  6
CONTINUOUS
100
AcDbLine
 10
0.3246870783799316
 20
0.2939453991196219
 30
0.0
 11
0.3246787167811105
 21
0.3022337424289532
 31
0.0
  0
LINE
  5
2F2
330
1E
100
AcDbEntity
  8
0
  6
CONTINUOUS
100
AcDbLine
 10
0.3501372691129924
 20
0.259258781259672
 30
0.0
 11
0.6790835434038913
 21
0.1667202869243753
 31
0.0
  0
LINE
  5
2F3
330
1E
100
AcDbEntity
  8
0
  6
CONTINUOUS
100
AcDbLine
 10
1.958634285052461
 20
0.2551141571464059
 30
0.0
 11
1.958634285052461
 21
0.0000000019637663
 31
0.0
  0
CIRCLE
  5
2FF
330
1E
100
AcDbEntity
  8
0
  6
CONTINUOUS
100
AcDbCircle
 10
0.2197503559748418
 20
0.8991676441849584
 30
0.0
 40
0.046875
  0
CIRCLE
  5
300
330
1E
100
AcDbEntity
  8
0
  6
CONTINUOUS
100
AcDbCircle
 10
2.089956741033916
 20
0.5477178689253359
 30
0.0
 40
0.046875
  0
LINE
  5
32E
330
1E
100
AcDbEntity
  8
0
  6
CONTINUOUS
100
AcDbLine
 10
1.583634285052462
 20
-0.1999999980362335
 30
0.0
 11
0.5836342850524624
 21
-0.1999999980362334
 31
0.0
  0
LINE
  5
330
330
1E
100
AcDbEntity
  8
0
  6
CONTINUOUS
100
AcDbLine
 10
1.583634285052462
 20
0.0000000019637665
 30
0.0
 11
1.583634285052462
 21
-0.1999999980362335
 31
0.0
  0
LINE
  5
331
330
1E
100
AcDbEntity
  8
0
  6
CONTINUOUS
100
AcDbLine
 10
0.5836342850524624
 20
0.0000000019637665
 30
0.0
 11
0.5836342850524624
 21
-0.1999999980362335
 31
0.0
  0
LINE
  5
332
330
1E
100
AcDbEntity
  8
0
  6
CONTINUOUS
100
AcDbLine
 10
0.5836342850524624
 20
0.0000000019637665
 30
0.0
 11
0.2086342850524621
 21
0.0000000019637665
 31
0.0
  0
ENDSEC
  0
SECTION
  2
OBJECTS
  0
DICTIONARY
  5
C
330
0
100
AcDbDictionary
  3
ACAD_GROUP
350
D
  3
ACAD_LAYOUT
350
19
  3
ACAD_MLINESTYLE
350
16
  3
ACAD_PLOTSETTINGS
350
18
  3
ACAD_PLOTSTYLENAME
350
E
  3
ACDBHEADERROUNDTRIPXREC
350
338
  3
ACDBVARIABLEDICTIONARY
350
52
  0
DICTIONARY
  5
35A
330
1E
100
AcDbDictionary
280
     1
  3
ACAD_LAYOUTSELFREF
360
35B
  0
DICTIONARY
  5
358
330
1A
100
AcDbDictionary
280
     1
  3
ACAD_LAYOUTSELFREF
360
359
  0
DICTIONARY
  5
D
102
{ACAD_REACTORS
330
C
102
}
330
C
100
AcDbDictionary
  0
DICTIONARY
  5
19
102
{ACAD_REACTORS
330
C
102
}
330
C
100
AcDbDictionary
  0
DICTIONARY
  5
16
102
{ACAD_REACTORS
330
C
102
}
330
C
100
AcDbDictionary
  3
STANDARD
350
17
  0
DICTIONARY
  5
18
102
{ACAD_REACTORS
330
C
102
}
330
C
100
AcDbDictionary
  0
ACDBDICTIONARYWDFLT
  5
E
102
{ACAD_REACTORS
330
C
102
}
330
C
100
AcDbDictionary
281
     1
  3
Normal
350
F
100
AcDbDictionaryWithDefault
340
F
  0
DICTIONARY
  5
338
102
{ACAD_REACTORS
330
C
102
}
330
C
100
AcDbDictionary
  3
CEPSNTYPE
350
342
  3
FINGERPRINTGUID
350
343
  3
HYPERLINKBASE
350
33B
  3
INSUNITS
350
341
  3
LAYOUTDICT
350
33D
  3
LWETCUNION
350
340
  3
PLOTSETDICT
350
33E
  3
PLOTSTYLNAMDICT
350
33F
  3
PSVPSCALE
350
345
  3
PUCSBASE
350
348
  3
PUCSORGBACK
350
34E
  3
PUCSORGBOTTOM
350
34A
  3
PUCSORGFRONT
350
34D
  3
PUCSORGLEFT
350
34B
  3
PUCSORGRIGHT
350
34C
  3
PUCSORGTOP
350
349
  3
PUCSORTHOREF
350
346
  3
PUCSORTHOVIEW
350
347
  3
STYLESHEET
350
33C
  3
TSTACKALIGN
350
339
  3
TSTACKSIZE
350
33A
  3
UCSBASE
350
351
  3
UCSORGBACK
350
357
  3
UCSORGBOTTOM
350
353
  3
UCSORGFRONT
350
356
  3
UCSORGLEFT
350
354
  3
UCSORGRIGHT
350
355
  3
UCSORGTOP
350
352
  3
UCSORTHOREF
350
34F
  3
UCSORTHOVIEW
350
350
  3
VERSIONGUID
350
344
  0
DICTIONARY
  5
52
102
{ACAD_REACTORS
330
C
102
}
330
C
100
AcDbDictionary
  3
DIMASSOC
350
53
  0
XRECORD
  5
35B
102
{ACAD_REACTORS
330
35A
102
}
330
35A
100
AcDbXrecord
340
1E
  0
XRECORD
  5
359
102
{ACAD_REACTORS
330
358
102
}
330
358
100
AcDbXrecord
340
1A
  0
MLINESTYLE
  5
17
102
{ACAD_REACTORS
330
16
102
}
330
16
100
AcDbMlineStyle
  2
STANDARD
 70
     0
  3

 62
   256
 51
90.0
 52
90.0
 71
     2
 49
0.5
 62
   256
  6
BYLAYER
 49
-0.5
 62
   256
  6
BYLAYER
  0
ACDBPLACEHOLDER
  5
F
102
{ACAD_REACTORS
330
E
102
}
330
E
100
AcDbPlaceHolder
280
     0
  0
XRECORD
  5
342
102
{ACAD_REACTORS
330
338
102
}
330
338
100
AcDbXrecord
 90
        0
  0
XRECORD
  5
343
102
{ACAD_REACTORS
330
338
102
}
330
338
100
AcDbXrecord
  1
{B5B1EB44-2013-4185-8D54-37C34F3D9135}
  0
XRECORD
  5
33B
102
{ACAD_REACTORS
330
338
102
}
330
338
100
AcDbXrecord
  1

  0
XRECORD
  5
341
102
{ACAD_REACTORS
330
338
102
}
330
338
100
AcDbXrecord
 90
        0
  0
XRECORD
  5
33D
102
{ACAD_REACTORS
330
338
102
}
330
338
100
AcDbXrecord
340
19
  0
XRECORD
  5
340
102
{ACAD_REACTORS
330
338
102
}
330
338
100
AcDbXrecord
 90
    10781
  0
XRECORD
  5
33E
102
{ACAD_REACTORS
330
338
102
}
330
338
100
AcDbXrecord
340
18
  0
XRECORD
  5
33F
102
{ACAD_REACTORS
330
338
102
}
330
338
100
AcDbXrecord
340
E
  0
XRECORD
  5
345
102
{ACAD_REACTORS
330
338
102
}
330
338
100
AcDbXrecord
 40
0.0
  0
XRECORD
  5
348
102
{ACAD_REACTORS
330
338
102
}
330
338
100
AcDbXrecord
340
0
  0
XRECORD
  5
34E
102
{ACAD_REACTORS
330
338
102
}
330
338
100
AcDbXrecord
 10
0.0
 20
0.0
 30
0.0
  0
XRECORD
  5
34A
102
{ACAD_REACTORS
330
338
102
}
330
338
100
AcDbXrecord
 10
0.0
 20
0.0
 30
0.0
  0
XRECORD
  5
34D
102
{ACAD_REACTORS
330
338
102
}
330
338
100
AcDbXrecord
 10
0.0
 20
0.0
 30
0.0
  0
XRECORD
  5
34B
102
{ACAD_REACTORS
330
338
102
}
330
338
100
AcDbXrecord
 10
0.0
 20
0.0
 30
0.0
  0
XRECORD
  5
34C
102
{ACAD_REACTORS
330
338
102
}
330
338
100
AcDbXrecord
 10
0.0
 20
0.0
 30
0.0
  0
XRECORD
  5
349
102
{ACAD_REACTORS
330
338
102
}
330
338
100
AcDbXrecord
 10
0.0
 20
0.0
 30
0.0
  0
XRECORD
  5
346
102
{ACAD_REACTORS
330
338
102
}
330
338
100
AcDbXrecord
340
0
  0
XRECORD
  5
347
102
{ACAD_REACTORS
330
338
102
}
330
338
100
AcDbXrecord
 70
     0
  0
XRECORD
  5
33C
102
{ACAD_REACTORS
330
338
102
}
330
338
100
AcDbXrecord
  1

  0
XRECORD
  5
339
102
{ACAD_REACTORS
330
338
102
}
330
338
100
AcDbXrecord
 90
        1
  0
XRECORD
  5
33A
102
{ACAD_REACTORS
330
338
102
}
330
338
100
AcDbXrecord
 90
       70
  0
XRECORD
  5
351
102
{ACAD_REACTORS
330
338
102
}
330
338
100
AcDbXrecord
340
0
  0
XRECORD
  5
357
102
{ACAD_REACTORS
330
338
102
}
330
338
100
AcDbXrecord
 10
0.0
 20
0.0
 30
0.0
  0
XRECORD
  5
353
102
{ACAD_REACTORS
330
338
102
}
330
338
100
AcDbXrecord
 10
0.0
 20
0.0
 30
0.0
  0
XRECORD
  5
356
102
{ACAD_REACTORS
330
338
102
}
330
338
100
AcDbXrecord
 10
0.0
 20
0.0
 30
0.0
  0
XRECORD
  5
354
102
{ACAD_REACTORS
330
338
102
}
330
338
100
AcDbXrecord
 10
0.0
 20
0.0
 30
0.0
  0
XRECORD
  5
355
102
{ACAD_REACTORS
330
338
102
}
330
338
100
AcDbXrecord
 10
0.0
 20
0.0
 30
0.0
  0
XRECORD
  5
352
102
{ACAD_REACTORS
330
338
102
}
330
338
100
AcDbXrecord
 10
0.0
 20
0.0
 30
0.0
  0
XRECORD
  5
34F
102
{ACAD_REACTORS
330
338
102
}
330
338
100
AcDbXrecord
340
0
  0
XRECORD
  5
350
102
{ACAD_REACTORS
330
338
102
}
330
338
100
AcDbXrecord
 70
     0
  0
XRECORD
  5
344
102
{ACAD_REACTORS
330
338
102
}
330
338
100
AcDbXrecord
  1
{F5E2E20F-AB2B-4D25-B8E4-7D6A6E18B7C2}
  0
DICTIONARYVAR
  5
53
102
{ACAD_REACTORS
330
52
102
}
330
52
100
DictionaryVariables
280
     0
  1
1
  0
ENDSEC
  0
EOF
